<?xml version="1.0" standalone="no"?>
<!DOCTYPE svg PUBLIC "-//W3C//DTD SVG 1.1//EN" "http://www.w3.org/Graphics/SVG/1.1/DTD/svg11.dtd" >
<svg xmlns="http://www.w3.org/2000/svg">
<metadata>
Created by FontPrep 20130207 at Thu Aug 25 09:40:25 2016
 By Phillip De Vita
(c) 2014 Adobe Systems Incorporated. All Rights Reserved.
</metadata>
<defs>
<font id="7db59eafe919849aca5debe077f54361" horiz-adv-x='1024' >
  <font-face 
    font-family="AcuminProSemiCond-Bold"
    font-weight="700"
    font-stretch="semi-condensed"
    units-per-em="2048"
    panose-1="2 11 8 6 2 2 2 2 2 4"
    ascent="1505"
    descent="-543"
    x-height="1061"
    cap-height="1403"
    bbox="-436 -535 2470.04 2157.02"
    underline-thickness="102"
    underline-position="-102"
    unicode-range="U+0020-FB02"
  />
<missing-glyph horiz-adv-x="1024" 
d="M102 1239v-1044l349 522zM164 102h696l-348 523zM573 717l349 -522v1044zM512 809l348 522h-696zM0 0v1434h1024v-1434h-1024z" />
    <glyph glyph-name="f_f" unicode="ff" horiz-adv-x="1169" 
d="M731 844h-293v-844h-276v844h-146v217h146v96q0 162 80 253t243 91q78 0 127 -16l-2 -219q-31 6 -73 6q-98 0 -99 -121v-90h293v94q0 162 81 255t245 93q76 0 125 -16l-2 -221q-31 8 -74 8q-98 0 -98 -127v-86h174v-217h-174v-844h-277v844z" />
    <glyph glyph-name=".notdef" horiz-adv-x="1024" 
d="M102 1239v-1044l349 522zM164 102h696l-348 523zM573 717l349 -522v1044zM512 809l348 522h-696zM0 0v1434h1024v-1434h-1024z" />
    <glyph glyph-name=".null" horiz-adv-x="0" 
 />
    <glyph glyph-name="nonmarkingreturn" horiz-adv-x="681" 
 />
    <glyph glyph-name="space" unicode=" " horiz-adv-x="493" 
 />
    <glyph glyph-name="exclam" unicode="!" horiz-adv-x="600" 
d="M477 0h-274v324h274v-324zM195 1405h297v-244l-31 -655h-236l-30 655v244z" />
    <glyph glyph-name="quotedbl" unicode="&#x22;" horiz-adv-x="765" 
d="M432 1489h244v-191l-23 -389h-194l-27 391v189zM90 1489h244v-191l-25 -389h-192l-27 391v189z" />
    <glyph glyph-name="numbersign" unicode="#" horiz-adv-x="1083" 
d="M606 573l58 248h-203l-55 -248h200zM35 362v211h184l57 248h-167v207h217l75 330h183l-76 -330h203l75 330h187l-76 -330h133v-207h-180l-55 -248h170v-211h-220l-81 -362h-191l84 362h-201l-82 -362h-188l84 362h-135z" />
    <glyph glyph-name="dollar" unicode="$" horiz-adv-x="1071" 
d="M643 -176h-227v178q-168 25 -264 123t-109 264h272q25 -201 215 -201t191 162q0 82 -51 131t-193 101q-219 80 -310 171t-91 243t92 245q92 94 248 119v137h227v-141q156 -29 240 -122t88 -237h-273q-10 80 -49 128q-39 49 -123 49t-127 -40t-43 -109t48 -112t230 -107
t276 -164q93 -99 94 -249q0 -344 -361 -391v-178z" />
    <glyph glyph-name="percent" unicode="%" horiz-adv-x="1781" 
d="M1358 631q-133 1 -133 -233t133 -234t133 234t-133 233zM1356 813q160 1 254 -107t94 -300t-90 -310q-90 -116 -257 -116t-257 114t-90 300q0 187 93 303t253 116zM573 0h-182l811 1358h187zM425 1198q-132 0 -132 -234t132 -235q132 1 132 235t-132 234zM422 1380
q160 0 254 -108t94 -300q0 -190 -90 -308t-256 -117q-166 -1 -256 113t-90 302t92 302q92 116 252 116z" />
    <glyph glyph-name="ampersand" unicode="&#x26;" horiz-adv-x="1480" 
d="M725 1083q-1 59 -31 101t-94 41q-64 0 -98 -39q-35 -39 -35 -101q0 -92 108 -206q150 96 150 204zM528 -18q-202 0 -322 112t-120 285q0 109 58 200t210 181q-141 160 -141 309t101 251q100 102 280 101q180 0 275 -98q95 -99 95 -223t-58 -206t-181 -155l197 -188
l196 303h281l-316 -457l414 -397h-369l-194 188q-84 -106 -175 -156t-231 -50zM555 225q123 0 221 117l-280 272q-129 -92 -129 -211q0 -74 48 -126t140 -52z" />
    <glyph glyph-name="quotesingle" unicode="'" horiz-adv-x="428" 
d="M90 1491h250v-193l-23 -344h-206l-21 346v191z" />
    <glyph glyph-name="parenleft" unicode="(" horiz-adv-x="729" 
d="M356 572q0 -484 297 -916h-256q-285 399 -284 930q1 262 81 494t203 403h256q-297 -427 -297 -911z" />
    <glyph glyph-name="parenright" unicode=")" horiz-adv-x="729" 
d="M367 568q0 486 -299 915h258q283 -397 282 -930q0 -261 -80 -493t-202 -404h-258q299 426 299 912z" />
    <glyph glyph-name="asterisk" unicode="*" horiz-adv-x="813" 
d="M311 1403h187l-35 -260l205 166l98 -168l-248 -107l242 -106l-96 -166l-203 164l37 -258h-187l35 258l-203 -162l-92 168l238 104l-242 105l96 166l201 -164z" />
    <glyph glyph-name="plus" unicode="+" horiz-adv-x="1204" 
d="M500 1020h211v-397h387v-211h-387v-402h-211v402h-391v211h391v397z" />
    <glyph glyph-name="comma" unicode="," horiz-adv-x="452" 
d="M199 -240h-213q43 88 82 247t49 319h264q-6 -150 -56 -310t-126 -256z" />
    <glyph glyph-name="hyphen" unicode="-" horiz-adv-x="702" 
d="M86 645h530v-233h-530v233z" />
    <glyph glyph-name="period" unicode="." horiz-adv-x="423" 
d="M348 0h-272v324h272v-324z" />
    <glyph glyph-name="slash" unicode="/" horiz-adv-x="827" 
d="M276 -20h-208l483 1441h207z" />
    <glyph glyph-name="zero" unicode="0" horiz-adv-x="1153" 
d="M778 760q0 407 -198 407q-108 -1 -156 -111q-49 -110 -49 -358t45 -378t163 -130t158 142q20 72 29 160q8 88 8 268zM584 1378q248 0 362 -178t115 -487q0 -733 -484 -733t-485 720q0 288 115 478q57 94 153 147t224 53z" />
    <glyph glyph-name="one" unicode="1" horiz-adv-x="651" 
d="M500 0h-277v1042q-92 -14 -180 -8v201q160 12 268 125h189v-1360z" />
    <glyph glyph-name="two" unicode="2" horiz-adv-x="1054" 
d="M63 0v10q0 164 85 324t327 344q131 102 177 162t46 143q0 84 -45 132t-127 48q-174 0 -194 -221h-266q8 188 123 312t337 124t338 -112t117 -283q0 -133 -66 -230t-266 -244t-250 -280h619l-35 -229h-920z" />
    <glyph glyph-name="three" unicode="3" horiz-adv-x="1101" 
d="M975 1018q0 -106 -53 -175t-125 -98v-4q236 -80 235 -338q0 -172 -124 -298q-124 -125 -364 -125t-359 112q-118 112 -130 283h271q33 -180 219 -180q203 -1 203 207t-238 208h-102v219h84q110 0 158 38t48 130q0 170 -174 170q-165 0 -188 -180h-254q16 166 125 279
q109 112 330 112t329 -103t109 -257z" />
    <glyph glyph-name="four" unicode="4" horiz-adv-x="1091" 
d="M662 539v295q0 229 6 321q-42 -86 -190 -338t-163 -278h347zM918 0h-256v313h-596v244l509 805h343v-823h145l-25 -226h-120v-313z" />
    <glyph glyph-name="five" unicode="5" horiz-adv-x="1114" 
d="M629 920q197 0 305 -126t106 -335q0 -209 -127 -344t-370 -135q-201 0 -326 97t-139 288h270q33 -170 201 -170q209 0 209 260q0 113 -52 181t-159 66q-162 0 -215 -141l-232 35q45 238 99 762h794l-32 -228h-545q-16 -172 -35 -288q90 78 248 78z" />
    <glyph glyph-name="six" unicode="6" horiz-adv-x="1120" 
d="M578 190q92 0 144 68t52 192q0 248 -200 248t-199 -223q0 -285 203 -285zM640 909q181 -1 296 -113t115 -327t-123 -351t-346 -136q-268 0 -379 172t-111 484t107 516q55 104 158 164t245 60q193 0 295 -93t125 -238h-268q-31 123 -170 122q-211 0 -219 -381
q94 121 275 121z" />
    <glyph glyph-name="seven" unicode="7" horiz-adv-x="950" 
d="M20 1358h910v-217q-174 -231 -305 -537t-191 -604h-289q59 312 205 622t303 508h-633v228z" />
    <glyph glyph-name="eight" unicode="8" horiz-adv-x="1130" 
d="M567 1174q-86 0 -131 -46t-45 -127q0 -80 45 -129t130 -49t130 45t45 127q0 83 -44 131t-130 48zM568 188q102 0 152 60t50 158q0 100 -54 156t-156 56t-153 -58t-51 -154t56 -157t156 -61zM558 -20q-232 0 -354 118t-122 297q0 125 62 206t145 118q-74 41 -117 117
t-43 170q0 170 118 271q117 101 319 101t321 -99t119 -265q0 -201 -168 -281q84 -33 147 -118t64 -209q0 -202 -129 -314q-130 -112 -362 -112z" />
    <glyph glyph-name="nine" unicode="9" horiz-adv-x="1120" 
d="M549 1169q-92 0 -143 -62q-52 -62 -52 -175t54 -172t143 -60q195 0 194 197q1 272 -196 272zM547 188q51 0 89 29q70 53 91 150t29 221q-74 -100 -257 -100t-303 114q-120 116 -120 314t127 330t342 132q483 0 483 -633q0 -561 -257 -707q-99 -56 -241 -56
q-200 0 -304 97t-122 238h271q33 -129 172 -129z" />
    <glyph glyph-name="colon" unicode=":" horiz-adv-x="561" 
d="M416 719h-271v323h271v-323zM416 0h-271v324h271v-324z" />
    <glyph glyph-name="semicolon" unicode=";" horiz-adv-x="591" 
d="M446 719h-272v323h272v-323zM262 -240h-213q115 285 127 566h266q-2 -134 -55 -304t-125 -262z" />
    <glyph glyph-name="less" unicode="&#x3c;" horiz-adv-x="1011" 
d="M111 418v200l792 416v-227l-575 -289l575 -291v-229z" />
    <glyph glyph-name="equal" unicode="=" horiz-adv-x="1208" 
d="M109 846h989v-211h-989v211zM109 395h989v-211h-989v211z" />
    <glyph glyph-name="greater" unicode="&#x3e;" horiz-adv-x="1011" 
d="M899 614v-200l-793 -416v227l576 289l-576 293v227z" />
    <glyph glyph-name="question" unicode="?" horiz-adv-x="997" 
d="M645 0h-289v334h289v-334zM645 440h-289v29q0 100 41 177t154 191t113 212q0 73 -39 115t-113 42q-156 0 -170 -207h-256q6 185 110 305t326 118q221 -2 319 -110q97 -108 97 -263q0 -183 -158 -341q-82 -82 -109 -132q-26 -50 -26 -113v-23z" />
    <glyph glyph-name="at" unicode="@" horiz-adv-x="1820" 
d="M924 715q-80 1 -127 -103t-47 -235q0 -170 114 -170q147 0 178 272q14 125 -12 181t-106 55zM870 -416q-356 0 -568 232t-212 609q0 376 218 639q106 128 272 205t368 77q350 0 565 -198t216 -532q0 -288 -120 -454q-121 -166 -311 -166t-231 143q-94 -143 -291 -143
q-118 0 -196 89t-78 275q0 252 112 408q113 156 274 156t195 -109l15 88h241l-84 -571q-11 -70 7 -101t71 -30q98 0 152 112q53 113 53 289q0 268 -161 422t-431 154q-158 0 -284 -62t-204 -166q-163 -216 -163 -496q0 -281 135 -479q68 -98 188 -156t277 -59q262 1 444 97
l43 -162q-156 -111 -512 -111z" />
    <glyph glyph-name="A" unicode="A" horiz-adv-x="1275" 
d="M446 569h353q-152 500 -181 617h-2q-41 -191 -170 -617zM856 334h-465l-98 -334h-281q8 28 213 700t215 703h371l451 -1403h-299z" />
    <glyph glyph-name="B" unicode="B" horiz-adv-x="1280" 
d="M432 635v-420h234q104 0 168 52q63 52 63 157q0 211 -252 211h-213zM432 852h215q113 0 164 39t51 127q0 168 -200 168h-230v-334zM152 0v1403h544q219 0 332 -100t113 -256q0 -213 -172 -283q93 -39 157 -123t64 -217q0 -200 -138 -312t-366 -112h-534z" />
    <glyph glyph-name="C" unicode="C" horiz-adv-x="1323" 
d="M690 -20q-459 0 -569 440q-33 127 -33 282q0 312 159 516t453 203q380 0 501 -295q32 -78 38 -163h-281q-27 109 -81 169q-55 60 -175 60t-194 -72q-72 -72 -100 -177t-27 -241q0 -496 313 -495q127 0 186 66q58 67 85 169h282q-33 -198 -170 -330t-387 -132z" />
    <glyph glyph-name="D" unicode="D" horiz-adv-x="1388" 
d="M440 1174v-949h185q184 0 281 131q98 132 98 354t-94 343t-283 121h-187zM152 0v1403h487q315 0 488 -179t173 -508q0 -328 -177 -522t-494 -194h-477z" />
    <glyph glyph-name="E" unicode="E" horiz-adv-x="1159" 
d="M1040 850v-238h-610v-376h674l-35 -236h-917v1403h915v-236h-637v-317h610z" />
    <glyph glyph-name="F" unicode="F" horiz-adv-x="1122" 
d="M152 0v1403h899v-236h-619v-356h582v-231h-582v-580h-280z" />
    <glyph glyph-name="G" unicode="G" horiz-adv-x="1398" 
d="M1270 784v-784h-211q-16 76 -21 164q-96 -184 -376 -184t-428 198q-146 199 -146 514t171 522t470 207q240 -1 377 -117t166 -303h-281q-57 190 -278 191q-172 0 -252 -140t-80 -358t82 -352q82 -135 250 -135q272 0 272 328v6h-293v243h578z" />
    <glyph glyph-name="H" unicode="H" horiz-adv-x="1388" 
d="M152 0v1403h286v-553h512v553h287v-1403h-287v612h-512v-612h-286z" />
    <glyph glyph-name="I" unicode="I" horiz-adv-x="591" 
d="M152 1403h286v-1403h-286v1403z" />
    <glyph glyph-name="J" unicode="J" horiz-adv-x="753" 
d="M618 1403v-965q0 -231 -94 -344t-317 -112q-90 0 -162 14v225q43 -6 132 -6t123 53t34 164v971h284z" />
    <glyph glyph-name="K" unicode="K" horiz-adv-x="1286" 
d="M434 0h-282v1403h280v-647l504 647h342l-479 -565l508 -838h-342l-363 649l-168 -186v-463z" />
    <glyph glyph-name="L" unicode="L" horiz-adv-x="1081" 
d="M152 0v1403h286v-1167h627l-33 -236h-880z" />
    <glyph glyph-name="M" unicode="M" horiz-adv-x="1705" 
d="M1278 0v524q0 420 10 682h-10q-100 -457 -328 -1206h-248q-205 756 -294 1210h-13q18 -246 19 -710v-500h-262v1403h428q74 -244 154 -556t110 -474h2q31 186 297 1030h411v-1403h-276z" />
    <glyph glyph-name="N" unicode="N" horiz-adv-x="1423" 
d="M412 0h-260v1403h364q485 -991 506 -1061h4q-16 193 -16 627v434h262v-1403h-350q-479 1004 -519 1106h-2q10 -178 11 -672v-434z" />
    <glyph glyph-name="O" unicode="O" horiz-adv-x="1431" 
d="M718 1194q-171 0 -253 -134t-82 -352t87 -360t247 -141q334 0 334 502q0 213 -81 349t-252 136zM746 1421q184 0 327 -101q270 -191 270 -611q-1 -322 -161 -526t-475 -203q-158 0 -279 57q-223 105 -303 391q-37 130 -37 274t38 267t112 226t200 165q124 62 308 61z" />
    <glyph glyph-name="P" unicode="P" horiz-adv-x="1228" 
d="M438 1176v-408h189q246 0 245 211q0 197 -237 197h-197zM152 0v1403h516q211 0 353 -109q142 -108 142 -316t-142 -323t-378 -114h-205v-541h-286z" />
    <glyph glyph-name="Q" unicode="Q" horiz-adv-x="1431" 
d="M716 1194q-171 0 -253 -134t-82 -352t87 -360t247 -141q334 0 334 502q0 213 -81 349t-252 136zM744 1421q184 0 327 -101q270 -191 270 -611q0 -375 -200 -570l291 -205l-156 -198l-375 268q-90 -24 -222 -24t-253 57q-223 105 -303 391q-37 130 -37 274t38 267t112 226
t200 165q124 62 308 61z" />
    <glyph glyph-name="R" unicode="R" horiz-adv-x="1275" 
d="M895 999q0 177 -209 177h-254v-369h213q250 0 250 192zM623 580h-191v-580h-280v1403h571q205 0 330 -99t125 -280q0 -244 -220 -328q102 -41 146 -123t45 -215v-36q0 -205 18 -322h-276q-27 78 -27 326v36q0 122 -52 170t-189 48z" />
    <glyph glyph-name="S" unicode="S" horiz-adv-x="1183" 
d="M602 203q217 0 217 170q0 92 -61 142t-219 95q-240 66 -338 160q-99 94 -99 266t134 278t358 107q224 -1 346 -109t133 -290h-280q-17 86 -65 134t-153 48q-188 0 -188 -157q0 -74 54 -109t216 -82q256 -74 354 -181q97 -109 97 -281t-129 -292t-375 -120t-385 113
q-139 114 -151 319h282q35 -211 252 -211z" />
    <glyph glyph-name="T" unicode="T" horiz-adv-x="1120" 
d="M416 0v1167h-379v236h1048v-236h-380v-1167h-289z" />
    <glyph glyph-name="U" unicode="U" horiz-adv-x="1355" 
d="M133 1403h287v-893q0 -139 55 -221t203 -82t203 80q53 80 53 223v893h289v-899q0 -524 -549 -524q-293 0 -417 138t-124 384v901z" />
    <glyph glyph-name="V" unicode="V" horiz-adv-x="1249" 
d="M788 0h-342l-450 1403h305l186 -637q102 -348 134 -498h4q43 184 139 490l197 645h292z" />
    <glyph glyph-name="W" unicode="W" horiz-adv-x="1798" 
d="M657 0h-297l-329 1403h305q150 -745 188 -1079h2q29 147 126 550t126 529h258q203 -836 240 -1065h2q27 186 118 618t93 447h280l-352 -1403h-297q-28 122 -114 490t-113 509h-2q-35 -178 -234 -999z" />
    <glyph glyph-name="X" unicode="X" horiz-adv-x="1140" 
d="M1167 0h-325l-281 502h-2l-280 -502h-306l430 705l-417 698h327l262 -473l3 2l270 471h301l-414 -670z" />
    <glyph glyph-name="Y" unicode="Y" horiz-adv-x="1159" 
d="M721 537v-537h-285v528q0 29 -12 45l-444 830h321q29 -61 143 -298t148 -312l291 610h297l-447 -823q-12 -18 -12 -43z" />
    <glyph glyph-name="Z" unicode="Z" horiz-adv-x="1169" 
d="M47 0v205l696 962h-661v236h997v-232l-680 -935h717l-37 -236h-1032z" />
    <glyph glyph-name="bracketleft" unicode="[" horiz-adv-x="673" 
d="M604 -344h-454v1825h454v-191h-239v-1442h239v-192z" />
    <glyph glyph-name="backslash" unicode="\" horiz-adv-x="827" 
d="M549 -20l-481 1441h208l484 -1441h-211z" />
    <glyph glyph-name="bracketright" unicode="]" horiz-adv-x="673" 
d="M68 1481h458v-1825h-458v190h241v1442h-241v193z" />
    <glyph glyph-name="asciicircum" unicode="^" horiz-adv-x="921" 
d="M889 662h-217l-215 485l-207 -485h-217l321 704h217z" />
    <glyph glyph-name="underscore" unicode="_" horiz-adv-x="1050" 
d="M2 -160h1047v-104h-1047v104z" />
    <glyph glyph-name="grave" unicode="`" 
d="M41 1511h328l215 -301h-238z" />
    <glyph glyph-name="a" unicode="a" horiz-adv-x="1099" 
d="M705 453v22h-130q-225 0 -225 -147q0 -60 37 -98t113 -37q117 -1 161 67t44 193zM969 731v-457q0 -168 14 -274h-244q-10 41 -16 129q-74 -147 -297 -147q-182 0 -268 94t-86 240t119 241q120 96 380 96h125v78q0 74 -32 114q-33 40 -118 40t-121 -37t-44 -105h-268
q8 145 109 241t327 97q420 0 420 -350z" />
    <glyph glyph-name="b" unicode="b" horiz-adv-x="1181" 
d="M831 540q0 312 -219 312q-121 0 -170 -78t-49 -242t50 -245q50 -82 164 -82t169 92q55 93 55 243zM131 324v1165h279v-545q92 137 290 137t306 -147q106 -147 106 -390t-116 -403t-332 -159q-184 0 -258 120q-4 -66 -9 -102h-270q4 144 4 324z" />
    <glyph glyph-name="c" unicode="c" horiz-adv-x="1062" 
d="M557 868q-205 0 -205 -338t201 -337q82 0 122 46t58 132h277q-25 -174 -139 -282q-114 -107 -339 -107t-344 141q-118 141 -118 400t132 409t361 149q123 0 214 -40q91 -41 138 -105q91 -125 95 -252h-279q-20 184 -174 184z" />
    <glyph glyph-name="d" unicode="d" horiz-adv-x="1185" 
d="M346 538q0 -333 227 -333q119 0 163 80t44 253q0 172 -44 244t-156 72t-174 -80q-60 -80 -60 -236zM768 1489h279v-1194q0 -172 4 -295h-271q-10 72 -10 125q-78 -145 -287 -145t-314 148t-105 396t122 403q123 155 327 155t255 -99v506z" />
    <glyph glyph-name="e" unicode="e" horiz-adv-x="1091" 
d="M557 872q-105 0 -151 -66t-52 -157h400q-8 223 -197 223zM350 467q0 -113 49 -191t158 -77q137 0 182 127h273q-100 -344 -463 -344q-242 0 -361 148q-118 148 -118 381t109 391q57 81 155 130t227 49q257 0 360 -156t103 -372q0 -53 -4 -86h-670z" />
    <glyph glyph-name="f" unicode="f" horiz-adv-x="598" 
d="M438 0h-276v844h-146v217h146v96q0 164 80 255t245 91q70 0 119 -16v-221q-41 8 -74 8q-94 0 -94 -123v-90h174v-217h-174v-844z" />
    <glyph glyph-name="g" unicode="g" horiz-adv-x="1171" 
d="M356 552q0 -148 56 -230t166 -82q108 0 156 72t48 235q0 165 -40 235t-152 70t-174 -76q-60 -76 -60 -224zM1047 104q-1 -528 -487 -528q-248 0 -355 99q-106 99 -117 243h274q29 -129 199 -129q125 0 169 71t44 226v66q-74 -140 -274 -140t-316 142q-114 142 -114 388
q0 245 128 392t324 147t246 -118q0 37 12 98h271q-4 -107 -4 -320v-637z" />
    <glyph glyph-name="h" unicode="h" horiz-adv-x="1169" 
d="M131 1489h279v-557q84 150 295 149q153 0 243 -93t90 -292v-696h-274v653q0 199 -168 199q-186 0 -186 -262v-590h-279v1489z" />
    <glyph glyph-name="i" unicode="i" horiz-adv-x="540" 
d="M410 1233h-279v256h279v-256zM131 0v1061h279v-1061h-279z" />
    <glyph glyph-name="j" unicode="j" horiz-adv-x="540" 
d="M410 1233h-279v256h279v-256zM131 1061h279v-1047q0 -116 -10 -186q-26 -172 -143 -223q-67 -29 -147 -29t-116 6v228q71 -7 90 3q20 11 34 24t13 49v1175z" />
    <glyph glyph-name="k" unicode="k" horiz-adv-x="1064" 
d="M410 0h-279v1489h279v-871q174 221 338 443h315l-350 -414q80 -129 381 -647h-320q-43 80 -246 463l-118 -129v-334z" />
    <glyph glyph-name="l" unicode="l" horiz-adv-x="540" 
d="M410 0h-279v1489h279v-1489z" />
    <glyph glyph-name="m" unicode="m" horiz-adv-x="1751" 
d="M131 0v731q0 231 -4 330h270q4 -31 9 -127q94 147 294 147t265 -166q39 70 123 118t212 48t224 -89t96 -281v-711h-272v666q0 186 -154 186q-180 0 -180 -248v-604h-273v674q0 78 -38 128q-39 50 -123 50q-174 0 -174 -262v-590h-275z" />
    <glyph glyph-name="n" unicode="n" horiz-adv-x="1169" 
d="M131 0v729q0 238 -4 332h270q10 -51 11 -137q36 68 112 112t182 45q166 0 251 -101t85 -286v-694h-278v641q0 99 -35 155t-129 56t-140 -61t-46 -199v-592h-279z" />
    <glyph glyph-name="o" unicode="o" horiz-adv-x="1142" 
d="M569 862q-104 0 -161 -85t-58 -230q0 -348 228 -348q104 0 160 88t57 256q-1 319 -226 319zM576 1081q248 -1 374 -153t125 -392q0 -240 -126 -399q-126 -157 -383 -157t-378 160q-120 160 -120 390t130 390t378 161z" />
    <glyph glyph-name="p" unicode="p" horiz-adv-x="1183" 
d="M606 205q225 1 225 325t-217 324q-123 0 -171 -74t-48 -245t47 -251t164 -79zM408 -408h-277v1162q0 272 -2 307h270q4 -35 9 -141q34 68 108 114t197 47q177 0 289 -137t112 -397t-127 -413q-127 -152 -319 -152t-260 110v-500z" />
    <glyph glyph-name="q" unicode="q" horiz-adv-x="1179" 
d="M356 535q0 -330 226 -330q114 0 160 77t46 257q0 179 -47 247t-157 68t-169 -84t-59 -235zM786 -408v523q-86 -133 -294 -133q-158 0 -282 118q-65 61 -102 173q-38 112 -38 262q0 247 132 397t328 150t248 -124q4 63 10 103h271q-4 -180 -4 -344v-1125h-269z" />
    <glyph glyph-name="r" unicode="r" horiz-adv-x="757" 
d="M131 0v700q0 287 -4 361h270q8 -63 9 -187q33 82 111 143q79 60 210 60v-282q-170 4 -244 -66t-73 -248v-481h-279z" />
    <glyph glyph-name="s" unicode="s" horiz-adv-x="985" 
d="M86 762q0 123 94 221t301 98t309 -90t111 -233h-270q-17 121 -145 121t-128 -93q0 -42 40 -68t155 -54q211 -54 294 -136t83 -228t-119 -232t-315 -86t-313 87q-116 87 -132 257h273q20 -144 176 -144t155 107q0 49 -46 78t-212 75q-167 46 -239 121q-72 76 -72 199z" />
    <glyph glyph-name="t" unicode="t" horiz-adv-x="661" 
d="M8 844v217h150v287h276v-287h189v-217h-189v-545q0 -57 27 -86t141 -12v-191q-62 -20 -192 -20t-191 64t-61 214v576h-150z" />
    <glyph glyph-name="u" unicode="u" horiz-adv-x="1150" 
d="M1020 1061v-748q0 -203 4 -313h-270q-6 35 -11 127q-86 -145 -292 -145q-158 0 -243 96t-85 274v709h276v-662q0 -188 156 -188q186 0 186 258v592h279z" />
    <glyph glyph-name="v" unicode="v" horiz-adv-x="1024" 
d="M12 1061h297q184 -655 207 -793h2q16 97 100 381q84 285 119 412h275l-361 -1061h-291z" />
    <glyph glyph-name="w" unicode="w" horiz-adv-x="1570" 
d="M25 1061h297q158 -745 161 -770h4q8 43 185 770h250q162 -629 178 -764h2q14 86 170 764h276l-315 -1061h-279q-27 113 -92 371t-76 329h-2q-27 -156 -180 -700h-280z" />
    <glyph glyph-name="x" unicode="x" horiz-adv-x="909" 
d="M627 0l-181 354h-2q-141 -285 -180 -354h-297l314 518l-310 543h305q158 -293 181 -340h2l190 340h293l-324 -500l320 -561h-311z" />
    <glyph glyph-name="y" unicode="y" horiz-adv-x="1026" 
d="M248 -424q-58 0 -123 8v228q43 -6 96 -7q119 0 162 146l-371 1110h295q199 -719 213 -819h2q49 225 213 819h279l-361 -1106q-83 -250 -181 -314q-98 -65 -224 -65z" />
    <glyph glyph-name="z" unicode="z" horiz-adv-x="933" 
d="M55 0v209q223 266 508 633h-477v219h788v-217q-80 -102 -250 -318t-245 -309h528l-33 -217h-819z" />
    <glyph glyph-name="braceleft" unicode="{" horiz-adv-x="751" 
d="M80 451v231q118 0 154 46t36 144v248q0 360 357 361h59v-199h-39q-81 -2 -111 -41t-30 -127v-235q0 -131 -40 -208t-147 -100q111 -20 149 -97t38 -216v-229q0 -92 35 -133t114 -41h31v-201h-59q-356 0 -357 356v266q0 49 -4 74q-11 71 -79 89q-39 12 -107 12z" />
    <glyph glyph-name="bar" unicode="|" horiz-adv-x="542" 
d="M156 1597h231v-2132h-231v2132z" />
    <glyph glyph-name="braceright" unicode="}" horiz-adv-x="751" 
d="M668 451q-119 0 -155 -45t-36 -146v-246q0 -360 -356 -360h-58v199h37q82 2 112 41t30 124v238q0 131 40 208t148 99q-112 20 -150 97t-38 217v229q0 90 -35 132t-113 42h-31v201h60q354 0 354 -359v-266q0 -47 4 -73q3 -27 21 -53q32 -49 166 -48v-231z" />
    <glyph glyph-name="asciitilde" unicode="~" horiz-adv-x="1167" 
d="M317 356h-190v70q0 145 63 212q62 67 152 67t179 -38t160 -76t107 -38t51 20t15 78v41h188v-57q0 -161 -56 -227t-158 -66t-249 78q-148 78 -194 78q-68 0 -68 -92v-50z" />
    <glyph glyph-name="uni00A0" unicode="&#xa0;" horiz-adv-x="493" 
 />
    <glyph glyph-name="exclamdown" unicode="&#xa1;" horiz-adv-x="577" 
d="M127 1059h274v-324h-274v324zM410 -346h-297v244l30 655h236l31 -655v-244z" />
    <glyph glyph-name="cent" unicode="&#xa2;" horiz-adv-x="1128" 
d="M709 -14h-228v161q-182 35 -279 173q-98 138 -98 344q0 205 94 345t283 177v139h228v-135q165 -27 247 -127t88 -240h-266q-20 170 -186 170q-205 -1 -205 -323t207 -322q84 0 126 40t60 118h264q-16 -142 -100 -238t-235 -123v-159z" />
    <glyph glyph-name="sterling" unicode="&#xa3;" horiz-adv-x="1073" 
d="M84 0v217q147 66 147 334q0 27 -2 39h-163v180h147q-10 86 -10 170q0 209 104 324q104 114 302 114t292 -100t98 -260h-247q-16 154 -142 153q-74 0 -104 -53t-29 -139q0 -86 12 -209h273v-180h-264q-6 -231 -105 -354h643l-41 -236h-911z" />
    <glyph glyph-name="currency" unicode="&#xa4;" horiz-adv-x="1077" 
d="M521 942q-95 0 -144 -66t-49 -182t53 -176t137 -61q190 0 191 252q0 100 -46 167q-47 66 -142 66zM526 1120q121 0 211 -57l137 141l146 -151l-146 -150q39 -83 39 -197t-39 -208l146 -148l-146 -153l-135 139q-92 -57 -217 -57t-219 59l-135 -141l-143 153l141 148
q-41 92 -41 206t41 201l-141 148l141 151l141 -139q98 55 219 55z" />
    <glyph glyph-name="yen" unicode="&#xa5;" horiz-adv-x="980" 
d="M283 1358l204 -471h2q6 20 207 471h291l-334 -604h209v-144h-250v-106h250v-144h-250v-360h-272v360h-246v144h246v106h-246v144h207l-319 604h301z" />
    <glyph glyph-name="brokenbar" unicode="&#xa6;" horiz-adv-x="522" 
d="M156 1405h213v-725h-213v725zM156 365h213v-730h-213v730z" />
    <glyph glyph-name="section" unicode="&#xa7;" horiz-adv-x="1153" 
d="M319 609q0 -83 43 -130t191 -108q43 -20 109 -49t92 -43q53 55 53 136t-42 130q-41 49 -183 113t-181 90q-82 -56 -82 -139zM575 1221q-150 0 -149 -123q0 -53 49 -91t233 -118t268 -176q85 -96 85 -250q0 -195 -143 -311q70 -86 69 -213q0 -175 -118 -269
q-119 -94 -323 -94t-323 96t-133 265h260q14 -76 68 -116t137 -40q168 0 168 127q0 61 -48 101t-210 112q-223 92 -309 188t-86 246q0 92 47 174t123 133q-74 88 -74 226t103 235q103 98 317 98t311 -101q98 -101 104 -253h-247q-12 70 -49 112t-130 42z" />
    <glyph glyph-name="dieresis" unicode="&#xa8;" 
d="M709 1223h-222v256h222v-256zM330 1223h-219v256h219v-256z" />
    <glyph glyph-name="copyright" unicode="&#xa9;" horiz-adv-x="1507" 
d="M752 1282q-230 0 -378 -159t-148 -420t149 -425q150 -164 381 -163q231 0 380 155q148 156 148 421t-150 428q-151 163 -382 163zM756 1409q287 0 476 -198t189 -515t-188 -513q-188 -195 -478 -195t-480 194q-189 195 -189 511t192 516t478 200zM750 317
q-154 -1 -244 103t-90 286t93 285t251 103t238 -83t89 -200h-180q-25 125 -143 125q-72 0 -115 -57t-43 -164q0 -244 154 -244q118 0 145 129h182q-18 -131 -101 -207q-82 -76 -236 -76z" />
    <glyph glyph-name="ordfeminine" unicode="&#xaa;" horiz-adv-x="731" 
d="M444 850v16h-73q-123 0 -123 -84q0 -32 22 -54t60 -21q114 0 114 143zM645 1018v-279q0 -106 6 -180h-196q-8 41 -9 70q-59 -82 -196 -82q-96 0 -154 59q-57 59 -57 152q0 238 338 237h59v41q0 84 -82 84q-47 0 -63 -22t-21 -58h-200q4 88 71 151q67 62 225 62t219 -65
q60 -66 60 -170z" />
    <glyph glyph-name="guillemotleft" unicode="&#xab;" horiz-adv-x="1095" 
d="M1020 926l-285 -391l285 -394h-225l-287 394l287 391h225zM588 926l-283 -391l283 -394h-223l-289 394l289 391h223z" />
    <glyph glyph-name="logicalnot" unicode="&#xac;" horiz-adv-x="1204" 
d="M106 739h986v-600h-213v389h-773v211z" />
    <glyph glyph-name="uni00AD" unicode="&#xad;" horiz-adv-x="702" 
d="M86 645h530v-233h-530v233z" />
    <glyph glyph-name="registered" unicode="&#xae;" horiz-adv-x="669" 
d="M343 1343q-99 0 -158 -65q-58 -66 -58 -170t61 -168q62 -64 162 -63q100 0 159 61q58 60 58 166t-62 173q-63 66 -162 66zM347 1419q134 0 218 -87t84 -223t-86 -225t-217 -89t-216 87t-85 225t84 225t218 87zM307 1200v-63h53q39 -1 39 31t-41 32h-51zM303 969h-78v293
h142q119 0 118 -84q0 -59 -49 -72q37 -18 37 -66t6 -71h-84q-6 18 -6 62t-39 44h-47v-106z" />
    <glyph glyph-name="macron" unicode="&#xaf;" 
d="M109 1444h604v-209h-604v209z" />
    <glyph glyph-name="degree" unicode="&#xb0;" horiz-adv-x="696" 
d="M349 1239q-60 0 -93 -39t-33 -104q0 -66 35 -106t93 -40t92 39t34 103t-34 106q-34 41 -94 41zM63 1092q0 126 80 206t209 80t206 -80t77 -206t-82 -204q-82 -79 -208 -79t-204 79t-78 204z" />
    <glyph glyph-name="plusminus" unicode="&#xb1;" horiz-adv-x="1208" 
d="M1098 0h-987v193h987v-193zM510 1231h192v-367h396v-190h-396v-367h-192v367h-401v190h401v367z" />
    <glyph glyph-name="two.sups" unicode="&#xb2;" horiz-adv-x="733" 
d="M53 881v18q0 215 236 371q90 59 125 94t35 78q1 88 -93 88t-110 -127h-195q8 135 88 212t230 77q151 0 225 -72t74 -169t-46 -151t-161 -128q-115 -72 -139 -130h362l-31 -161h-600z" />
    <glyph glyph-name="three.sups" unicode="&#xb3;" horiz-adv-x="743" 
d="M293 1217v165h67q88 0 89 70q0 80 -95 80q-54 0 -76 -25t-30 -65h-191q4 86 77 168q72 82 224 82t228 -62t76 -162q0 -66 -34 -104t-71 -51q47 -13 93 -59t46 -140t-81 -168t-250 -74q-185 0 -252 86q-66 86 -70 175h203q18 -105 126 -105t107 94q0 94 -117 95h-69z" />
    <glyph glyph-name="acute" unicode="&#xb4;" 
d="M467 1511h326l-301 -301h-242z" />
    <glyph glyph-name="uni00B5" unicode="&#xb5;" horiz-adv-x="1148" 
d="M512 -18q-80 0 -127 38q0 -176 12 -428h-274q2 180 2 1469h274v-649q0 -94 32 -148t126 -53q184 0 184 238v612h279v-748q0 -207 4 -313h-270q-10 45 -11 121q-71 -139 -231 -139z" />
    <glyph glyph-name="paragraph" unicode="&#xb6;" horiz-adv-x="1140" 
d="M709 477h65v643h-69q-92 0 -127 -66t-35 -197q0 -132 4 -181q11 -137 70 -175q37 -24 92 -24zM969 -299h-195v569h-168q-254 0 -384 124t-130 386t127 395q127 134 354 134h201q12 113 17 123h182l-4 -236v-1495z" />
    <glyph glyph-name="periodcentered" unicode="&#xb7;" horiz-adv-x="423" 
d="M348 410h-272v323h272v-323z" />
    <glyph glyph-name="cedilla" unicode="&#xb8;" 
d="M649 -276q0 -211 -297 -211q-111 0 -164 22l13 150q61 -14 112 -15q94 0 95 51q0 63 -183 72v68l119 159l193 -20l-72 -88q184 -43 184 -188z" />
    <glyph glyph-name="one.sups" unicode="&#xb9;" horiz-adv-x="524" 
d="M408 881h-218v583q-59 -6 -124 -6v154q106 14 192 80h150v-811z" />
    <glyph glyph-name="ordmasculine" unicode="&#xba;" horiz-adv-x="772" 
d="M518 900q0 198 -129 198t-129 -191q0 -94 34 -149t93 -56q131 0 131 198zM392 1253q161 0 246 -97t85 -261t-92 -255t-246 -91t-245 95t-91 254t91 257t252 98z" />
    <glyph glyph-name="guillemotright" unicode="&#xbb;" horiz-adv-x="1095" 
d="M76 143l284 389l-284 396h225l285 -396l-285 -389h-225zM508 143l283 389l-285 396h225l289 -396l-289 -389h-223z" />
    <glyph glyph-name="onequarter" unicode="&#xbc;" horiz-adv-x="1595" 
d="M1217 356v103q0 115 6 192q-76 -143 -172 -295h166zM1415 12h-198v193h-359v153l295 455h262v-457h111l-15 -151h-96v-193zM426 567h-217v584q-59 -6 -125 -6v153q106 14 192 80h150v-811zM397 0h-184l858 1358h186z" />
    <glyph glyph-name="onehalf" unicode="&#xbd;" horiz-adv-x="1693" 
d="M983 12v19q0 215 236 370q91 59 125 95t34 77q0 88 -94 89q-92 0 -108 -127h-195q8 135 88 211q79 76 229 77t225 -71t75 -170t-47 -151q-47 -54 -161 -127t-139 -130h363l-31 -162h-600zM434 567h-217v584q-59 -6 -125 -6v153q106 14 193 80h149v-811zM430 0h-184
l858 1358h186z" />
    <glyph glyph-name="threequarters" unicode="&#xbe;" horiz-adv-x="1773" 
d="M315 903v166h68q88 0 88 70q0 80 -94 80q-55 0 -77 -25t-30 -66h-190q4 86 77 168t224 82t227 -61t76 -162q0 -65 -34 -103t-70 -53q47 -12 93 -58t46 -140t-81 -168t-251 -74q-90 0 -157 25q-68 24 -100 66q-60 77 -64 169h202q18 -104 126 -104t108 94t-117 94h-70z
M1389 342v102q0 117 6 193q-76 -143 -172 -295h166zM1587 -2h-198v192h-359v154l295 455h262v-457h111l-15 -152h-96v-192zM584 0h-185l858 1358h187z" />
    <glyph glyph-name="questiondown" unicode="&#xbf;" horiz-adv-x="923" 
d="M328 1061h286v-334h-286v334zM33 12q0 96 38 177q39 81 121 164t109 133t27 112v20h286v-28q0 -100 -41 -176t-153 -190t-113 -212q0 -72 39 -114t113 -43q156 0 170 206h258q-5 -184 -111 -305q-106 -120 -327 -118t-319 110q-97 108 -97 264z" />
    <glyph glyph-name="Agrave" unicode="&#xc0;" horiz-adv-x="1275" 
d="M197 1810h354l219 -284h-264zM446 569h353q-152 500 -181 617h-2q-41 -191 -170 -617zM856 334h-465l-98 -334h-281q8 28 213 700t215 703h371l451 -1403h-299z" />
    <glyph glyph-name="Aacute" unicode="&#xc1;" horiz-adv-x="1275" 
d="M731 1810h344l-330 -284h-253zM446 569h353q-152 500 -181 617h-2q-41 -191 -170 -617zM856 334h-465l-98 -334h-281q8 28 213 700t215 703h371l451 -1403h-299z" />
    <glyph glyph-name="Acircumflex" unicode="&#xc2;" horiz-adv-x="1275" 
d="M471 1810h315l220 -284h-267l-112 145l-111 -145h-268zM446 569h353q-152 500 -181 617h-2q-41 -191 -170 -617zM856 334h-465l-98 -334h-281q8 28 213 700t215 703h371l451 -1403h-299z" />
    <glyph glyph-name="Atilde" unicode="&#xc3;" horiz-adv-x="1275" 
d="M455 1536h-185v72q0 209 193 209q67 0 175 -42t132 -42q53 0 53 69v19h183v-47q0 -244 -201 -244q-70 0 -171 42t-126 42q-53 0 -53 -49v-29zM446 569h353q-152 500 -181 617h-2q-41 -191 -170 -617zM856 334h-465l-98 -334h-281q8 28 213 700t215 703h371l451 -1403
h-299z" />
    <glyph glyph-name="Adieresis" unicode="&#xc4;" horiz-adv-x="1275" 
d="M958 1546h-227v260h227v-260zM543 1546h-228v260h228v-260zM446 569h353q-152 500 -181 617h-2q-41 -191 -170 -617zM856 334h-465l-98 -334h-281q8 28 213 700t215 703h371l451 -1403h-299z" />
    <glyph glyph-name="Aring" unicode="&#xc5;" horiz-adv-x="1275" 
d="M634 1597q48 0 74 26t26 64q0 37 -26 63t-74 26t-72 -26t-24 -62t24 -64q24 -27 72 -27zM881 1688q-1 -92 -67 -150t-179 -59q-113 0 -179 58q-66 59 -65 149q0 90 66 148q67 58 181 58t178 -56t65 -148zM446 569h353q-152 500 -181 617h-2q-41 -191 -170 -617zM856 334
h-465l-98 -334h-281q8 28 213 700t215 703h371l451 -1403h-299z" />
    <glyph glyph-name="AE" unicode="&#xc6;" horiz-adv-x="1855" 
d="M846 651v533h-2q-111 -199 -275 -533h277zM1761 1403v-244h-637v-309h613v-242h-613v-366h676l-35 -242h-919v406h-400l-213 -406h-301l752 1403h1077z" />
    <glyph glyph-name="Ccedilla" unicode="&#xc7;" horiz-adv-x="1323" 
d="M631 -487q-111 0 -164 22l12 150q61 -14 113 -15q94 0 94 51q0 63 -182 72v68l92 125q-264 30 -386 224t-122 500t159 508q159 204 453 203q380 0 501 -295q32 -78 38 -163h-281q-27 109 -81 169q-55 60 -175 60t-194 -72q-72 -72 -100 -177t-27 -241q0 -496 313 -495
q127 0 186 66q58 67 85 169h282q-29 -174 -137 -299t-305 -155l-62 -76q184 -43 185 -188q0 -211 -297 -211z" />
    <glyph glyph-name="Egrave" unicode="&#xc8;" horiz-adv-x="1159" 
d="M201 1810h354l219 -284h-264zM1040 850v-238h-610v-376h674l-35 -236h-917v1403h915v-236h-637v-317h610z" />
    <glyph glyph-name="Eacute" unicode="&#xc9;" horiz-adv-x="1159" 
d="M694 1810h344l-329 -284h-254zM1040 850v-238h-610v-376h674l-35 -236h-917v1403h915v-236h-637v-317h610z" />
    <glyph glyph-name="Ecircumflex" unicode="&#xca;" horiz-adv-x="1159" 
d="M446 1812h316l219 -284h-266l-113 145l-110 -145h-269zM1040 850v-238h-610v-376h674l-35 -236h-917v1403h915v-236h-637v-317h610z" />
    <glyph glyph-name="Edieresis" unicode="&#xcb;" horiz-adv-x="1159" 
d="M928 1548h-228v260h228v-260zM512 1548h-227v260h227v-260zM1040 850v-238h-610v-376h674l-35 -236h-917v1403h915v-236h-637v-317h610z" />
    <glyph glyph-name="Igrave" unicode="&#xcc;" horiz-adv-x="591" 
d="M-145 1810h354l219 -284h-264zM152 1403h286v-1403h-286v1403z" />
    <glyph glyph-name="Iacute" unicode="&#xcd;" horiz-adv-x="591" 
d="M403 1810h345l-330 -284h-254zM152 1403h286v-1403h-286v1403z" />
    <glyph glyph-name="Icircumflex" unicode="&#xce;" horiz-adv-x="591" 
d="M139 1794h316l219 -285h-266l-113 146l-111 -146h-268zM152 1403h286v-1403h-286v1403z" />
    <glyph glyph-name="Idieresis" unicode="&#xcf;" horiz-adv-x="591" 
d="M616 1548h-227v260h227v-260zM201 1548h-228v260h228v-260zM152 1403h286v-1403h-286v1403z" />
    <glyph glyph-name="Eth" unicode="&#xd0;" horiz-adv-x="1409" 
d="M461 1174v-345h301v-198h-301v-406h184q184 0 282 131q97 132 97 354t-94 343t-283 121h-186zM31 829h141v574h487q315 0 489 -179t173 -508q0 -328 -177 -522t-495 -194h-477v631h-141v198z" />
    <glyph glyph-name="Ntilde" unicode="&#xd1;" horiz-adv-x="1423" 
d="M528 1538h-184v72q0 209 193 209q67 0 175 -42t132 -42q53 0 53 69v19h182v-47q0 -244 -200 -244q-70 0 -171 42t-126 42q-53 0 -54 -49v-29zM412 0h-260v1403h364q485 -991 506 -1061h4q-16 193 -16 627v434h262v-1403h-350q-479 1004 -519 1106h-2q10 -178 11 -672
v-434z" />
    <glyph glyph-name="Ograve" unicode="&#xd2;" horiz-adv-x="1431" 
d="M301 1810h354l219 -284h-264zM718 1194q-171 0 -253 -134t-82 -352t87 -360t247 -141q334 0 334 502q0 213 -81 349t-252 136zM746 1421q184 0 327 -101q270 -191 270 -611q-1 -322 -161 -526t-475 -203q-158 0 -279 57q-223 105 -303 391q-37 130 -37 274t38 267
t112 226t200 165q124 62 308 61z" />
    <glyph glyph-name="Oacute" unicode="&#xd3;" horiz-adv-x="1431" 
d="M776 1810h344l-329 -284h-254zM718 1194q-171 0 -253 -134t-82 -352t87 -360t247 -141q334 0 334 502q0 213 -81 349t-252 136zM746 1421q184 0 327 -101q270 -191 270 -611q-1 -322 -161 -526t-475 -203q-158 0 -279 57q-223 105 -303 391q-37 130 -37 274t38 267
t112 226t200 165q124 62 308 61z" />
    <glyph glyph-name="Ocircumflex" unicode="&#xd4;" horiz-adv-x="1431" 
d="M545 1812h315l219 -284h-266l-113 145l-110 -145h-268zM718 1194q-171 0 -253 -134t-82 -352t87 -360t247 -141q334 0 334 502q0 213 -81 349t-252 136zM746 1421q184 0 327 -101q270 -191 270 -611q-1 -322 -161 -526t-475 -203q-158 0 -279 57q-223 105 -303 391
q-37 130 -37 274t38 267t112 226t200 165q124 62 308 61z" />
    <glyph glyph-name="Otilde" unicode="&#xd5;" horiz-adv-x="1431" 
d="M518 1538h-184v72q0 209 192 209q68 0 176 -42t132 -42q53 0 53 69v19h182v-47q0 -244 -201 -244q-70 0 -171 42t-126 42q-53 0 -53 -49v-29zM718 1194q-171 0 -253 -134t-82 -352t87 -360t247 -141q334 0 334 502q0 213 -81 349t-252 136zM746 1421q184 0 327 -101
q270 -191 270 -611q-1 -322 -161 -526t-475 -203q-158 0 -279 57q-223 105 -303 391q-37 130 -37 274t38 267t112 226t200 165q124 62 308 61z" />
    <glyph glyph-name="Odieresis" unicode="&#xd6;" horiz-adv-x="1431" 
d="M1022 1548h-227v260h227v-260zM606 1548h-227v260h227v-260zM718 1194q-171 0 -253 -134t-82 -352t87 -360t247 -141q334 0 334 502q0 213 -81 349t-252 136zM746 1421q184 0 327 -101q270 -191 270 -611q-1 -322 -161 -526t-475 -203q-158 0 -279 57q-223 105 -303 391
q-37 130 -37 274t38 267t112 226t200 165q124 62 308 61z" />
    <glyph glyph-name="multiply" unicode="&#xd7;" horiz-adv-x="1212" 
d="M1098 160l-142 -150l-348 365l-350 -365l-141 150l350 360l-350 365l137 143l352 -362l350 362l142 -143l-350 -365z" />
    <glyph glyph-name="Oslash" unicode="&#xd8;" horiz-adv-x="1431" 
d="M717 199q346 0 346 510q0 190 -64 317l-505 -727q90 -100 223 -100zM371 711q0 -156 43 -273l493 705q-80 61 -194 61q-168 0 -255 -135t-87 -358zM735 1421q172 0 309 -82l48 68h172l-109 -156q188 -195 188 -529q-1 -334 -161 -539q-160 -204 -475 -203
q-215 0 -361 106l-59 -86h-181l134 190q-152 193 -152 521q0 275 150 484q74 103 200 165t297 61z" />
    <glyph glyph-name="Ugrave" unicode="&#xd9;" horiz-adv-x="1355" 
d="M260 1810h354l220 -284h-265zM133 1403h287v-893q0 -139 55 -221t203 -82t203 80q53 80 53 223v893h289v-899q0 -524 -549 -524q-293 0 -417 138t-124 384v901z" />
    <glyph glyph-name="Uacute" unicode="&#xda;" horiz-adv-x="1355" 
d="M770 1810h344l-330 -284h-254zM133 1403h287v-893q0 -139 55 -221t203 -82t203 80q53 80 53 223v893h289v-899q0 -524 -549 -524q-293 0 -417 138t-124 384v901z" />
    <glyph glyph-name="Ucircumflex" unicode="&#xdb;" horiz-adv-x="1355" 
d="M522 1812h316l219 -284h-266l-113 145l-111 -145h-268zM133 1403h287v-893q0 -139 55 -221t203 -82t203 80q53 80 53 223v893h289v-899q0 -524 -549 -524q-293 0 -417 138t-124 384v901z" />
    <glyph glyph-name="Udieresis" unicode="&#xdc;" horiz-adv-x="1355" 
d="M999 1548h-227v260h227v-260zM584 1548h-228v260h228v-260zM133 1403h287v-893q0 -139 55 -221t203 -82t203 80q53 80 53 223v893h289v-899q0 -524 -549 -524q-293 0 -417 138t-124 384v901z" />
    <glyph glyph-name="Yacute" unicode="&#xdd;" horiz-adv-x="1159" 
d="M674 1808h344l-330 -284h-254zM721 537v-537h-285v528q0 29 -12 45l-444 830h321q29 -61 143 -298t148 -312l291 610h297l-447 -823q-12 -18 -12 -43z" />
    <glyph glyph-name="Thorn" unicode="&#xde;" horiz-adv-x="1208" 
d="M440 911v-403h203q231 0 231 209q0 94 -58 144t-165 50h-211zM152 0v1403h288v-264h246q219 0 346 -111q127 -112 127 -314t-133 -318t-367 -115h-219v-281h-288z" />
    <glyph glyph-name="germandbls" unicode="&#xdf;" horiz-adv-x="1259" 
d="M652 1503q124 0 226 -37t152 -100q98 -121 96 -279v-57l-297 -194v-2l146 -107q121 -86 173 -172t52 -199q0 -160 -100 -265t-294 -105t-308 73v254q133 -106 280 -106q72 0 108 34t36 90t-30 98t-110 93l-147 96q-109 74 -110 167t106 169l215 156q2 76 -49 125t-164 49
q-223 0 -223 -248v-1036h-279v1053q0 339 310 425q87 24 211 25z" />
    <glyph glyph-name="agrave" unicode="&#xe0;" horiz-adv-x="1099" 
d="M162 1518h327l216 -301h-238zM705 453v22h-130q-225 0 -225 -147q0 -60 37 -98t113 -37q117 -1 161 67t44 193zM969 731v-457q0 -168 14 -274h-244q-10 41 -16 129q-74 -147 -297 -147q-182 0 -268 94t-86 240t119 241q120 96 380 96h125v78q0 74 -32 114q-33 40 -118 40
t-121 -37t-44 -105h-268q8 145 109 241t327 97q420 0 420 -350z" />
    <glyph glyph-name="aacute" unicode="&#xe1;" horiz-adv-x="1099" 
d="M623 1516h325l-301 -302h-241zM705 453v22h-130q-225 0 -225 -147q0 -60 37 -98t113 -37q117 -1 161 67t44 193zM969 731v-457q0 -168 14 -274h-244q-10 41 -16 129q-74 -147 -297 -147q-182 0 -268 94t-86 240t119 241q120 96 380 96h125v78q0 74 -32 114
q-33 40 -118 40t-121 -37t-44 -105h-268q8 145 109 241t327 97q420 0 420 -350z" />
    <glyph glyph-name="acircumflex" unicode="&#xe2;" horiz-adv-x="1099" 
d="M401 1489h304l204 -303h-260l-100 149l-94 -149h-260zM705 453v22h-130q-225 0 -225 -147q0 -60 37 -98t113 -37q117 -1 161 67t44 193zM969 731v-457q0 -168 14 -274h-244q-10 41 -16 129q-74 -147 -297 -147q-182 0 -268 94t-86 240t119 241q120 96 380 96h125v78
q0 74 -32 114q-33 40 -118 40t-121 -37t-44 -105h-268q8 145 109 241t327 97q420 0 420 -350z" />
    <glyph glyph-name="atilde" unicode="&#xe3;" horiz-adv-x="1099" 
d="M393 1204h-188v64q0 221 188 221q74 0 164 -42t113 -42q45 0 45 70v16h184v-45q0 -246 -203 -246q-70 0 -156 41t-110 41q-37 0 -37 -47v-31zM705 453v22h-130q-225 0 -225 -147q0 -60 37 -98t113 -37q117 -1 161 67t44 193zM969 731v-457q0 -168 14 -274h-244
q-10 41 -16 129q-74 -147 -297 -147q-182 0 -268 94t-86 240t119 241q120 96 380 96h125v78q0 74 -32 114q-33 40 -118 40t-121 -37t-44 -105h-268q8 145 109 241t327 97q420 0 420 -350z" />
    <glyph glyph-name="adieresis" unicode="&#xe4;" horiz-adv-x="1099" 
d="M850 1223h-221v256h221v-256zM471 1223h-219v256h219v-256zM705 453v22h-130q-225 0 -225 -147q0 -60 37 -98t113 -37q117 -1 161 67t44 193zM969 731v-457q0 -168 14 -274h-244q-10 41 -16 129q-74 -147 -297 -147q-182 0 -268 94t-86 240t119 241q120 96 380 96h125v78
q0 74 -32 114q-33 40 -118 40t-121 -37t-44 -105h-268q8 145 109 241t327 97q420 0 420 -350z" />
    <glyph glyph-name="aring" unicode="&#xe5;" horiz-adv-x="1099" 
d="M550 1278q48 0 74 26t26 64t-26 63t-74 25t-72 -26t-24 -62q0 -38 24 -64t72 -26zM797 1368q-1 -92 -67 -150t-179 -59q-113 1 -179 59t-65 148q0 90 66 148q67 58 181 58t178 -55q64 -57 65 -149zM705 453v22h-130q-225 0 -225 -147q0 -60 37 -98t113 -37q117 -1 161 67
t44 193zM969 731v-457q0 -168 14 -274h-244q-10 41 -16 129q-74 -147 -297 -147q-182 0 -268 94t-86 240t119 241q120 96 380 96h125v78q0 74 -32 114q-33 40 -118 40t-121 -37t-44 -105h-268q8 145 109 241t327 97q420 0 420 -350z" />
    <glyph glyph-name="ae" unicode="&#xe6;" horiz-adv-x="1699" 
d="M1167 872q-178 0 -196 -213h391q2 85 -47 149t-148 64zM700 459v18h-129q-117 0 -169 -43t-52 -102q0 -60 42 -98t108 -38q126 1 168 98q32 78 32 165zM1163 -18q-262 0 -354 157q-76 -88 -160 -123t-209 -34q-178 0 -273 95t-95 243t115 242q116 95 364 95h151v64
q0 164 -157 164q-84 0 -119 -37t-39 -107h-274q10 150 112 245q103 95 327 95t316 -110q121 111 332 111t322 -141q111 -140 110 -355v-107h-665q0 -117 45 -199t155 -81q142 0 181 127h272q-32 -154 -144 -249t-313 -95z" />
    <glyph glyph-name="ccedilla" unicode="&#xe7;" horiz-adv-x="1062" 
d="M496 -487q-111 0 -164 22l12 150q61 -14 113 -15q94 0 94 51q0 63 -182 72v68l94 125q-393 47 -393 542q0 254 132 404t361 149q123 0 214 -40q91 -41 138 -105q91 -125 95 -252h-279q-20 184 -174 184q-205 0 -205 -338t201 -337q82 0 122 46t58 132h277
q-47 -317 -334 -377l-68 -82q184 -43 185 -188q0 -211 -297 -211z" />
    <glyph glyph-name="egrave" unicode="&#xe8;" horiz-adv-x="1091" 
d="M170 1511h328l215 -301h-238zM557 872q-105 0 -151 -66t-52 -157h400q-8 223 -197 223zM350 467q0 -113 49 -191t158 -77q137 0 182 127h273q-100 -344 -463 -344q-242 0 -361 148q-118 148 -118 381t109 391q57 81 155 130t227 49q257 0 360 -156t103 -372q0 -53 -4 -86
h-670z" />
    <glyph glyph-name="eacute" unicode="&#xe9;" horiz-adv-x="1091" 
d="M618 1511h326l-301 -301h-242zM557 872q-105 0 -151 -66t-52 -157h400q-8 223 -197 223zM350 467q0 -113 49 -191t158 -77q137 0 182 127h273q-100 -344 -463 -344q-242 0 -361 148q-118 148 -118 381t109 391q57 81 155 130t227 49q257 0 360 -156t103 -372
q0 -53 -4 -86h-670z" />
    <glyph glyph-name="ecircumflex" unicode="&#xea;" horiz-adv-x="1091" 
d="M416 1489h303l205 -303h-260l-101 149l-94 -149h-260zM557 872q-105 0 -151 -66t-52 -157h400q-8 223 -197 223zM350 467q0 -113 49 -191t158 -77q137 0 182 127h273q-100 -344 -463 -344q-242 0 -361 148q-118 148 -118 381t109 391q57 81 155 130t227 49
q257 0 360 -156t103 -372q0 -53 -4 -86h-670z" />
    <glyph glyph-name="edieresis" unicode="&#xeb;" horiz-adv-x="1091" 
d="M864 1223h-221v256h221v-256zM485 1223h-219v256h219v-256zM557 872q-105 0 -151 -66t-52 -157h400q-8 223 -197 223zM350 467q0 -113 49 -191t158 -77q137 0 182 127h273q-100 -344 -463 -344q-242 0 -361 148q-118 148 -118 381t109 391q57 81 155 130t227 49
q257 0 360 -156t103 -372q0 -53 -4 -86h-670z" />
    <glyph glyph-name="igrave" unicode="&#xec;" horiz-adv-x="540" 
d="M-133 1511h328l215 -301h-238zM131 0v1061h279v-1061h-279z" />
    <glyph glyph-name="iacute" unicode="&#xed;" horiz-adv-x="540" 
d="M367 1511h325l-301 -301h-241zM131 0v1061h279v-1061h-279z" />
    <glyph glyph-name="icircumflex" unicode="&#xee;" horiz-adv-x="540" 
d="M121 1489h303l205 -303h-260l-101 149l-94 -149h-260zM131 0v1061h279v-1061h-279z" />
    <glyph glyph-name="idieresis" unicode="&#xef;" horiz-adv-x="540" 
d="M569 1223h-221v256h221v-256zM190 1223h-219v256h219v-256zM131 0v1061h279v-1061h-279z" />
    <glyph glyph-name="eth" unicode="&#xf0;" horiz-adv-x="1118" 
d="M564 205q208 0 208 313q0 153 -44 224t-152 71t-166 -76q-60 -76 -60 -213t54 -228t160 -91zM555 1024q96 0 143 -20q-37 102 -137 174l-246 -154l-71 123l164 102q-92 29 -209 35v225q258 -6 450 -108l207 129l72 -125l-152 -94q274 -240 275 -699q0 -629 -502 -628
q-238 0 -360 143q-121 143 -121 375t131 378q131 144 356 144z" />
    <glyph glyph-name="ntilde" unicode="&#xf1;" horiz-adv-x="1169" 
d="M426 1204h-188v64q0 221 188 221q74 0 164 -42t112 -42q45 0 46 70v16h184v-45q0 -246 -203 -246q-70 0 -157 41t-109 41q-37 0 -37 -47v-31zM131 0v729q0 238 -4 332h270q10 -51 11 -137q36 68 112 112t182 45q166 0 251 -101t85 -286v-694h-278v641q0 99 -35 155
t-129 56t-140 -61t-46 -199v-592h-279z" />
    <glyph glyph-name="ograve" unicode="&#xf2;" horiz-adv-x="1142" 
d="M176 1501h328l215 -301h-238zM569 862q-104 0 -161 -85t-58 -230q0 -348 228 -348q104 0 160 88t57 256q-1 319 -226 319zM576 1081q248 -1 374 -153t125 -392q0 -240 -126 -399q-126 -157 -383 -157t-378 160q-120 160 -120 390t130 390t378 161z" />
    <glyph glyph-name="oacute" unicode="&#xf3;" horiz-adv-x="1142" 
d="M629 1511h325l-301 -301h-241zM569 862q-104 0 -161 -85t-58 -230q0 -348 228 -348q104 0 160 88t57 256q-1 319 -226 319zM576 1081q248 -1 374 -153t125 -392q0 -240 -126 -399q-126 -157 -383 -157t-378 160q-120 160 -120 390t130 390t378 161z" />
    <glyph glyph-name="ocircumflex" unicode="&#xf4;" horiz-adv-x="1142" 
d="M422 1489h303l205 -303h-260l-101 149l-94 -149h-260zM569 862q-104 0 -161 -85t-58 -230q0 -348 228 -348q104 0 160 88t57 256q-1 319 -226 319zM576 1081q248 -1 374 -153t125 -392q0 -240 -126 -399q-126 -157 -383 -157t-378 160q-120 160 -120 390t130 390t378 161
z" />
    <glyph glyph-name="otilde" unicode="&#xf5;" horiz-adv-x="1142" 
d="M414 1204h-189v64q0 221 189 221q74 0 164 -42t112 -42q45 0 45 70v16h185v-45q0 -246 -203 -246q-70 0 -157 41t-109 41q-37 0 -37 -47v-31zM569 862q-104 0 -161 -85t-58 -230q0 -348 228 -348q104 0 160 88t57 256q-1 319 -226 319zM576 1081q248 -1 374 -153
t125 -392q0 -240 -126 -399q-126 -157 -383 -157t-378 160q-120 160 -120 390t130 390t378 161z" />
    <glyph glyph-name="odieresis" unicode="&#xf6;" horiz-adv-x="1142" 
d="M870 1223h-221v256h221v-256zM492 1223h-220v256h220v-256zM569 862q-104 0 -161 -85t-58 -230q0 -348 228 -348q104 0 160 88t57 256q-1 319 -226 319zM576 1081q248 -1 374 -153t125 -392q0 -240 -126 -399q-126 -157 -383 -157t-378 160q-120 160 -120 390t130 390
t378 161z" />
    <glyph glyph-name="divide" unicode="&#xf7;" horiz-adv-x="1206" 
d="M711 776h-213v250h213v-250zM1098 412h-989v209h989v-209zM711 8h-213v248h213v-248z" />
    <glyph glyph-name="oslash" unicode="&#xf8;" horiz-adv-x="1142" 
d="M592 190q96 0 156 88q61 88 61 236q0 146 -31 223l-344 -495q62 -52 158 -52zM336 564q0 -138 35 -224l338 491q-53 41 -151 40t-160 -85t-62 -222zM589 1081q138 0 249 -61l32 47h138l-80 -115q147 -145 147 -401t-126 -414t-382 -157q-156 0 -270 65l-39 -57h-131
l86 123q-145 147 -145 428q0 213 118 371q59 79 162 125t241 46z" />
    <glyph glyph-name="ugrave" unicode="&#xf9;" horiz-adv-x="1150" 
d="M170 1507h328l215 -301h-238zM1020 1061v-748q0 -203 4 -313h-270q-6 35 -11 127q-86 -145 -292 -145q-158 0 -243 96t-85 274v709h276v-662q0 -188 156 -188q186 0 186 258v592h279z" />
    <glyph glyph-name="uacute" unicode="&#xfa;" horiz-adv-x="1150" 
d="M631 1511h325l-301 -301h-241zM1020 1061v-748q0 -203 4 -313h-270q-6 35 -11 127q-86 -145 -292 -145q-158 0 -243 96t-85 274v709h276v-662q0 -188 156 -188q186 0 186 258v592h279z" />
    <glyph glyph-name="ucircumflex" unicode="&#xfb;" horiz-adv-x="1150" 
d="M424 1489h303l205 -303h-260l-101 149l-94 -149h-260zM1020 1061v-748q0 -203 4 -313h-270q-6 35 -11 127q-86 -145 -292 -145q-158 0 -243 96t-85 274v709h276v-662q0 -188 156 -188q186 0 186 258v592h279z" />
    <glyph glyph-name="udieresis" unicode="&#xfc;" horiz-adv-x="1150" 
d="M872 1223h-221v256h221v-256zM494 1223h-220v256h220v-256zM1020 1061v-748q0 -203 4 -313h-270q-6 35 -11 127q-86 -145 -292 -145q-158 0 -243 96t-85 274v709h276v-662q0 -188 156 -188q186 0 186 258v592h279z" />
    <glyph glyph-name="yacute" unicode="&#xfd;" horiz-adv-x="1026" 
d="M565 1511h326l-301 -301h-242zM248 -424q-58 0 -123 8v228q43 -6 96 -7q119 0 162 146l-371 1110h295q199 -719 213 -819h2q49 225 213 819h279l-361 -1106q-83 -250 -181 -314q-98 -65 -224 -65z" />
    <glyph glyph-name="thorn" unicode="&#xfe;" horiz-adv-x="1179" 
d="M604 205q227 -1 227 323t-215 324q-119 0 -170 -82t-51 -241t44 -241t165 -83zM408 -408h-277v1897h277v-567q80 160 303 159q181 0 291 -137t110 -401q0 -265 -126 -413t-317 -148t-261 112v-502z" />
    <glyph glyph-name="ydieresis" unicode="&#xff;" horiz-adv-x="1026" 
d="M807 1223h-221v256h221v-256zM428 1223h-219v256h219v-256zM248 -424q-58 0 -123 8v228q43 -6 96 -7q119 0 162 146l-371 1110h295q199 -719 213 -819h2q49 225 213 819h279l-361 -1106q-83 -250 -181 -314q-98 -65 -224 -65z" />
    <glyph glyph-name="Amacron" unicode="&#x100;" horiz-adv-x="1275" 
d="M328 1753h618v-205h-618v205zM446 569h353q-152 500 -181 617h-2q-41 -191 -170 -617zM856 334h-465l-98 -334h-281q8 28 213 700t215 703h371l451 -1403h-299z" />
    <glyph glyph-name="amacron" unicode="&#x101;" horiz-adv-x="1099" 
d="M250 1444h604v-209h-604v209zM705 453v22h-130q-225 0 -225 -147q0 -60 37 -98t113 -37q117 -1 161 67t44 193zM969 731v-457q0 -168 14 -274h-244q-10 41 -16 129q-74 -147 -297 -147q-182 0 -268 94t-86 240t119 241q120 96 380 96h125v78q0 74 -32 114q-33 40 -118 40
t-121 -37t-44 -105h-268q8 145 109 241t327 97q420 0 420 -350z" />
    <glyph glyph-name="Abreve" unicode="&#x102;" horiz-adv-x="1275" 
d="M620 1509q-164 0 -246 86q-83 86 -93 211h202q10 -49 48 -81t96 -31q123 0 145 112h201q-17 -125 -103 -211t-250 -86zM446 569h353q-152 500 -181 617h-2q-41 -191 -170 -617zM856 334h-465l-98 -334h-281q8 28 213 700t215 703h371l451 -1403h-299z" />
    <glyph glyph-name="abreve" unicode="&#x103;" horiz-adv-x="1099" 
d="M546 1182q-152 0 -231 87q-80 87 -86 214h201q25 -104 123 -105q59 0 84 26t39 79h198q-16 -131 -96 -216t-232 -85zM705 453v22h-130q-225 0 -225 -147q0 -60 37 -98t113 -37q117 -1 161 67t44 193zM969 731v-457q0 -168 14 -274h-244q-10 41 -16 129
q-74 -147 -297 -147q-182 0 -268 94t-86 240t119 241q120 96 380 96h125v78q0 74 -32 114q-33 40 -118 40t-121 -37t-44 -105h-268q8 145 109 241t327 97q420 0 420 -350z" />
    <glyph glyph-name="Aogonek" unicode="&#x104;" horiz-adv-x="1275" 
d="M446 569h353q-152 500 -181 617h-2q-41 -191 -170 -617zM1108 -186q0 -43 28 -69t76 -26t95 13l16 -174q-70 -37 -193 -37q-124 0 -198 61t-74 181t127 237h-22l-107 334h-465l-98 -334h-281q8 28 213 700t215 703h371l451 -1403h-23q-131 -86 -131 -186z" />
    <glyph glyph-name="aogonek" unicode="&#x105;" horiz-adv-x="1099" 
d="M705 453v22h-130q-225 0 -225 -147q0 -60 37 -98t113 -37q117 -1 161 67t44 193zM969 731v-457q0 -168 14 -274q-131 -86 -131 -186q0 -43 28 -69t76 -26t95 13l16 -174q-70 -37 -193 -37q-124 0 -198 61t-74 168q0 135 135 258q-10 51 -14 121q-74 -147 -297 -147
q-182 0 -268 94t-86 240t119 241q120 96 380 96h125v78q0 74 -32 114q-33 40 -118 40t-121 -37t-44 -105h-268q8 145 109 241t327 97q420 0 420 -350z" />
    <glyph glyph-name="Cacute" unicode="&#x106;" horiz-adv-x="1323" 
d="M764 1810h344l-330 -284h-254zM690 -20q-459 0 -569 440q-33 127 -33 282q0 312 159 516t453 203q380 0 501 -295q32 -78 38 -163h-281q-27 109 -81 169q-55 60 -175 60t-194 -72q-72 -72 -100 -177t-27 -241q0 -496 313 -495q127 0 186 66q58 67 85 169h282
q-33 -198 -170 -330t-387 -132z" />
    <glyph glyph-name="cacute" unicode="&#x107;" horiz-adv-x="1062" 
d="M621 1509h325l-301 -301h-242zM557 868q-205 0 -205 -338t201 -337q82 0 122 46t58 132h277q-25 -174 -139 -282q-114 -107 -339 -107t-344 141q-118 141 -118 400t132 409t361 149q123 0 214 -40q91 -41 138 -105q91 -125 95 -252h-279q-20 184 -174 184z" />
    <glyph glyph-name="Ccircumflex" unicode="&#x108;" horiz-adv-x="1323" 
d="M524 1812h316l219 -284h-266l-113 145l-111 -145h-268zM690 -20q-459 0 -569 440q-33 127 -33 282q0 312 159 516t453 203q380 0 501 -295q32 -78 38 -163h-281q-27 109 -81 169q-55 60 -175 60t-194 -72q-72 -72 -100 -177t-27 -241q0 -496 313 -495q127 0 186 66
q58 67 85 169h282q-33 -198 -170 -330t-387 -132z" />
    <glyph glyph-name="ccircumflex" unicode="&#x109;" horiz-adv-x="1062" 
d="M403 1489h304l204 -303h-260l-100 149l-94 -149h-260zM557 868q-205 0 -205 -338t201 -337q82 0 122 46t58 132h277q-25 -174 -139 -282q-114 -107 -339 -107t-344 141q-118 141 -118 400t132 409t361 149q123 0 214 -40q91 -41 138 -105q91 -125 95 -252h-279
q-20 184 -174 184z" />
    <glyph glyph-name="Cdotaccent" unicode="&#x10a;" horiz-adv-x="1323" 
d="M836 1546h-285v260h285v-260zM690 -20q-459 0 -569 440q-33 127 -33 282q0 312 159 516t453 203q380 0 501 -295q32 -78 38 -163h-281q-27 109 -81 169q-55 60 -175 60t-194 -72q-72 -72 -100 -177t-27 -241q0 -496 313 -495q127 0 186 66q58 67 85 169h282
q-33 -198 -170 -330t-387 -132z" />
    <glyph glyph-name="cdotaccent" unicode="&#x10b;" horiz-adv-x="1062" 
d="M690 1225h-276v256h276v-256zM557 868q-205 0 -205 -338t201 -337q82 0 122 46t58 132h277q-25 -174 -139 -282q-114 -107 -339 -107t-344 141q-118 141 -118 400t132 409t361 149q123 0 214 -40q91 -41 138 -105q91 -125 95 -252h-279q-20 184 -174 184z" />
    <glyph glyph-name="Ccaron" unicode="&#x10c;" horiz-adv-x="1323" 
d="M858 1518h-315l-219 282h266l112 -145l111 145h268zM690 -20q-459 0 -569 440q-33 127 -33 282q0 312 159 516t453 203q380 0 501 -295q32 -78 38 -163h-281q-27 109 -81 169q-55 60 -175 60t-194 -72q-72 -72 -100 -177t-27 -241q0 -496 313 -495q127 0 186 66
q58 67 85 169h282q-33 -198 -170 -330t-387 -132z" />
    <glyph glyph-name="ccaron" unicode="&#x10d;" horiz-adv-x="1062" 
d="M705 1186h-304l-204 303h260l100 -150l94 150h260zM557 868q-205 0 -205 -338t201 -337q82 0 122 46t58 132h277q-25 -174 -139 -282q-114 -107 -339 -107t-344 141q-118 141 -118 400t132 409t361 149q123 0 214 -40q91 -41 138 -105q91 -125 95 -252h-279
q-20 184 -174 184z" />
    <glyph glyph-name="Dcaron" unicode="&#x10e;" horiz-adv-x="1388" 
d="M780 1516h-315l-219 282h266l113 -145l110 145h269zM440 1174v-949h185q184 0 281 131q98 132 98 354t-94 343t-283 121h-187zM152 0v1403h487q315 0 488 -179t173 -508q0 -328 -177 -522t-494 -194h-477z" />
    <glyph glyph-name="dcaron" unicode="&#x10f;" horiz-adv-x="1349" 
d="M1391 948h-222l-20 541h262zM346 538q0 -333 227 -333q119 0 163 80t44 253q0 172 -44 244t-156 72t-174 -80q-60 -80 -60 -236zM768 1489h279v-1194q0 -172 4 -295h-271q-10 72 -10 125q-78 -145 -287 -145t-314 148t-105 396t122 403q123 155 327 155t255 -99v506z" />
    <glyph glyph-name="Dcroat" unicode="&#x110;" horiz-adv-x="1409" 
d="M461 1174v-345h301v-198h-301v-406h184q184 0 282 131q97 132 97 354t-94 343t-283 121h-186zM31 829h141v574h487q315 0 489 -179t173 -508q0 -328 -177 -522t-495 -194h-477v631h-141v198z" />
    <glyph glyph-name="dcroat" unicode="&#x111;" horiz-adv-x="1185" 
d="M346 525q0 -320 228 -320q114 0 159 87q45 88 45 240t-44 227t-152 75t-172 -75t-64 -234zM764 1489h278v-141h123v-170h-123v-883q0 -172 5 -295h-271q-10 72 -10 117q-86 -137 -288 -137t-308 147t-107 393q0 246 120 393t321 147t260 -102v220h-449v170h449v141z" />
    <glyph glyph-name="Emacron" unicode="&#x112;" horiz-adv-x="1159" 
d="M303 1753h619v-205h-619v205zM1040 850v-238h-610v-376h674l-35 -236h-917v1403h915v-236h-637v-317h610z" />
    <glyph glyph-name="emacron" unicode="&#x113;" horiz-adv-x="1091" 
d="M264 1444h604v-209h-604v209zM557 872q-105 0 -151 -66t-52 -157h400q-8 223 -197 223zM350 467q0 -113 49 -191t158 -77q137 0 182 127h273q-100 -344 -463 -344q-242 0 -361 148q-118 148 -118 381t109 391q57 81 155 130t227 49q257 0 360 -156t103 -372q0 -53 -4 -86
h-670z" />
    <glyph glyph-name="Ebreve" unicode="&#x114;" horiz-adv-x="1159" 
d="M614 1509q-164 0 -247 86t-93 211h203q10 -49 48 -81t96 -31q123 0 145 112h201q-17 -125 -103 -211t-250 -86zM1040 850v-238h-610v-376h674l-35 -236h-917v1403h915v-236h-637v-317h610z" />
    <glyph glyph-name="ebreve" unicode="&#x115;" horiz-adv-x="1091" 
d="M561 1182q-151 0 -231 87t-86 214h200q25 -104 123 -105q59 0 84 26t39 79h199q-16 -131 -96 -216t-232 -85zM557 872q-105 0 -151 -66t-52 -157h400q-8 223 -197 223zM350 467q0 -113 49 -191t158 -77q137 0 182 127h273q-100 -344 -463 -344q-242 0 -361 148
q-118 148 -118 381t109 391q57 81 155 130t227 49q257 0 360 -156t103 -372q0 -53 -4 -86h-670z" />
    <glyph glyph-name="Edotaccent" unicode="&#x116;" horiz-adv-x="1159" 
d="M760 1536h-285v260h285v-260zM1040 850v-238h-610v-376h674l-35 -236h-917v1403h915v-236h-637v-317h610z" />
    <glyph glyph-name="edotaccent" unicode="&#x117;" horiz-adv-x="1091" 
d="M705 1225h-277v256h277v-256zM557 872q-105 0 -151 -66t-52 -157h400q-8 223 -197 223zM350 467q0 -113 49 -191t158 -77q137 0 182 127h273q-100 -344 -463 -344q-242 0 -361 148q-118 148 -118 381t109 391q57 81 155 130t227 49q257 0 360 -156t103 -372q0 -53 -4 -86
h-670z" />
    <glyph glyph-name="Eogonek" unicode="&#x118;" horiz-adv-x="1159" 
d="M1040 850v-238h-610v-376h674l-35 -236h-61q-131 -86 -131 -186q-1 -43 27 -69t77 -26t94 13l17 -174q-70 -37 -193 -37t-198 61t-74 168q0 133 127 250h-602v1403h915v-236h-637v-317h610z" />
    <glyph glyph-name="eogonek" unicode="&#x119;" horiz-adv-x="1091" 
d="M557 872q-105 0 -151 -66t-52 -157h400q-8 223 -197 223zM350 467q0 -113 49 -191t158 -77q137 0 182 127h273q-59 -203 -213 -287q-131 -86 -131 -186q0 -43 28 -69t76 -26q49 0 94 13l17 -174q-70 -37 -193 -37q-124 0 -198 61t-74 165t76 198q-215 18 -320 163
q-104 145 -104 371t109 384q57 81 155 130t227 49q257 0 360 -156t103 -372q0 -53 -4 -86h-670z" />
    <glyph glyph-name="Ecaron" unicode="&#x11a;" horiz-adv-x="1159" 
d="M772 1516h-315l-219 282h266l112 -145l111 145h268zM1040 850v-238h-610v-376h674l-35 -236h-917v1403h915v-236h-637v-317h610z" />
    <glyph glyph-name="ecaron" unicode="&#x11b;" horiz-adv-x="1091" 
d="M717 1186h-303l-205 303h260l100 -150l95 150h260zM557 872q-105 0 -151 -66t-52 -157h400q-8 223 -197 223zM350 467q0 -113 49 -191t158 -77q137 0 182 127h273q-100 -344 -463 -344q-242 0 -361 148q-118 148 -118 381t109 391q57 81 155 130t227 49q257 0 360 -156
t103 -372q0 -53 -4 -86h-670z" />
    <glyph glyph-name="Gcircumflex" unicode="&#x11c;" horiz-adv-x="1398" 
d="M543 1800h315l219 -284h-266l-113 145l-110 -145h-269zM1270 784v-784h-211q-16 76 -21 164q-96 -184 -376 -184t-428 198q-146 199 -146 514t171 522t470 207q240 -1 377 -117t166 -303h-281q-57 190 -278 191q-172 0 -252 -140t-80 -358t82 -352q82 -135 250 -135
q272 0 272 328v6h-293v243h578z" />
    <glyph glyph-name="gcircumflex" unicode="&#x11d;" horiz-adv-x="1171" 
d="M436 1507h303l205 -303h-260l-100 150l-95 -150h-260zM356 552q0 -148 56 -230t166 -82q108 0 156 72t48 235q0 165 -40 235t-152 70t-174 -76q-60 -76 -60 -224zM1047 104q-1 -528 -487 -528q-248 0 -355 99q-106 99 -117 243h274q29 -129 199 -129q125 0 169 71t44 226
v66q-74 -140 -274 -140t-316 142q-114 142 -114 388q0 245 128 392t324 147t246 -118q0 37 12 98h271q-4 -107 -4 -320v-637z" />
    <glyph glyph-name="Gbreve" unicode="&#x11e;" horiz-adv-x="1398" 
d="M690 1509q-164 0 -247 86t-93 211h203q10 -49 48 -81t95 -31q123 0 146 112h200q-18 -125 -103 -211t-249 -86zM1270 784v-784h-211q-16 76 -21 164q-96 -184 -376 -184t-428 198q-146 199 -146 514t171 522t470 207q240 -1 377 -117t166 -303h-281q-57 190 -278 191
q-172 0 -252 -140t-80 -358t82 -352q82 -135 250 -135q272 0 272 328v6h-293v243h578z" />
    <glyph glyph-name="gbreve" unicode="&#x11f;" horiz-adv-x="1171" 
d="M582 1182q-152 0 -232 87t-86 214h201q25 -104 123 -105q59 0 84 26t39 79h198q-16 -131 -96 -216q-79 -85 -231 -85zM356 552q0 -148 56 -230t166 -82q108 0 156 72t48 235q0 165 -40 235t-152 70t-174 -76q-60 -76 -60 -224zM1047 104q-1 -528 -487 -528
q-248 0 -355 99q-106 99 -117 243h274q29 -129 199 -129q125 0 169 71t44 226v66q-74 -140 -274 -140t-316 142q-114 142 -114 388q0 245 128 392t324 147t246 -118q0 37 12 98h271q-4 -107 -4 -320v-637z" />
    <glyph glyph-name="Gdotaccent" unicode="&#x120;" horiz-adv-x="1398" 
d="M840 1546h-285v260h285v-260zM1270 784v-784h-211q-16 76 -21 164q-96 -184 -376 -184t-428 198q-146 199 -146 514t171 522t470 207q240 -1 377 -117t166 -303h-281q-57 190 -278 191q-172 0 -252 -140t-80 -358t82 -352q82 -135 250 -135q272 0 272 328v6h-293v243h578
z" />
    <glyph glyph-name="gdotaccent" unicode="&#x121;" horiz-adv-x="1171" 
d="M725 1243h-276v256h276v-256zM356 552q0 -148 56 -230t166 -82q108 0 156 72t48 235q0 165 -40 235t-152 70t-174 -76q-60 -76 -60 -224zM1047 104q-1 -528 -487 -528q-248 0 -355 99q-106 99 -117 243h274q29 -129 199 -129q125 0 169 71t44 226v66q-74 -140 -274 -140
t-316 142q-114 142 -114 388q0 245 128 392t324 147t246 -118q0 37 12 98h271q-4 -107 -4 -320v-637z" />
    <glyph glyph-name="uni0122" unicode="&#x122;" horiz-adv-x="1398" 
d="M737 -530h-248q74 176 91 411h280q-23 -253 -123 -411zM1270 784v-784h-211q-16 76 -21 164q-96 -184 -376 -184t-428 198q-146 199 -146 514t171 522t470 207q240 -1 377 -117t166 -303h-281q-57 190 -278 191q-172 0 -252 -140t-80 -358t82 -352q82 -135 250 -135
q272 0 272 328v6h-293v243h578z" />
    <glyph glyph-name="uni0123" unicode="&#x123;" horiz-adv-x="1171" 
d="M356 552q0 -148 56 -230t166 -82q108 0 156 72t48 235q0 165 -40 235t-152 70t-174 -76q-60 -76 -60 -224zM1047 104q-1 -528 -487 -528q-248 0 -355 99q-106 99 -117 243h274q29 -129 199 -129q125 0 169 71t44 226v66q-74 -140 -274 -140t-316 142q-114 142 -114 388
q0 245 128 392t324 147t246 -118q0 37 12 98h271q-4 -107 -4 -320v-637zM541 1599h241q-68 -205 -80 -411h-282q25 249 121 411z" />
    <glyph glyph-name="Hcircumflex" unicode="&#x124;" horiz-adv-x="1388" 
d="M539 1812h315l219 -284h-266l-113 145l-110 -145h-269zM152 0v1403h286v-553h512v553h287v-1403h-287v612h-512v-612h-286z" />
    <glyph glyph-name="hcircumflex" unicode="&#x125;" horiz-adv-x="1169" 
d="M131 1489h279v-557q84 150 295 149q153 0 243 -93t90 -292v-696h-274v653q0 199 -168 199q-186 0 -186 -262v-590h-279v1489zM125 1819h301l215 -246h-246l-121 121l-116 -121h-248z" />
    <glyph glyph-name="Hbar" unicode="&#x126;" horiz-adv-x="1388" 
d="M438 831h512v162h-512v-162zM23 1182h129v221h286v-221h512v221h287v-221h129v-189h-129v-993h-287v594h-512v-594h-286v993h-129v189z" />
    <glyph glyph-name="hbar" unicode="&#x127;" horiz-adv-x="1169" 
d="M131 1489h279v-141h452v-170h-452v-267q84 150 295 150q153 0 243 -93t90 -292v-676h-274v633q0 199 -168 198q-186 0 -186 -262v-569h-279v1178h-106v170h106v141z" />
    <glyph glyph-name="Itilde" unicode="&#x128;" horiz-adv-x="591" 
d="M113 1538h-185v72q0 209 193 209q67 0 175 -42t132 -42q53 0 53 69v19h183v-47q0 -244 -201 -244q-70 0 -171 42t-126 42q-53 0 -53 -49v-29zM152 1403h286v-1403h-286v1403z" />
    <glyph glyph-name="itilde" unicode="&#x129;" horiz-adv-x="540" 
d="M113 1204h-189v64q0 221 189 221q73 0 163 -42t113 -42q45 0 45 70v16h184v-45q0 -246 -202 -246q-70 0 -157 41t-109 41q-37 0 -37 -47v-31zM131 0v1061h279v-1061h-279z" />
    <glyph glyph-name="Imacron" unicode="&#x12a;" horiz-adv-x="591" 
d="M-14 1753h618v-205h-618v205zM152 1403h286v-1403h-286v1403z" />
    <glyph glyph-name="imacron" unicode="&#x12b;" horiz-adv-x="540" 
d="M-31 1444h604v-209h-604v209zM131 0v1061h279v-1061h-279z" />
    <glyph glyph-name="Iogonek" unicode="&#x12e;" horiz-adv-x="591" 
d="M152 1403h286v-1403h-14q-131 -86 -131 -186q0 -43 28 -69q29 -26 77 -26t94 13l16 -174q-70 -37 -193 -37t-197 61t-75 181q0 120 127 237h-18v1403z" />
    <glyph glyph-name="iogonek" unicode="&#x12f;" horiz-adv-x="540" 
d="M410 1233h-279v256h279v-256zM131 0v1061h279v-1061q-131 -86 -131 -186q-1 -43 27 -69t77 -26t94 13l17 -174q-70 -37 -193 -37t-198 61t-74 168q0 133 127 250h-25z" />
    <glyph glyph-name="Idotaccent" unicode="&#x130;" horiz-adv-x="591" 
d="M438 1546h-284v260h284v-260zM152 1403h286v-1403h-286v1403z" />
    <glyph glyph-name="dotlessi" unicode="&#x131;" horiz-adv-x="540" 
d="M131 0v1061h279v-1061h-279z" />
    <glyph glyph-name="Jcircumflex" unicode="&#x134;" horiz-adv-x="753" 
d="M322 1798h315l219 -285h-266l-113 146l-110 -146h-269zM618 1403v-965q0 -231 -94 -344t-317 -112q-90 0 -162 14v225q43 -6 132 -6t123 53t34 164v971h284z" />
    <glyph glyph-name="jcircumflex" unicode="&#x135;" horiz-adv-x="540" 
d="M121 1489h303l205 -303h-260l-101 149l-94 -149h-260zM131 1061h279v-1047q0 -116 -10 -186q-26 -172 -143 -223q-67 -29 -147 -29t-116 6v228q71 -7 90 3q20 11 34 24t13 49v1175z" />
    <glyph glyph-name="uni0136" unicode="&#x136;" horiz-adv-x="1286" 
d="M682 -528h-248q74 176 90 411h281q-23 -253 -123 -411zM434 0h-282v1403h280v-647l504 647h342l-479 -565l508 -838h-342l-363 649l-168 -186v-463z" />
    <glyph glyph-name="uni0137" unicode="&#x137;" horiz-adv-x="1064" 
d="M592 -520h-248q74 176 90 411h281q-23 -253 -123 -411zM410 0h-279v1489h279v-871q174 221 338 443h315l-350 -414q80 -129 381 -647h-320q-43 80 -246 463l-118 -129v-334z" />
    <glyph glyph-name="kgreenlandic" unicode="&#x138;" horiz-adv-x="1050" 
d="M410 0h-279v1061h279v-440q245 320 333 440h316q-190 -233 -352 -420q65 -109 199 -334t184 -307h-322q-41 72 -128 238t-116 217q-4 -6 -114 -117v-338z" />
    <glyph glyph-name="Lacute" unicode="&#x139;" horiz-adv-x="1081" 
d="M406 1810h344l-330 -284h-254zM152 0v1403h286v-1167h627l-33 -236h-880z" />
    <glyph glyph-name="lacute" unicode="&#x13a;" horiz-adv-x="540" 
d="M410 0h-279v1489h279v-1489zM377 1827h336l-322 -246h-256z" />
    <glyph glyph-name="uni013B" unicode="&#x13b;" horiz-adv-x="1081" 
d="M614 -530h-247q74 176 90 411h280q-23 -253 -123 -411zM152 0v1403h286v-1167h627l-33 -236h-880z" />
    <glyph glyph-name="uni013C" unicode="&#x13c;" horiz-adv-x="540" 
d="M287 -530h-248q74 176 90 411h281q-23 -253 -123 -411zM410 0h-279v1489h279v-1489z" />
    <glyph glyph-name="Lcaron" unicode="&#x13d;" horiz-adv-x="1081" 
d="M911 862h-221l-20 541h262zM152 0v1403h286v-1167h627l-33 -236h-880z" />
    <glyph glyph-name="lcaron" unicode="&#x13e;" horiz-adv-x="708" 
d="M741 948h-221l-20 541h262zM410 0h-279v1489h279v-1489z" />
    <glyph glyph-name="Ldot" unicode="&#x13f;" horiz-adv-x="1081" 
d="M152 0v1403h286v-1167h627l-33 -236h-880zM922 629h-271v323h271v-323z" />
    <glyph glyph-name="ldot" unicode="&#x140;" horiz-adv-x="745" 
d="M410 0h-279v1489h279v-1489zM766 664h-254v323h254v-323z" />
    <glyph glyph-name="Lslash" unicode="&#x141;" horiz-adv-x="1101" 
d="M459 236h626l-32 -236h-881v547l-164 -76v229l164 76v627h287v-492l307 144v-230l-307 -143v-446z" />
    <glyph glyph-name="lslash" unicode="&#x142;" horiz-adv-x="577" 
d="M434 0h-278v592l-121 -72v219l121 74v676h278v-508l139 84v-221l-139 -84v-760z" />
    <glyph glyph-name="Nacute" unicode="&#x143;" horiz-adv-x="1423" 
d="M805 1810h344l-330 -284h-254zM412 0h-260v1403h364q485 -991 506 -1061h4q-16 193 -16 627v434h262v-1403h-350q-479 1004 -519 1106h-2q10 -178 11 -672v-434z" />
    <glyph glyph-name="nacute" unicode="&#x144;" horiz-adv-x="1169" 
d="M641 1511h326l-301 -301h-242zM131 0v729q0 238 -4 332h270q10 -51 11 -137q36 68 112 112t182 45q166 0 251 -101t85 -286v-694h-278v641q0 99 -35 155t-129 56t-140 -61t-46 -199v-592h-279z" />
    <glyph glyph-name="uni0145" unicode="&#x145;" horiz-adv-x="1423" 
d="M729 -530h-248q74 176 90 411h281q-23 -253 -123 -411zM412 0h-260v1403h364q485 -991 506 -1061h4q-16 193 -16 627v434h262v-1403h-350q-479 1004 -519 1106h-2q10 -178 11 -672v-434z" />
    <glyph glyph-name="uni0146" unicode="&#x146;" horiz-adv-x="1169" 
d="M602 -530h-248q74 176 90 411h281q-23 -253 -123 -411zM131 0v729q0 238 -4 332h270q10 -51 11 -137q36 68 112 112t182 45q166 0 251 -101t85 -286v-694h-278v641q0 99 -35 155t-129 56t-140 -61t-46 -199v-592h-279z" />
    <glyph glyph-name="Ncaron" unicode="&#x147;" horiz-adv-x="1423" 
d="M866 1516h-315l-219 282h266l113 -145l110 145h269zM412 0h-260v1403h364q485 -991 506 -1061h4q-16 193 -16 627v434h262v-1403h-350q-479 1004 -519 1106h-2q10 -178 11 -672v-434z" />
    <glyph glyph-name="ncaron" unicode="&#x148;" horiz-adv-x="1169" 
d="M735 1204h-303l-205 303h260l101 -149l94 149h260zM131 0v729q0 238 -4 332h270q10 -51 11 -137q36 68 112 112t182 45q166 0 251 -101t85 -286v-694h-278v641q0 99 -35 155t-129 56t-140 -61t-46 -199v-592h-279z" />
    <glyph glyph-name="napostrophe" unicode="&#x149;" horiz-adv-x="1169" 
d="M131 0v729q0 238 -4 332h270q10 -51 11 -137q36 68 112 112t182 45q166 0 251 -101t85 -286v-694h-278v641q0 99 -35 155t-129 56t-140 -61t-46 -199v-592h-279zM199 1192h-211q53 168 63 428h248q-10 -227 -100 -428z" />
    <glyph glyph-name="Omacron" unicode="&#x14c;" horiz-adv-x="1431" 
d="M391 1753h619v-205h-619v205zM718 1194q-171 0 -253 -134t-82 -352t87 -360t247 -141q334 0 334 502q0 213 -81 349t-252 136zM746 1421q184 0 327 -101q270 -191 270 -611q-1 -322 -161 -526t-475 -203q-158 0 -279 57q-223 105 -303 391q-37 130 -37 274t38 267
t112 226t200 165q124 62 308 61z" />
    <glyph glyph-name="omacron" unicode="&#x14d;" horiz-adv-x="1142" 
d="M270 1444h604v-209h-604v209zM569 862q-104 0 -161 -85t-58 -230q0 -348 228 -348q104 0 160 88t57 256q-1 319 -226 319zM576 1081q248 -1 374 -153t125 -392q0 -240 -126 -399q-126 -157 -383 -157t-378 160q-120 160 -120 390t130 390t378 161z" />
    <glyph glyph-name="Ohungarumlaut" unicode="&#x150;" horiz-adv-x="1431" 
d="M979 1808h299l-293 -284h-231zM555 1808h299l-295 -284h-229zM718 1194q-171 0 -253 -134t-82 -352t87 -360t247 -141q334 0 334 502q0 213 -81 349t-252 136zM746 1421q184 0 327 -101q270 -191 270 -611q-1 -322 -161 -526t-475 -203q-158 0 -279 57q-223 105 -303 391
q-37 130 -37 274t38 267t112 226t200 165q124 62 308 61z" />
    <glyph glyph-name="ohungarumlaut" unicode="&#x151;" horiz-adv-x="1142" 
d="M856 1192h-229l194 301h285zM444 1192h-229l193 301h288zM569 862q-104 0 -161 -85t-58 -230q0 -348 228 -348q104 0 160 88t57 256q-1 319 -226 319zM576 1081q248 -1 374 -153t125 -392q0 -240 -126 -399q-126 -157 -383 -157t-378 160q-120 160 -120 390t130 390
t378 161z" />
    <glyph glyph-name="OE" unicode="&#x152;" horiz-adv-x="1943" 
d="M385 706q0 -230 110 -355q110 -126 308 -126q117 1 164 11v929q-43 8 -162 9q-195 0 -307 -119t-113 -349zM1849 1403v-244h-606v-309h576v-242h-576v-366h643l-35 -242h-788l-272 -10q-350 0 -527 193q-176 194 -176 524q0 190 80 347t249 256t400 99l234 -6h798z" />
    <glyph glyph-name="oe" unicode="&#x153;" horiz-adv-x="1777" 
d="M1245 870q-116 0 -153 -75t-41 -144h391q-14 219 -197 219zM559 856q-101 0 -155 -79t-54 -235t53 -248q53 -91 162 -91q207 0 207 340q0 313 -213 313zM1238 -18q-206 0 -329 137q-119 -137 -361 -137t-361 158t-119 396t128 391t367 153t355 -148q133 147 342 147
q451 0 450 -501v-109h-663q0 -270 200 -270q63 -1 105 25t51 48q10 22 20 54h277q-32 -154 -144 -249t-318 -95z" />
    <glyph glyph-name="Racute" unicode="&#x154;" horiz-adv-x="1275" 
d="M725 1810h344l-330 -284h-254zM895 999q0 177 -209 177h-254v-369h213q250 0 250 192zM623 580h-191v-580h-280v1403h571q205 0 330 -99t125 -280q0 -244 -220 -328q102 -41 146 -123t45 -215v-36q0 -205 18 -322h-276q-27 78 -27 326v36q0 122 -52 170t-189 48z" />
    <glyph glyph-name="racute" unicode="&#x155;" horiz-adv-x="757" 
d="M438 1511h326l-301 -301h-242zM131 0v700q0 287 -4 361h270q8 -63 9 -187q33 82 111 143q79 60 210 60v-282q-170 4 -244 -66t-73 -248v-481h-279z" />
    <glyph glyph-name="uni0156" unicode="&#x156;" horiz-adv-x="1275" 
d="M668 -530h-248q74 176 90 411h281q-23 -253 -123 -411zM895 999q0 177 -209 177h-254v-369h213q250 0 250 192zM623 580h-191v-580h-280v1403h571q205 0 330 -99t125 -280q0 -244 -220 -328q102 -41 146 -123t45 -215v-36q0 -205 18 -322h-276q-27 78 -27 326v36
q0 122 -52 170t-189 48z" />
    <glyph glyph-name="uni0157" unicode="&#x157;" horiz-adv-x="757" 
d="M293 -530h-248q74 176 90 411h281q-23 -253 -123 -411zM131 0v700q0 287 -4 361h270q8 -63 9 -187q33 82 111 143q79 60 210 60v-282q-170 4 -244 -66t-73 -248v-481h-279z" />
    <glyph glyph-name="Rcaron" unicode="&#x158;" horiz-adv-x="1275" 
d="M786 1516h-315l-219 282h266l113 -145l110 145h269zM895 999q0 177 -209 177h-254v-369h213q250 0 250 192zM623 580h-191v-580h-280v1403h571q205 0 330 -99t125 -280q0 -244 -220 -328q102 -41 146 -123t45 -215v-36q0 -205 18 -322h-276q-27 78 -27 326v36
q0 122 -52 170t-189 48z" />
    <glyph glyph-name="rcaron" unicode="&#x159;" horiz-adv-x="757" 
d="M553 1186h-303l-205 303h260l101 -150l94 150h260zM131 0v700q0 287 -4 361h270q8 -63 9 -187q33 82 111 143q79 60 210 60v-282q-170 4 -244 -66t-73 -248v-481h-279z" />
    <glyph glyph-name="Sacute" unicode="&#x15a;" horiz-adv-x="1183" 
d="M686 1810h344l-330 -284h-254zM602 203q217 0 217 170q0 92 -61 142t-219 95q-240 66 -338 160q-99 94 -99 266t134 278t358 107q224 -1 346 -109t133 -290h-280q-17 86 -65 134t-153 48q-188 0 -188 -157q0 -74 54 -109t216 -82q256 -74 354 -181q97 -109 97 -281
t-129 -292t-375 -120t-385 113q-139 114 -151 319h282q35 -211 252 -211z" />
    <glyph glyph-name="sacute" unicode="&#x15b;" horiz-adv-x="985" 
d="M549 1511h325l-301 -301h-241zM86 762q0 123 94 221t301 98t309 -90t111 -233h-270q-17 121 -145 121t-128 -93q0 -42 40 -68t155 -54q211 -54 294 -136t83 -228t-119 -232t-315 -86t-313 87q-116 87 -132 257h273q20 -144 176 -144t155 107q0 49 -46 78t-212 75
q-167 46 -239 121q-72 76 -72 199z" />
    <glyph glyph-name="Scircumflex" unicode="&#x15c;" horiz-adv-x="1183" 
d="M436 1812h316l219 -284h-266l-113 145l-111 -145h-268zM602 203q217 0 217 170q0 92 -61 142t-219 95q-240 66 -338 160q-99 94 -99 266t134 278t358 107q224 -1 346 -109t133 -290h-280q-17 86 -65 134t-153 48q-188 0 -188 -157q0 -74 54 -109t216 -82
q256 -74 354 -181q97 -109 97 -281t-129 -292t-375 -120t-385 113q-139 114 -151 319h282q35 -211 252 -211z" />
    <glyph glyph-name="scircumflex" unicode="&#x15d;" horiz-adv-x="985" 
d="M342 1489h303l205 -303h-260l-101 149l-94 -149h-260zM86 762q0 123 94 221t301 98t309 -90t111 -233h-270q-17 121 -145 121t-128 -93q0 -42 40 -68t155 -54q211 -54 294 -136t83 -228t-119 -232t-315 -86t-313 87q-116 87 -132 257h273q20 -144 176 -144t155 107
q0 49 -46 78t-212 75q-167 46 -239 121q-72 76 -72 199z" />
    <glyph glyph-name="uni015E" unicode="&#x15e;" horiz-adv-x="1183" 
d="M602 203q217 0 217 170q0 92 -61 142t-219 95q-240 66 -338 160q-99 94 -99 266t134 278t358 107q224 -1 346 -109t133 -290h-280q-17 86 -65 134t-153 48q-188 0 -188 -157q0 -74 54 -109t216 -82q256 -74 354 -181q97 -109 97 -269t-99 -274t-298 -142l-64 -78
q184 -43 184 -188q0 -211 -296 -211q-111 0 -164 22l12 150q61 -14 113 -15q94 0 94 51q0 63 -182 72v68l94 125q-196 24 -310 134t-124 294h282q35 -211 252 -211z" />
    <glyph glyph-name="uni015F" unicode="&#x15f;" horiz-adv-x="985" 
d="M86 762q0 123 94 221t301 98t309 -90t111 -233h-270q-17 121 -145 121t-128 -93q0 -42 40 -68t155 -54q211 -54 294 -136t83 -214t-83 -215t-226 -107l-66 -80q184 -43 184 -188q0 -211 -297 -211q-111 0 -163 22l12 150q61 -14 112 -15q94 0 95 51q0 63 -183 72v68
l95 125q-328 39 -359 340h273q20 -144 176 -144t155 107q0 49 -46 78t-212 75q-167 46 -239 121q-72 76 -72 199z" />
    <glyph glyph-name="Scaron" unicode="&#x160;" horiz-adv-x="1183" 
d="M748 1518h-316l-219 282h266l113 -145l110 145h269zM602 203q217 0 217 170q0 92 -61 142t-219 95q-240 66 -338 160q-99 94 -99 266t134 278t358 107q224 -1 346 -109t133 -290h-280q-17 86 -65 134t-153 48q-188 0 -188 -157q0 -74 54 -109t216 -82q256 -74 354 -181
q97 -109 97 -281t-129 -292t-375 -120t-385 113q-139 114 -151 319h282q35 -211 252 -211z" />
    <glyph glyph-name="scaron" unicode="&#x161;" horiz-adv-x="985" 
d="M643 1186h-303l-205 303h260l101 -150l94 150h260zM86 762q0 123 94 221t301 98t309 -90t111 -233h-270q-17 121 -145 121t-128 -93q0 -42 40 -68t155 -54q211 -54 294 -136t83 -228t-119 -232t-315 -86t-313 87q-116 87 -132 257h273q20 -144 176 -144t155 107
q0 49 -46 78t-212 75q-167 46 -239 121q-72 76 -72 199z" />
    <glyph glyph-name="uni0162" unicode="&#x162;" horiz-adv-x="1120" 
d="M416 0v1167h-379v236h1048v-236h-380v-1167h-31l-72 -88q184 -43 184 -188q0 -211 -297 -211q-111 0 -163 22l12 150q61 -14 113 -15q94 0 94 51q0 63 -183 72v68l105 139h-51z" />
    <glyph glyph-name="uni0163" unicode="&#x163;" horiz-adv-x="661" 
d="M8 844v217h150v287h276v-287h189v-217h-189v-545q0 -57 27 -86t141 -12v-191q-43 -14 -123 -18l-63 -80q184 -43 184 -188q0 -211 -297 -211q-111 0 -164 22l13 150q61 -14 112 -15q94 0 94 51q0 63 -182 72v68l111 149q-129 51 -129 258v576h-150z" />
    <glyph glyph-name="Tcaron" unicode="&#x164;" horiz-adv-x="1120" 
d="M715 1516h-316l-219 282h266l113 -145l111 145h268zM416 0v1167h-379v236h1048v-236h-380v-1167h-289z" />
    <glyph glyph-name="tcaron" unicode="&#x165;" horiz-adv-x="661" 
d="M8 844v217h150v287h276v-287h189v-217h-189v-545q0 -57 27 -86t141 -12v-191q-62 -20 -192 -20t-191 64t-61 214v576h-150zM754 1174h-176l-7 477h203z" />
    <glyph glyph-name="Utilde" unicode="&#x168;" horiz-adv-x="1355" 
d="M496 1536h-185v72q0 209 193 209q68 0 176 -42t131 -42q53 0 53 69v19h183v-47q0 -244 -201 -244q-70 0 -171 42t-126 42q-53 0 -53 -49v-29zM133 1403h287v-893q0 -139 55 -221t203 -82t203 80q53 80 53 223v893h289v-899q0 -524 -549 -524q-293 0 -417 138t-124 384
v901z" />
    <glyph glyph-name="utilde" unicode="&#x169;" horiz-adv-x="1150" 
d="M416 1204h-189v64q0 221 189 221q74 0 164 -42t112 -42q45 0 45 70v16h185v-45q0 -246 -203 -246q-70 0 -157 41t-109 41q-37 0 -37 -47v-31zM1020 1061v-748q0 -203 4 -313h-270q-6 35 -11 127q-86 -145 -292 -145q-158 0 -243 96t-85 274v709h276v-662q0 -188 156 -188
q186 0 186 258v592h279z" />
    <glyph glyph-name="Umacron" unicode="&#x16a;" horiz-adv-x="1355" 
d="M369 1753h618v-205h-618v205zM133 1403h287v-893q0 -139 55 -221t203 -82t203 80q53 80 53 223v893h289v-899q0 -524 -549 -524q-293 0 -417 138t-124 384v901z" />
    <glyph glyph-name="umacron" unicode="&#x16b;" horiz-adv-x="1150" 
d="M272 1444h605v-209h-605v209zM1020 1061v-748q0 -203 4 -313h-270q-6 35 -11 127q-86 -145 -292 -145q-158 0 -243 96t-85 274v709h276v-662q0 -188 156 -188q186 0 186 258v592h279z" />
    <glyph glyph-name="Ubreve" unicode="&#x16c;" horiz-adv-x="1355" 
d="M678 1675q123 0 145 113h201q-18 -125 -103 -211t-249 -86t-247 86t-93 211h203q10 -49 48 -81t95 -32zM133 1403h287v-893q0 -139 55 -221t203 -82t203 80q53 80 53 223v893h289v-899q0 -524 -549 -524q-293 0 -417 138t-124 384v901z" />
    <glyph glyph-name="ubreve" unicode="&#x16d;" horiz-adv-x="1150" 
d="M575 1360q59 0 84 26t39 78h199q-16 -131 -96 -216t-232 -85q-151 0 -231 87t-86 214h201q25 -104 122 -104zM1020 1061v-748q0 -203 4 -313h-270q-6 35 -11 127q-86 -145 -292 -145q-158 0 -243 96t-85 274v709h276v-662q0 -188 156 -188q186 0 186 258v592h279z" />
    <glyph glyph-name="Uring" unicode="&#x16e;" horiz-adv-x="1355" 
d="M677 1595q48 0 74 26q25 25 25 63t-25 64q-26 26 -74 26t-72 -26q-23 -26 -23 -62t24 -64q24 -27 71 -27zM924 1686q0 -92 -66 -150t-180 -59q-112 0 -178 58t-66 148q0 91 66 149t180 58t180 -56q64 -56 64 -148zM133 1403h287v-893q0 -139 55 -221t203 -82t203 80
q53 80 53 223v893h289v-899q0 -524 -549 -524q-293 0 -417 138t-124 384v901z" />
    <glyph glyph-name="uring" unicode="&#x16f;" horiz-adv-x="1150" 
d="M477 1341q-1 -37 23 -63t72 -27q48 0 74 26q26 25 26 63t-26 64t-74 26t-72 -26t-23 -63zM573 1133q-113 0 -179 58t-64 148q0 90 65 149q67 58 181 58t179 -56t65 -148t-68 -151q-66 -58 -179 -58zM1020 1061v-748q0 -203 4 -313h-270q-6 35 -11 127q-86 -145 -292 -145
q-158 0 -243 96t-85 274v709h276v-662q0 -188 156 -188q186 0 186 258v592h279z" />
    <glyph glyph-name="Uhungarumlaut" unicode="&#x170;" horiz-adv-x="1355" 
d="M956 1808h299l-292 -284h-232zM532 1808h299l-294 -284h-230zM133 1403h287v-893q0 -139 55 -221t203 -82t203 80q53 80 53 223v893h289v-899q0 -524 -549 -524q-293 0 -417 138t-124 384v901z" />
    <glyph glyph-name="uhungarumlaut" unicode="&#x171;" horiz-adv-x="1150" 
d="M858 1167h-229l194 301h285zM446 1167h-229l193 301h288zM1020 1061v-748q0 -203 4 -313h-270q-6 35 -11 127q-86 -145 -292 -145q-158 0 -243 96t-85 274v709h276v-662q0 -188 156 -188q186 0 186 258v592h279z" />
    <glyph glyph-name="Uogonek" unicode="&#x172;" horiz-adv-x="1355" 
d="M133 1403h287v-893q0 -139 55 -221t203 -82t203 80q53 80 53 223v893h289v-899q0 -391 -305 -492q-109 -82 -109 -170q0 -42 28 -68q29 -26 77 -26t94 12l16 -174q-70 -37 -193 -37q-123 -1 -197 61t-75 166q0 104 82 204q-274 8 -391 146t-117 376v901z" />
    <glyph glyph-name="uogonek" unicode="&#x173;" horiz-adv-x="1150" 
d="M1020 1061v-748q0 -203 4 -313q-131 -86 -131 -186q0 -43 28 -69q29 -26 77 -26t94 13l16 -174q-70 -37 -193 -37t-197 61t-75 181q0 120 127 237h-16q-6 35 -11 127q-86 -145 -292 -145q-158 0 -243 96t-85 274v709h276v-662q0 -188 156 -188q186 0 186 258v592h279z
" />
    <glyph glyph-name="Wcircumflex" unicode="&#x174;" horiz-adv-x="1798" 
d="M743 1810h316l219 -284h-266l-113 145l-111 -145h-268zM657 0h-297l-329 1403h305q150 -745 188 -1079h2q29 147 126 550t126 529h258q203 -836 240 -1065h2q27 186 118 618t93 447h280l-352 -1403h-297q-28 122 -114 490t-113 509h-2q-35 -178 -234 -999z" />
    <glyph glyph-name="wcircumflex" unicode="&#x175;" horiz-adv-x="1570" 
d="M637 1489h303l205 -303h-260l-101 149l-94 -149h-260zM25 1061h297q158 -745 161 -770h4q8 43 185 770h250q162 -629 178 -764h2q14 86 170 764h276l-315 -1061h-279q-27 113 -92 371t-76 329h-2q-27 -156 -180 -700h-280z" />
    <glyph glyph-name="Ycircumflex" unicode="&#x176;" horiz-adv-x="1159" 
d="M424 1812h315l219 -284h-266l-112 145l-111 -145h-268zM721 537v-537h-285v528q0 29 -12 45l-444 830h321q29 -61 143 -298t148 -312l291 610h297l-447 -823q-12 -18 -12 -43z" />
    <glyph glyph-name="ycircumflex" unicode="&#x177;" horiz-adv-x="1026" 
d="M358 1489h304l204 -303h-260l-100 149l-94 -149h-260zM248 -424q-58 0 -123 8v228q43 -6 96 -7q119 0 162 146l-371 1110h295q199 -719 213 -819h2q49 225 213 819h279l-361 -1106q-83 -250 -181 -314q-98 -65 -224 -65z" />
    <glyph glyph-name="Ydieresis" unicode="&#x178;" horiz-adv-x="1159" 
d="M901 1548h-227v260h227v-260zM485 1548h-227v260h227v-260zM721 537v-537h-285v528q0 29 -12 45l-444 830h321q29 -61 143 -298t148 -312l291 610h297l-447 -823q-12 -18 -12 -43z" />
    <glyph glyph-name="Zacute" unicode="&#x179;" horiz-adv-x="1169" 
d="M678 1810h344l-330 -284h-254zM47 0v205l696 962h-661v236h997v-232l-680 -935h717l-37 -236h-1032z" />
    <glyph glyph-name="zacute" unicode="&#x17a;" horiz-adv-x="933" 
d="M543 1511h325l-301 -301h-241zM55 0v209q223 266 508 633h-477v219h788v-217q-80 -102 -250 -318t-245 -309h528l-33 -217h-819z" />
    <glyph glyph-name="Zdotaccent" unicode="&#x17b;" horiz-adv-x="1169" 
d="M717 1546h-285v260h285v-260zM47 0v205l696 962h-661v236h997v-232l-680 -935h717l-37 -236h-1032z" />
    <glyph glyph-name="zdotaccent" unicode="&#x17c;" horiz-adv-x="933" 
d="M606 1225h-276v256h276v-256zM55 0v209q223 266 508 633h-477v219h788v-217q-80 -102 -250 -318t-245 -309h528l-33 -217h-819z" />
    <glyph glyph-name="Zcaron" unicode="&#x17d;" horiz-adv-x="1169" 
d="M741 1516h-315l-219 282h266l113 -145l110 145h269zM47 0v205l696 962h-661v236h997v-232l-680 -935h717l-37 -236h-1032z" />
    <glyph glyph-name="zcaron" unicode="&#x17e;" horiz-adv-x="933" 
d="M637 1186h-303l-205 303h260l100 -150l95 150h260zM55 0v209q223 266 508 633h-477v219h788v-217q-80 -102 -250 -318t-245 -309h528l-33 -217h-819z" />
    <glyph glyph-name="uni018F" unicode="&#x18f;" horiz-adv-x="1372" 
d="M367 582q0 -184 83 -280t223 -95q140 -1 223 93t91 282h-620zM1282 721q0 -338 -159 -539t-455 -200q-586 0 -586 714v99h911q0 175 -79 283t-236 108q-123 0 -194 -51t-113 -164h-275q41 190 192 320t396 130q156 0 274 -55q218 -102 290 -374q34 -124 34 -271z" />
    <glyph glyph-name="florin" unicode="&#x192;" horiz-adv-x="1007" 
d="M842 1223q-72 0 -101 -49t-45 -166l-16 -115h203v-201h-234l-71 -475q-51 -347 -203 -424q-63 -33 -174 -33t-199 45l47 218q57 -27 123 -27t86 43t43 182l76 471h-166v201h199l12 80q35 258 130 368q90 107 280 107q110 0 163 -37l-41 -213q-40 25 -112 25z" />
    <glyph glyph-name="Ohorn" unicode="&#x1a0;" horiz-adv-x="1431" 
d="M718 1194q-171 0 -253 -134t-82 -352t87 -360t247 -141q334 0 334 502q0 213 -81 349t-252 136zM725 1421q215 0 365 -110q72 16 72 87t-25 140h233q23 -61 23 -139q0 -197 -154 -260q104 -178 104 -430q-1 -322 -161 -526t-475 -203q-158 0 -279 57q-223 105 -303 391
q-37 130 -37 274t38 267q86 280 311 391q126 61 288 61z" />
    <glyph glyph-name="ohorn" unicode="&#x1a1;" horiz-adv-x="1142" 
d="M569 862q-104 0 -161 -85t-58 -230q0 -348 228 -348q104 0 160 88t57 256q-1 319 -226 319zM582 1081q152 0 262 -65q70 20 70 89t-25 138h233q23 -61 23 -139q0 -188 -141 -254q72 -129 71 -305q0 -250 -126 -408q-126 -157 -383 -157t-378 160q-120 160 -120 390
t130 390t384 161z" />
    <glyph glyph-name="Uhorn" unicode="&#x1af;" horiz-adv-x="1355" 
d="M133 1403h287v-893q0 -139 55 -221t203 -82t203 80q53 80 53 223v893h153q102 10 103 96q0 68 -25 137h234q23 -61 22 -139q0 -225 -198 -274v-719q0 -524 -549 -524q-293 0 -417 138t-124 384v901z" />
    <glyph glyph-name="uhorn" unicode="&#x1b0;" horiz-adv-x="1150" 
d="M451 -18q-158 0 -243 96t-85 274v709h276v-662q0 -188 156 -188q186 0 186 258v592h142q102 10 102 96q0 68 -24 137h233q23 -61 23 -139q0 -225 -197 -274v-568q0 -203 4 -313h-270q-7 35 -11 127q-86 -145 -292 -145z" />
    <glyph glyph-name="uni01CD" unicode="&#x1cd;" horiz-adv-x="1275" 
d="M793 1516h-316l-219 282h266l113 -145l111 145h268zM446 569h353q-152 500 -181 617h-2q-41 -191 -170 -617zM856 334h-465l-98 -334h-281q8 28 213 700t215 703h371l451 -1403h-299z" />
    <glyph glyph-name="uni01CE" unicode="&#x1ce;" horiz-adv-x="1099" 
d="M702 1186h-303l-204 303h260l100 -150l94 150h260zM705 453v22h-130q-225 0 -225 -147q0 -60 37 -98t113 -37q117 -1 161 67t44 193zM969 731v-457q0 -168 14 -274h-244q-10 41 -16 129q-74 -147 -297 -147q-182 0 -268 94t-86 240t119 241q120 96 380 96h125v78
q0 74 -32 114q-33 40 -118 40t-121 -37t-44 -105h-268q8 145 109 241t327 97q420 0 420 -350z" />
    <glyph glyph-name="uni01CF" unicode="&#x1cf;" horiz-adv-x="591" 
d="M451 1516h-316l-219 282h266l113 -145l111 145h268zM152 1403h286v-1403h-286v1403z" />
    <glyph glyph-name="uni01D0" unicode="&#x1d0;" horiz-adv-x="540" 
d="M422 1186h-303l-205 303h260l100 -150l95 150h260zM131 0v1061h279v-1061h-279z" />
    <glyph glyph-name="uni01D1" unicode="&#x1d1;" horiz-adv-x="1431" 
d="M856 1516h-315l-219 282h266l112 -145l111 145h268zM718 1194q-171 0 -253 -134t-82 -352t87 -360t247 -141q334 0 334 502q0 213 -81 349t-252 136zM746 1421q184 0 327 -101q270 -191 270 -611q-1 -322 -161 -526t-475 -203q-158 0 -279 57q-223 105 -303 391
q-37 130 -37 274t38 267t112 226t200 165q124 62 308 61z" />
    <glyph glyph-name="uni01D2" unicode="&#x1d2;" horiz-adv-x="1142" 
d="M723 1200h-303l-205 303h260l100 -149l95 149h260zM569 862q-104 0 -161 -85t-58 -230q0 -348 228 -348q104 0 160 88t57 256q-1 319 -226 319zM576 1081q248 -1 374 -153t125 -392q0 -240 -126 -399q-126 -157 -383 -157t-378 160q-120 160 -120 390t130 390t378 161z
" />
    <glyph glyph-name="uni01D3" unicode="&#x1d3;" horiz-adv-x="1355" 
d="M834 1516h-316l-219 282h266l113 -145l110 145h269zM133 1403h287v-893q0 -139 55 -221t203 -82t203 80q53 80 53 223v893h289v-899q0 -524 -549 -524q-293 0 -417 138t-124 384v901z" />
    <glyph glyph-name="uni01D4" unicode="&#x1d4;" horiz-adv-x="1150" 
d="M725 1186h-303l-205 303h260l101 -150l94 150h260zM1020 1061v-748q0 -203 4 -313h-270q-6 35 -11 127q-86 -145 -292 -145q-158 0 -243 96t-85 274v709h276v-662q0 -188 156 -188q186 0 186 258v592h279z" />
    <glyph glyph-name="uni01D5" unicode="&#x1d5;" horiz-adv-x="1355" 
d="M1004 1507h-236v215h236v-215zM967 1817h-582v180h582v-180zM586 1507h-234v215h234v-215zM133 1403h287v-893q0 -139 55 -221t203 -82t203 80q53 80 53 223v893h289v-899q0 -524 -549 -524q-293 0 -417 138t-124 384v901z" />
    <glyph glyph-name="uni01D6" unicode="&#x1d6;" horiz-adv-x="1150" 
d="M891 1171h-232v215h232v-215zM872 1493h-600v176h600v-176zM487 1171h-235v215h235v-215zM1020 1061v-748q0 -203 4 -313h-270q-6 35 -11 127q-86 -145 -292 -145q-158 0 -243 96t-85 274v709h276v-662q0 -188 156 -188q186 0 186 258v592h279z" />
    <glyph glyph-name="uni01D7" unicode="&#x1d7;" horiz-adv-x="1355" 
d="M993 1499h-231v217h231v-217zM539 1780l190 237h340l-281 -237h-249zM354 1716h234v-217h-234v217zM133 1403h287v-893q0 -139 55 -221t203 -82t203 80q53 80 53 223v893h289v-899q0 -524 -549 -524q-293 0 -417 138t-124 384v901z" />
    <glyph glyph-name="uni01D8" unicode="&#x1d8;" horiz-adv-x="1150" 
d="M891 1176h-232v215h232v-215zM680 1454h-252l203 238h327zM252 1391h235v-215h-235v215zM1020 1061v-748q0 -203 4 -313h-270q-6 35 -11 127q-86 -145 -292 -145q-158 0 -243 96t-85 274v709h276v-662q0 -188 156 -188q186 0 186 258v592h279z" />
    <glyph glyph-name="uni01D9" unicode="&#x1d9;" horiz-adv-x="1355" 
d="M993 1497h-231v217h231v-217zM590 1497h-236v217h236v-217zM809 1780h-270l-211 227h241l105 -111l106 111h242zM133 1403h287v-893q0 -139 55 -221t203 -82t203 80q53 80 53 223v893h289v-899q0 -524 -549 -524q-293 0 -417 138t-124 384v901z" />
    <glyph glyph-name="uni01DA" unicode="&#x1da;" horiz-adv-x="1150" 
d="M897 1171h-238v220h238v-220zM487 1171h-237v220h237v-220zM709 1454h-271l-211 242h242l104 -123l107 123h242zM1020 1061v-748q0 -203 4 -313h-270q-6 35 -11 127q-86 -145 -292 -145q-158 0 -243 96t-85 274v709h276v-662q0 -188 156 -188q186 0 186 258v592h279z" />
    <glyph glyph-name="uni01DB" unicode="&#x1db;" horiz-adv-x="1355" 
d="M993 1497h-231v217h231v-217zM829 1778h-262l-268 237h342zM354 1714h236v-217h-236v217zM133 1403h287v-893q0 -139 55 -221t203 -82t203 80q53 80 53 223v893h289v-899q0 -524 -549 -524q-293 0 -417 138t-124 384v901z" />
    <glyph glyph-name="uni01DC" unicode="&#x1dc;" horiz-adv-x="1150" 
d="M893 1155h-234v215h234v-215zM186 1671h332l199 -237h-252zM254 1370h233v-215h-233v215zM1020 1061v-748q0 -203 4 -313h-270q-6 35 -11 127q-86 -145 -292 -145q-158 0 -243 96t-85 274v709h276v-662q0 -188 156 -188q186 0 186 258v592h279z" />
    <glyph glyph-name="Gcaron" unicode="&#x1e6;" horiz-adv-x="1398" 
d="M854 1518h-315l-220 282h267l112 -145l111 145h268zM1270 784v-784h-211q-16 76 -21 164q-96 -184 -376 -184t-428 198q-146 199 -146 514t171 522t470 207q240 -1 377 -117t166 -303h-281q-57 190 -278 191q-172 0 -252 -140t-80 -358t82 -352q82 -135 250 -135
q272 0 272 328v6h-293v243h578z" />
    <glyph glyph-name="gcaron" unicode="&#x1e7;" horiz-adv-x="1171" 
d="M737 1186h-303l-205 303h260l101 -150l94 150h260zM356 552q0 -148 56 -230t166 -82q108 0 156 72t48 235q0 165 -40 235t-152 70t-174 -76q-60 -76 -60 -224zM1047 104q-1 -528 -487 -528q-248 0 -355 99q-106 99 -117 243h274q29 -129 199 -129q125 0 169 71t44 226v66
q-74 -140 -274 -140t-316 142q-114 142 -114 388q0 245 128 392t324 147t246 -118q0 37 12 98h271q-4 -107 -4 -320v-637z" />
    <glyph glyph-name="uni0218" unicode="&#x218;" horiz-adv-x="1183" 
d="M629 -530h-248q74 176 90 411h281q-23 -253 -123 -411zM602 203q217 0 217 170q0 92 -61 142t-219 95q-240 66 -338 160q-99 94 -99 266t134 278t358 107q224 -1 346 -109t133 -290h-280q-17 86 -65 134t-153 48q-188 0 -188 -157q0 -74 54 -109t216 -82
q256 -74 354 -181q97 -109 97 -281t-129 -292t-375 -120t-385 113q-139 114 -151 319h282q35 -211 252 -211z" />
    <glyph glyph-name="uni0219" unicode="&#x219;" horiz-adv-x="985" 
d="M528 -530h-247q74 176 90 411h280q-23 -253 -123 -411zM86 762q0 123 94 221t301 98t309 -90t111 -233h-270q-17 121 -145 121t-128 -93q0 -42 40 -68t155 -54q211 -54 294 -136t83 -228t-119 -232t-315 -86t-313 87q-116 87 -132 257h273q20 -144 176 -144t155 107
q0 49 -46 78t-212 75q-167 46 -239 121q-72 76 -72 199z" />
    <glyph glyph-name="uni021A" unicode="&#x21a;" horiz-adv-x="1120" 
d="M575 -530h-247q74 176 90 411h280q-23 -253 -123 -411zM416 0v1167h-379v236h1048v-236h-380v-1167h-289z" />
    <glyph glyph-name="uni021B" unicode="&#x21b;" horiz-adv-x="661" 
d="M389 -530h-248q74 176 90 411h281q-23 -253 -123 -411zM8 844v217h150v287h276v-287h189v-217h-189v-545q0 -57 27 -86t141 -12v-191q-62 -20 -192 -20t-191 64t-61 214v576h-150z" />
    <glyph glyph-name="uni0237" unicode="&#x237;" horiz-adv-x="540" 
d="M131 1061h279v-1047q0 -116 -10 -186q-26 -172 -143 -223q-67 -29 -147 -29t-116 6v228q71 -7 90 3q20 11 34 24t13 49v1175z" />
    <glyph glyph-name="uni0251" unicode="&#x251;" horiz-adv-x="1185" 
d="M780 535q0 151 -44 235t-154 84t-174 -80q-62 -80 -62 -234q0 -155 55 -245t154 -90q225 0 225 330zM1047 1061v-766q0 -188 14 -295h-270q-20 47 -21 127q-80 -147 -287 -147t-313 148t-106 393t123 403q125 158 321 158t260 -109l10 88h269z" />
    <glyph glyph-name="uni0259" unicode="&#x259;" horiz-adv-x="1079" 
d="M715 412h-400q8 -223 197 -224q106 0 152 67q45 67 51 157zM719 594q0 112 -49 190t-158 78q-137 0 -182 -127h-273q100 344 463 344q242 0 361 -148t119 -381t-110 -391q-56 -81 -154 -130t-228 -49q-257 0 -360 156t-103 372q0 53 4 86h670z" />
    <glyph glyph-name="uni0261" unicode="&#x261;" horiz-adv-x="1171" 
d="M356 552q0 -148 56 -230t166 -82q108 0 156 72t48 235q0 165 -40 235t-152 70t-174 -76q-60 -76 -60 -224zM1047 104q-1 -528 -487 -528q-248 0 -355 99q-106 99 -117 243h274q29 -129 199 -129q125 0 169 71t44 226v66q-74 -140 -274 -140t-316 142q-114 142 -114 388
q0 245 128 392t324 147t246 -118q0 37 12 98h271q-4 -107 -4 -320v-637z" />
    <glyph glyph-name="uni02BB" unicode="&#x2bb;" horiz-adv-x="735" 
d="M446 954h-241q4 131 36 283t85 254h206q-86 -268 -86 -537z" />
    <glyph glyph-name="uni02BC" unicode="&#x2bc;" horiz-adv-x="735" 
d="M291 1491h241q-4 -131 -36 -283t-84 -254h-207q86 268 86 537z" />
    <glyph glyph-name="uni02BE" unicode="&#x2be;" horiz-adv-x="661" 
d="M289 1348q0 66 -84 71v135q104 0 178 -53t74 -153t-74 -154t-178 -53v135q84 6 84 72z" />
    <glyph glyph-name="uni02BF" unicode="&#x2bf;" horiz-adv-x="661" 
d="M457 1141q-104 0 -178 54q-74 55 -74 155t74 152t178 52v-133q-84 -7 -84 -71t84 -74v-135z" />
    <glyph glyph-name="circumflex" unicode="&#x2c6;" 
d="M260 1489h303l205 -303h-260l-100 149l-95 -149h-260z" />
    <glyph glyph-name="caron" unicode="&#x2c7;" 
d="M561 1186h-303l-205 303h260l101 -150l94 150h260z" />
    <glyph glyph-name="uni02C8" unicode="&#x2c8;" horiz-adv-x="657" 
d="M453 1139h-248v385h248v-385z" />
    <glyph glyph-name="uni02C9" unicode="&#x2c9;" horiz-adv-x="1015" 
d="M205 1444h604v-209h-604v209z" />
    <glyph glyph-name="uni02CA" unicode="&#x2ca;" horiz-adv-x="937" 
d="M436 1511h326l-301 -301h-242z" />
    <glyph glyph-name="uni02CB" unicode="&#x2cb;" horiz-adv-x="944" 
d="M180 1511h328l215 -301h-238z" />
    <glyph glyph-name="uni02CC" unicode="&#x2cc;" horiz-adv-x="657" 
d="M453 -500h-248v385h248v-385z" />
    <glyph glyph-name="breve" unicode="&#x2d8;" 
d="M412 1360q59 0 84 26t39 78h198q-16 -131 -96 -216q-79 -85 -231 -85t-232 87t-86 214h201q25 -104 123 -104z" />
    <glyph glyph-name="dotaccent" unicode="&#x2d9;" 
d="M549 1225h-277v256h277v-256z" />
    <glyph glyph-name="ring" unicode="&#x2da;" 
d="M313 1341q0 -37 24 -63t72 -27q47 0 73 26q26 25 26 63t-26 64t-74 26t-71 -26q-24 -26 -24 -63zM410 1133q-113 0 -179 58t-65 148q0 90 65 149q66 58 181 58q116 0 180 -56t64 -148t-67 -151q-66 -58 -179 -58z" />
    <glyph glyph-name="ogonek" unicode="&#x2db;" 
d="M551 -281q49 0 94 13l17 -174q-70 -37 -193 -37t-198 61q-75 60 -75 154t54 177q53 83 147 144l181 -57q-131 -86 -132 -186q0 -43 28 -69t77 -26z" />
    <glyph glyph-name="tilde" unicode="&#x2dc;" 
d="M252 1204h-189v64q0 221 189 221q74 0 164 -42t112 -42q45 0 45 70v16h185v-45q0 -246 -203 -246q-70 0 -157 41t-109 41q-37 0 -37 -47v-31z" />
    <glyph glyph-name="hungarumlaut" unicode="&#x2dd;" 
d="M694 1167h-229l194 301h285zM283 1167h-230l193 301h289z" />
    <glyph glyph-name="uni0300" unicode="&#x300;" horiz-adv-x="0" 
d="M-276 1511h327l215 -301h-237z" />
    <glyph glyph-name="uni0301" unicode="&#x301;" horiz-adv-x="0" 
d="M-47 1511h326l-302 -301h-241z" />
    <glyph glyph-name="uni0302" unicode="&#x302;" horiz-adv-x="0" 
d="M-150 1489h304l204 -303h-260l-100 149l-94 -149h-260z" />
    <glyph glyph-name="uni0303" unicode="&#x303;" horiz-adv-x="0" 
d="M-158 1204h-188v64q0 221 188 221q74 0 164 -42t113 -42q45 0 45 70v16h184v-45q0 -246 -203 -246q-71 0 -157 41t-109 41q-37 0 -37 -47v-31z" />
    <glyph glyph-name="uni0304" unicode="&#x304;" horiz-adv-x="0" 
d="M-301 1444h604v-209h-604v209z" />
    <glyph glyph-name="uni0306" unicode="&#x306;" horiz-adv-x="0" 
d="M2 1360q59 0 84 26t39 78h199q-16 -131 -96 -216t-232 -85t-232 87t-86 214h201q25 -104 123 -104z" />
    <glyph glyph-name="uni0307" unicode="&#x307;" horiz-adv-x="0" 
d="M139 1225h-276v256h276v-256z" />
    <glyph glyph-name="uni0308" unicode="&#x308;" horiz-adv-x="0" 
d="M299 1223h-221v256h221v-256zM-80 1223h-219v256h219v-256z" />
    <glyph glyph-name="uni0309" unicode="&#x309;" horiz-adv-x="0" 
d="M-14 1595q124 0 190 -53q64 -53 64 -139q0 -117 -117 -215h-225q57 55 77 87t21 68q0 59 -62 59t-118 -30l-56 160q102 63 226 63z" />
    <glyph glyph-name="uni030A" unicode="&#x30a;" horiz-adv-x="0" 
d="M-1 1251q48 0 74 26q25 25 25 63t-25 64q-26 26 -74 26t-72 -26q-23 -26 -23 -63t24 -63t71 -27zM-244 1339q0 91 66 149t180 58t180 -56q64 -56 64 -148t-66 -151q-66 -58 -180 -58q-112 0 -178 58t-66 148z" />
    <glyph glyph-name="uni030B" unicode="&#x30b;" horiz-adv-x="0" 
d="M205 1167h-230l195 301h285zM-207 1167h-229l192 301h289z" />
    <glyph glyph-name="uni030C" unicode="&#x30c;" horiz-adv-x="0" 
d="M152 1186h-304l-204 303h260l100 -150l94 150h260z" />
    <glyph glyph-name="uni031B" unicode="&#x31b;" horiz-adv-x="0" 
d="M170 1195q0 -97 -60 -175t-192 -92l-82 190q102 10 103 96q0 68 -25 138h233q23 -61 23 -157z" />
    <glyph glyph-name="uni0323" unicode="&#x323;" horiz-adv-x="0" 
d="M150 -410h-297v285h297v-285z" />
    <glyph glyph-name="uni0324" unicode="&#x324;" horiz-adv-x="0" 
d="M299 -420h-221v256h221v-256zM-80 -420h-219v256h219v-256z" />
    <glyph glyph-name="uni0326" unicode="&#x326;" horiz-adv-x="0" 
d="M39 -528h-248q74 176 90 411h281q-23 -253 -123 -411z" />
    <glyph glyph-name="uni0327" unicode="&#x327;" horiz-adv-x="0" 
d="M-57 -487q-111 0 -164 22l12 150q61 -14 113 -15q94 0 94 51q0 63 -182 72v68l118 159l193 -20l-72 -88q184 -43 185 -188q0 -211 -297 -211z" />
    <glyph glyph-name="uni0328" unicode="&#x328;" horiz-adv-x="0" 
d="M0 -186q0 -43 28 -69t76 -26t95 13l16 -174q-70 -37 -193 -37q-124 0 -198 61q-74 60 -74 154t53 177q54 83 148 144l180 -57q-131 -86 -131 -186z" />
    <glyph glyph-name="uni032E" unicode="&#x32e;" horiz-adv-x="0" 
d="M2 -227q59 -1 84 25t39 79h199q-16 -131 -96 -216t-232 -85t-232 87t-86 214h201q25 -104 123 -104z" />
    <glyph glyph-name="uni0331" unicode="&#x331;" horiz-adv-x="0" 
d="M-301 -160h604v-209h-604v209z" />
    <glyph glyph-name="pi" unicode="&#x3c0;" horiz-adv-x="1128" 
d="M696 0v842h-266v-842h-276v842q-78 0 -140 -6v211q59 14 322 14h770v-219h-131v-842h-279z" />
    <glyph glyph-name="uni1E0C" unicode="&#x1e0c;" horiz-adv-x="1388" 
d="M793 -410h-297v285h297v-285zM440 1174v-949h185q184 0 281 131q98 132 98 354t-94 343t-283 121h-187zM152 0v1403h487q315 0 488 -179t173 -508q0 -328 -177 -522t-494 -194h-477z" />
    <glyph glyph-name="uni1E0D" unicode="&#x1e0d;" horiz-adv-x="1185" 
d="M741 -410h-297v285h297v-285zM346 538q0 -333 227 -333q119 0 163 80t44 253q0 172 -44 244t-156 72t-174 -80q-60 -80 -60 -236zM768 1489h279v-1194q0 -172 4 -295h-271q-10 72 -10 125q-78 -145 -287 -145t-314 148t-105 396t122 403q123 155 327 155t255 -99v506z
" />
    <glyph glyph-name="uni1E0E" unicode="&#x1e0e;" horiz-adv-x="1388" 
d="M342 -158h604v-209h-604v209zM440 1174v-949h185q184 0 281 131q98 132 98 354t-94 343t-283 121h-187zM152 0v1403h487q315 0 488 -179t173 -508q0 -328 -177 -522t-494 -194h-477z" />
    <glyph glyph-name="uni1E0F" unicode="&#x1e0f;" horiz-adv-x="1185" 
d="M291 -160h604v-209h-604v209zM346 538q0 -333 227 -333q119 0 163 80t44 253q0 172 -44 244t-156 72t-174 -80q-60 -80 -60 -236zM768 1489h279v-1194q0 -172 4 -295h-271q-10 72 -10 125q-78 -145 -287 -145t-314 148t-105 396t122 403q123 155 327 155t255 -99v506z
" />
    <glyph glyph-name="uni1E20" unicode="&#x1e20;" horiz-adv-x="1398" 
d="M389 1755h619v-205h-619v205zM1270 784v-784h-211q-16 76 -21 164q-96 -184 -376 -184t-428 198q-146 199 -146 514t171 522t470 207q240 -1 377 -117t166 -303h-281q-57 190 -278 191q-172 0 -252 -140t-80 -358t82 -352q82 -135 250 -135q272 0 272 328v6h-293v243h578
z" />
    <glyph glyph-name="uni1E21" unicode="&#x1e21;" horiz-adv-x="1171" 
d="M285 1444h604v-209h-604v209zM356 552q0 -148 56 -230t166 -82q108 0 156 72t48 235q0 165 -40 235t-152 70t-174 -76q-60 -76 -60 -224zM1047 104q-1 -528 -487 -528q-248 0 -355 99q-106 99 -117 243h274q29 -129 199 -129q125 0 169 71t44 226v66q-74 -140 -274 -140
t-316 142q-114 142 -114 388q0 245 128 392t324 147t246 -118q0 37 12 98h271q-4 -107 -4 -320v-637z" />
    <glyph glyph-name="uni1E24" unicode="&#x1e24;" horiz-adv-x="1388" 
d="M844 -389h-297v285h297v-285zM152 0v1403h286v-553h512v553h287v-1403h-287v612h-512v-612h-286z" />
    <glyph glyph-name="uni1E25" unicode="&#x1e25;" horiz-adv-x="1169" 
d="M733 -410h-297v285h297v-285zM131 1489h279v-557q84 150 295 149q153 0 243 -93t90 -292v-696h-274v653q0 199 -168 199q-186 0 -186 -262v-590h-279v1489z" />
    <glyph glyph-name="uni1E2A" unicode="&#x1e2a;" horiz-adv-x="1388" 
d="M690 -406q-152 0 -232 88t-85 214h200q25 -104 123 -105q59 0 84 26t39 79h199q-16 -130 -96 -216t-232 -86zM152 0v1403h286v-553h512v553h287v-1403h-287v612h-512v-612h-286z" />
    <glyph glyph-name="uni1E2B" unicode="&#x1e2b;" horiz-adv-x="1169" 
d="M586 -227q59 -1 84 25t39 79h198q-16 -131 -96 -216q-79 -85 -231 -85t-232 87t-86 214h201q25 -104 123 -104zM131 1489h279v-557q84 150 295 149q153 0 243 -93t90 -292v-696h-274v653q0 199 -168 199q-186 0 -186 -262v-590h-279v1489z" />
    <glyph glyph-name="uni1E36" unicode="&#x1e36;" horiz-adv-x="1081" 
d="M754 -408h-297v285h297v-285zM152 0v1403h286v-1167h627l-33 -236h-880z" />
    <glyph glyph-name="uni1E37" unicode="&#x1e37;" horiz-adv-x="540" 
d="M420 -410h-297v285h297v-285zM410 0h-279v1489h279v-1489z" />
    <glyph glyph-name="uni1E38" unicode="&#x1e38;" horiz-adv-x="1081" 
d="M-8 1753h618v-205h-618v205zM754 -408h-297v285h297v-285zM152 0v1403h286v-1167h627l-33 -236h-880z" />
    <glyph glyph-name="uni1E39" unicode="&#x1e39;" horiz-adv-x="540" 
d="M420 -410h-297v285h297v-285zM-31 1825h604v-209h-604v209zM410 0h-279v1489h279v-1489z" />
    <glyph glyph-name="uni1E3A" unicode="&#x1e3a;" horiz-adv-x="1081" 
d="M283 -166h604v-209h-604v209zM152 0v1403h286v-1167h627l-33 -236h-880z" />
    <glyph glyph-name="uni1E3B" unicode="&#x1e3b;" horiz-adv-x="540" 
d="M-31 -137h604v-209h-604v209zM410 0h-279v1489h279v-1489z" />
    <glyph glyph-name="uni1E42" unicode="&#x1e42;" horiz-adv-x="1705" 
d="M977 -410h-297v285h297v-285zM1278 0v524q0 420 10 682h-10q-100 -457 -328 -1206h-248q-205 756 -294 1210h-13q18 -246 19 -710v-500h-262v1403h428q74 -244 154 -556t110 -474h2q31 186 297 1030h411v-1403h-276z" />
    <glyph glyph-name="uni1E43" unicode="&#x1e43;" horiz-adv-x="1751" 
d="M1010 -410h-297v285h297v-285zM131 0v731q0 231 -4 330h270q4 -31 9 -127q94 147 294 147t265 -166q39 70 123 118t212 48t224 -89t96 -281v-711h-272v666q0 186 -154 186q-180 0 -180 -248v-604h-273v674q0 78 -38 128q-39 50 -123 50q-174 0 -174 -262v-590h-275z" />
    <glyph glyph-name="uni1E44" unicode="&#x1e44;" horiz-adv-x="1423" 
d="M854 1526h-285v260h285v-260zM412 0h-260v1403h364q485 -991 506 -1061h4q-16 193 -16 627v434h262v-1403h-350q-479 1004 -519 1106h-2q10 -178 11 -672v-434z" />
    <glyph glyph-name="uni1E45" unicode="&#x1e45;" horiz-adv-x="1169" 
d="M723 1225h-277v256h277v-256zM131 0v729q0 238 -4 332h270q10 -51 11 -137q36 68 112 112t182 45q166 0 251 -101t85 -286v-694h-278v641q0 99 -35 155t-129 56t-140 -61t-46 -199v-592h-279z" />
    <glyph glyph-name="uni1E46" unicode="&#x1e46;" horiz-adv-x="1423" 
d="M860 -408h-297v285h297v-285zM412 0h-260v1403h364q485 -991 506 -1061h4q-16 193 -16 627v434h262v-1403h-350q-479 1004 -519 1106h-2q10 -178 11 -672v-434z" />
    <glyph glyph-name="uni1E47" unicode="&#x1e47;" horiz-adv-x="1169" 
d="M733 -410h-297v285h297v-285zM131 0v729q0 238 -4 332h270q10 -51 11 -137q36 68 112 112t182 45q166 0 251 -101t85 -286v-694h-278v641q0 99 -35 155t-129 56t-140 -61t-46 -199v-592h-279z" />
    <glyph glyph-name="uni1E48" unicode="&#x1e48;" horiz-adv-x="1423" 
d="M410 -160h604v-209h-604v209zM412 0h-260v1403h364q485 -991 506 -1061h4q-16 193 -16 627v434h262v-1403h-350q-479 1004 -519 1106h-2q10 -178 11 -672v-434z" />
    <glyph glyph-name="uni1E49" unicode="&#x1e49;" horiz-adv-x="1169" 
d="M283 -160h604v-209h-604v209zM131 0v729q0 238 -4 332h270q10 -51 11 -137q36 68 112 112t182 45q166 0 251 -101t85 -286v-694h-278v641q0 99 -35 155t-129 56t-140 -61t-46 -199v-592h-279z" />
    <glyph glyph-name="uni1E5A" unicode="&#x1e5a;" horiz-adv-x="1275" 
d="M784 -406h-297v285h297v-285zM895 999q0 177 -209 177h-254v-369h213q250 0 250 192zM623 580h-191v-580h-280v1403h571q205 0 330 -99t125 -280q0 -244 -220 -328q102 -41 146 -123t45 -215v-36q0 -205 18 -322h-276q-27 78 -27 326v36q0 122 -52 170t-189 48z" />
    <glyph glyph-name="uni1E5B" unicode="&#x1e5b;" horiz-adv-x="757" 
d="M418 -410h-297v285h297v-285zM131 0v700q0 287 -4 361h270q8 -63 9 -187q33 82 111 143q79 60 210 60v-282q-170 4 -244 -66t-73 -248v-481h-279z" />
    <glyph glyph-name="uni1E5C" unicode="&#x1e5c;" horiz-adv-x="1275" 
d="M319 1753h619v-205h-619v205zM784 -408h-297v285h297v-285zM895 999q0 177 -209 177h-254v-369h213q250 0 250 192zM623 580h-191v-580h-280v1403h571q205 0 330 -99t125 -280q0 -244 -220 -328q102 -41 146 -123t45 -215v-36q0 -205 18 -322h-276q-27 78 -27 326v36
q0 122 -52 170t-189 48z" />
    <glyph glyph-name="uni1E5D" unicode="&#x1e5d;" horiz-adv-x="757" 
d="M418 -410h-297v285h297v-285zM121 1444h604v-209h-604v209zM131 0v700q0 287 -4 361h270q8 -63 9 -187q33 82 111 143q79 60 210 60v-282q-170 4 -244 -66t-73 -248v-481h-279z" />
    <glyph glyph-name="uni1E5E" unicode="&#x1e5e;" horiz-adv-x="1275" 
d="M334 -158h604v-209h-604v209zM895 999q0 177 -209 177h-254v-369h213q250 0 250 192zM623 580h-191v-580h-280v1403h571q205 0 330 -99t125 -280q0 -244 -220 -328q102 -41 146 -123t45 -215v-36q0 -205 18 -322h-276q-27 78 -27 326v36q0 122 -52 170t-189 48z" />
    <glyph glyph-name="uni1E5F" unicode="&#x1e5f;" horiz-adv-x="757" 
d="M-23 -160h605v-209h-605v209zM131 0v700q0 287 -4 361h270q8 -63 9 -187q33 82 111 143q79 60 210 60v-282q-170 4 -244 -66t-73 -248v-481h-279z" />
    <glyph glyph-name="uni1E60" unicode="&#x1e60;" horiz-adv-x="1183" 
d="M735 1544h-284v260h284v-260zM602 203q217 0 217 170q0 92 -61 142t-219 95q-240 66 -338 160q-99 94 -99 266t134 278t358 107q224 -1 346 -109t133 -290h-280q-17 86 -65 134t-153 48q-188 0 -188 -157q0 -74 54 -109t216 -82q256 -74 354 -181q97 -109 97 -281
t-129 -292t-375 -120t-385 113q-139 114 -151 319h282q35 -211 252 -211z" />
    <glyph glyph-name="uni1E61" unicode="&#x1e61;" horiz-adv-x="985" 
d="M631 1225h-277v256h277v-256zM86 762q0 123 94 221t301 98t309 -90t111 -233h-270q-17 121 -145 121t-128 -93q0 -42 40 -68t155 -54q211 -54 294 -136t83 -228t-119 -232t-315 -86t-313 87q-116 87 -132 257h273q20 -144 176 -144t155 107q0 49 -46 78t-212 75
q-167 46 -239 121q-72 76 -72 199z" />
    <glyph glyph-name="uni1E62" unicode="&#x1e62;" horiz-adv-x="1183" 
d="M741 -410h-297v285h297v-285zM602 203q217 0 217 170q0 92 -61 142t-219 95q-240 66 -338 160q-99 94 -99 266t134 278t358 107q224 -1 346 -109t133 -290h-280q-17 86 -65 134t-153 48q-188 0 -188 -157q0 -74 54 -109t216 -82q256 -74 354 -181q97 -109 97 -281
t-129 -292t-375 -120t-385 113q-139 114 -151 319h282q35 -211 252 -211z" />
    <glyph glyph-name="uni1E63" unicode="&#x1e63;" horiz-adv-x="985" 
d="M641 -410h-297v285h297v-285zM86 762q0 123 94 221t301 98t309 -90t111 -233h-270q-17 121 -145 121t-128 -93q0 -42 40 -68t155 -54q211 -54 294 -136t83 -228t-119 -232t-315 -86t-313 87q-116 87 -132 257h273q20 -144 176 -144t155 107q0 49 -46 78t-212 75
q-167 46 -239 121q-72 76 -72 199z" />
    <glyph glyph-name="uni1E6C" unicode="&#x1e6c;" horiz-adv-x="1120" 
d="M709 -410h-297v285h297v-285zM416 0v1167h-379v236h1048v-236h-380v-1167h-289z" />
    <glyph glyph-name="uni1E6D" unicode="&#x1e6d;" horiz-adv-x="661" 
d="M504 -410h-297v285h297v-285zM8 844v217h150v287h276v-287h189v-217h-189v-545q0 -57 27 -86t141 -12v-191q-62 -20 -192 -20t-191 64t-61 214v576h-150z" />
    <glyph glyph-name="uni1E6E" unicode="&#x1e6e;" horiz-adv-x="1120" 
d="M258 -156h604v-209h-604v209zM416 0v1167h-379v236h1048v-236h-380v-1167h-289z" />
    <glyph glyph-name="uni1E6F" unicode="&#x1e6f;" horiz-adv-x="661" 
d="M53 -160h604v-209h-604v209zM8 844v217h150v287h276v-287h189v-217h-189v-545q0 -57 27 -86t141 -12v-191q-62 -20 -192 -20t-191 64t-61 214v576h-150z" />
    <glyph glyph-name="Wgrave" unicode="&#x1e80;" horiz-adv-x="1798" 
d="M475 1810h354l220 -284h-265zM657 0h-297l-329 1403h305q150 -745 188 -1079h2q29 147 126 550t126 529h258q203 -836 240 -1065h2q27 186 118 618t93 447h280l-352 -1403h-297q-28 122 -114 490t-113 509h-2q-35 -178 -234 -999z" />
    <glyph glyph-name="wgrave" unicode="&#x1e81;" horiz-adv-x="1570" 
d="M399 1511h328l215 -301h-237zM25 1061h297q158 -745 161 -770h4q8 43 185 770h250q162 -629 178 -764h2q14 86 170 764h276l-315 -1061h-279q-27 113 -92 371t-76 329h-2q-27 -156 -180 -700h-280z" />
    <glyph glyph-name="Wacute" unicode="&#x1e82;" horiz-adv-x="1798" 
d="M1010 1810h344l-330 -284h-254zM657 0h-297l-329 1403h305q150 -745 188 -1079h2q29 147 126 550t126 529h258q203 -836 240 -1065h2q27 186 118 618t93 447h280l-352 -1403h-297q-28 122 -114 490t-113 509h-2q-35 -178 -234 -999z" />
    <glyph glyph-name="wacute" unicode="&#x1e83;" horiz-adv-x="1570" 
d="M860 1511h326l-301 -301h-242zM25 1061h297q158 -745 161 -770h4q8 43 185 770h250q162 -629 178 -764h2q14 86 170 764h276l-315 -1061h-279q-27 113 -92 371t-76 329h-2q-27 -156 -180 -700h-280z" />
    <glyph glyph-name="Wdieresis" unicode="&#x1e84;" horiz-adv-x="1798" 
d="M1231 1528h-227v260h227v-260zM815 1528h-227v260h227v-260zM657 0h-297l-329 1403h305q150 -745 188 -1079h2q29 147 126 550t126 529h258q203 -836 240 -1065h2q27 186 118 618t93 447h280l-352 -1403h-297q-28 122 -114 490t-113 509h-2q-35 -178 -234 -999z" />
    <glyph glyph-name="wdieresis" unicode="&#x1e85;" horiz-adv-x="1570" 
d="M1085 1223h-221v256h221v-256zM707 1223h-220v256h220v-256zM25 1061h297q158 -745 161 -770h4q8 43 185 770h250q162 -629 178 -764h2q14 86 170 764h276l-315 -1061h-279q-27 113 -92 371t-76 329h-2q-27 -156 -180 -700h-280z" />
    <glyph glyph-name="uni1E8E" unicode="&#x1e8e;" horiz-adv-x="1159" 
d="M727 1528h-285v260h285v-260zM721 537v-537h-285v528q0 29 -12 45l-444 830h321q29 -61 143 -298t148 -312l291 610h297l-447 -823q-12 -18 -12 -43z" />
    <glyph glyph-name="uni1E8F" unicode="&#x1e8f;" horiz-adv-x="1026" 
d="M647 1225h-276v256h276v-256zM248 -424q-58 0 -123 8v228q43 -6 96 -7q119 0 162 146l-371 1110h295q199 -719 213 -819h2q49 225 213 819h279l-361 -1106q-83 -250 -181 -314q-98 -65 -224 -65z" />
    <glyph glyph-name="uni1E92" unicode="&#x1e92;" horiz-adv-x="1169" 
d="M733 -422h-297v285h297v-285zM47 0v205l696 962h-661v236h997v-232l-680 -935h717l-37 -236h-1032z" />
    <glyph glyph-name="uni1E93" unicode="&#x1e93;" horiz-adv-x="933" 
d="M616 -410h-297v285h297v-285zM55 0v209q223 266 508 633h-477v219h788v-217q-80 -102 -250 -318t-245 -309h528l-33 -217h-819z" />
    <glyph glyph-name="uni1E97" unicode="&#x1e97;" horiz-adv-x="661" 
d="M594 1452h-221v256h221v-256zM215 1452h-219v256h219v-256zM8 844v217h150v287h276v-287h189v-217h-189v-545q0 -57 27 -86t141 -12v-191q-62 -20 -192 -20t-191 64t-61 214v576h-150z" />
    <glyph glyph-name="uni1E9E" unicode="&#x1e9e;" horiz-adv-x="1331" 
d="M438 993v-993h-284v991q0 430 505 430q139 0 243 -35t158 -92q109 -112 107 -256q0 -29 -4 -57l-268 -190v-11l109 -69q121 -78 177 -162t56 -205q0 -162 -110 -263t-292 -101t-292 55v260q111 -88 262 -88q73 0 111 33t38 84t-26 86q-27 35 -101 82l-202 126
q-74 47 -74 123t74 127l254 174q1 72 -53 116t-171 44q-217 0 -217 -209z" />
    <glyph glyph-name="uni1EA0" unicode="&#x1ea0;" horiz-adv-x="1275" 
d="M786 -389h-297v285h297v-285zM446 569h353q-152 500 -181 617h-2q-41 -191 -170 -617zM856 334h-465l-98 -334h-281q8 28 213 700t215 703h371l451 -1403h-299z" />
    <glyph glyph-name="uni1EA1" unicode="&#x1ea1;" horiz-adv-x="1099" 
d="M700 -410h-297v285h297v-285zM705 453v22h-130q-225 0 -225 -147q0 -60 37 -98t113 -37q117 -1 161 67t44 193zM969 731v-457q0 -168 14 -274h-244q-10 41 -16 129q-74 -147 -297 -147q-182 0 -268 94t-86 240t119 241q120 96 380 96h125v78q0 74 -32 114q-33 40 -118 40
t-121 -37t-44 -105h-268q8 145 109 241t327 97q420 0 420 -350z" />
    <glyph glyph-name="uni1EA2" unicode="&#x1ea2;" horiz-adv-x="1275" 
d="M606 1671q0 59 -62 59t-118 -30l-55 160q102 63 226 63q125 0 189 -53t64 -139q0 -117 -117 -215h-225q57 55 78 87q20 32 20 68zM446 569h353q-152 500 -181 617h-2q-41 -191 -170 -617zM856 334h-465l-98 -334h-281q8 28 213 700t215 703h371l451 -1403h-299z" />
    <glyph glyph-name="uni1EA3" unicode="&#x1ea3;" horiz-adv-x="1099" 
d="M538 1595q124 0 188 -53t65 -139q0 -117 -117 -215h-225q57 55 77 87t21 68q-1 59 -63 59t-117 -30l-56 160q103 63 227 63zM705 453v22h-130q-225 0 -225 -147q0 -60 37 -98t113 -37q117 -1 161 67t44 193zM969 731v-457q0 -168 14 -274h-244q-10 41 -16 129
q-74 -147 -297 -147q-182 0 -268 94t-86 240t119 241q120 96 380 96h125v78q0 74 -32 114q-33 40 -118 40t-121 -37t-44 -105h-268q8 145 109 241t327 97q420 0 420 -350z" />
    <glyph glyph-name="uni1EA4" unicode="&#x1ea4;" horiz-adv-x="1275" 
d="M1087 1946h322l-272 -238h-228zM483 1759h310l227 -248h-268l-115 123l-111 -123h-274zM446 569h353q-152 500 -181 617h-2q-41 -191 -170 -617zM856 334h-465l-98 -334h-281q8 28 213 700t215 703h371l451 -1403h-299z" />
    <glyph glyph-name="uni1EA5" unicode="&#x1ea5;" horiz-adv-x="1099" 
d="M961 1681h266l-254 -272h-199zM410 1448h284l205 -266h-242l-108 137l-107 -137h-241zM705 453v22h-130q-225 0 -225 -147q0 -60 37 -98t113 -37q117 -1 161 67t44 193zM969 731v-457q0 -168 14 -274h-244q-10 41 -16 129q-74 -147 -297 -147q-182 0 -268 94t-86 240
t119 241q120 96 380 96h125v78q0 74 -32 114q-33 40 -118 40t-121 -37t-44 -105h-268q8 145 109 241t327 97q420 0 420 -350z" />
    <glyph glyph-name="uni1EA6" unicode="&#x1ea6;" horiz-adv-x="1275" 
d="M782 1939h318l182 -235h-233zM485 1755h310l227 -248h-268l-115 123l-111 -123h-274zM446 569h353q-152 500 -181 617h-2q-41 -191 -170 -617zM856 334h-465l-98 -334h-281q8 28 213 700t215 703h371l451 -1403h-299z" />
    <glyph glyph-name="uni1EA7" unicode="&#x1ea7;" horiz-adv-x="1099" 
d="M651 1673h283l205 -280h-215zM410 1448h284l205 -266h-242l-108 137l-107 -137h-241zM705 453v22h-130q-225 0 -225 -147q0 -60 37 -98t113 -37q117 -1 161 67t44 193zM969 731v-457q0 -168 14 -274h-244q-10 41 -16 129q-74 -147 -297 -147q-182 0 -268 94t-86 240
t119 241q120 96 380 96h125v78q0 74 -32 114q-33 40 -118 40t-121 -37t-44 -105h-268q8 145 109 241t327 97q420 0 420 -350z" />
    <glyph glyph-name="uni1EA8" unicode="&#x1ea8;" horiz-adv-x="1275" 
d="M483 1755h310l227 -248h-268l-115 123l-111 -123h-274zM1044 1837q0 47 -65 47q-43 0 -107 -37l-51 121q85 78 197 78t166 -47t53 -129q0 -82 -102 -164h-181q90 76 90 131zM446 569h353q-152 500 -181 617h-2q-41 -191 -170 -617zM856 334h-465l-98 -334h-281
q8 28 213 700t215 703h371l451 -1403h-299z" />
    <glyph glyph-name="uni1EA9" unicode="&#x1ea9;" horiz-adv-x="1099" 
d="M410 1448h284l205 -266h-242l-108 137l-107 -137h-241zM938 1534q0 51 -57 51t-103 -33l-47 129q85 63 195 63q210 1 213 -165q-1 -114 -99 -180h-206q104 78 104 135zM705 453v22h-130q-225 0 -225 -147q0 -60 37 -98t113 -37q117 -1 161 67t44 193zM969 731v-457
q0 -168 14 -274h-244q-10 41 -16 129q-74 -147 -297 -147q-182 0 -268 94t-86 240t119 241q120 96 380 96h125v78q0 74 -32 114q-33 40 -118 40t-121 -37t-44 -105h-268q8 145 109 241t327 97q420 0 420 -350z" />
    <glyph glyph-name="uni1EAA" unicode="&#x1eaa;" horiz-adv-x="1275" 
d="M469 1696h317l232 -213h-273l-118 102l-111 -102h-280zM426 1765h-158v21q0 209 185 209q73 0 181 -33t154 -33t48 49v11h155v-27q0 -111 -44 -155t-121 -44q-76 0 -196 31t-157 31q-47 0 -47 -49v-11zM446 569h353q-152 500 -181 617h-2q-41 -191 -170 -617zM856 334
h-465l-98 -334h-281q8 28 213 700t215 703h371l451 -1403h-299z" />
    <glyph glyph-name="uni1EAB" unicode="&#x1eab;" horiz-adv-x="1099" 
d="M397 1386h310l227 -229h-268l-119 115l-113 -115h-262zM395 1475h-155v22q0 205 170 205q66 0 148 -33t104 -33q51 0 51 50v12h151v-27q0 -199 -172 -198q-55 -1 -138 31t-110 32q-49 0 -49 -49v-12zM705 453v22h-130q-225 0 -225 -147q0 -60 37 -98t113 -37
q117 -1 161 67t44 193zM969 731v-457q0 -168 14 -274h-244q-10 41 -16 129q-74 -147 -297 -147q-182 0 -268 94t-86 240t119 241q120 96 380 96h125v78q0 74 -32 114q-33 40 -118 40t-121 -37t-44 -105h-268q8 145 109 241t327 97q420 0 420 -350z" />
    <glyph glyph-name="uni1EAC" unicode="&#x1eac;" horiz-adv-x="1275" 
d="M481 1784h316l219 -285h-266l-113 146l-111 -146h-268zM786 -387h-297v285h297v-285zM446 569h353q-152 500 -181 617h-2q-41 -191 -170 -617zM856 334h-465l-98 -334h-281q8 28 213 700t215 703h371l451 -1403h-299z" />
    <glyph glyph-name="uni1EAD" unicode="&#x1ead;" horiz-adv-x="1099" 
d="M401 1489h304l204 -303h-260l-100 149l-94 -149h-260zM700 -410h-297v285h297v-285zM705 453v22h-130q-225 0 -225 -147q0 -60 37 -98t113 -37q117 -1 161 67t44 193zM969 731v-457q0 -168 14 -274h-244q-10 41 -16 129q-74 -147 -297 -147q-182 0 -268 94t-86 240
t119 241q120 96 380 96h125v78q0 74 -32 114q-33 40 -118 40t-121 -37t-44 -105h-268q8 145 109 241t327 97q420 0 420 -350z" />
    <glyph glyph-name="uni1EAE" unicode="&#x1eae;" horiz-adv-x="1275" 
d="M690 2025h342l-289 -200h-260zM626 1679q112 0 146 90h207q-25 -115 -110 -191t-256 -77q-171 0 -248 86t-91 182h207q33 -90 145 -90zM446 569h353q-152 500 -181 617h-2q-41 -191 -170 -617zM856 334h-465l-98 -334h-281q8 28 213 700t215 703h371l451 -1403h-299z" />
    <glyph glyph-name="uni1EAF" unicode="&#x1eaf;" horiz-adv-x="1099" 
d="M627 1708h295l-265 -225h-231zM550 1163q-154 0 -234 78q-81 78 -99 189h201q24 -94 134 -94t136 94h197q-17 -117 -99 -192t-236 -75zM705 453v22h-130q-225 0 -225 -147q0 -60 37 -98t113 -37q117 -1 161 67t44 193zM969 731v-457q0 -168 14 -274h-244q-10 41 -16 129
q-74 -147 -297 -147q-182 0 -268 94t-86 240t119 241q120 96 380 96h125v78q0 74 -32 114q-33 40 -118 40t-121 -37t-44 -105h-268q8 145 109 241t327 97q420 0 420 -350z" />
    <glyph glyph-name="uni1EB0" unicode="&#x1eb0;" horiz-adv-x="1275" 
d="M211 2025h362l215 -200h-278zM636 1679q110 0 146 90h207q-25 -115 -109 -191t-247 -77q-244 0 -324 182q-18 43 -24 86h207q34 -90 144 -90zM446 569h353q-152 500 -181 617h-2q-41 -191 -170 -617zM856 334h-465l-98 -334h-281q8 28 213 700t215 703h371l451 -1403
h-299z" />
    <glyph glyph-name="uni1EB1" unicode="&#x1eb1;" horiz-adv-x="1099" 
d="M170 1704h328l194 -225h-250zM552 1331q110 0 136 94h197q-17 -117 -99 -191t-236 -75t-234 77q-81 78 -99 189h201q24 -94 134 -94zM705 453v22h-130q-225 0 -225 -147q0 -60 37 -98t113 -37q117 -1 161 67t44 193zM969 731v-457q0 -168 14 -274h-244q-10 41 -16 129
q-74 -147 -297 -147q-182 0 -268 94t-86 240t119 241q120 96 380 96h125v78q0 74 -32 114q-33 40 -118 40t-121 -37t-44 -105h-268q8 145 109 241t327 97q420 0 420 -350z" />
    <glyph glyph-name="uni1EB2" unicode="&#x1eb2;" horiz-adv-x="1275" 
d="M635 1667q115 0 147 92h211q-23 -115 -109 -193t-255 -77q-168 0 -251 83t-97 187h208q31 -92 146 -92zM568 1974q-54 0 -109 -30l-53 129q82 65 196 65t168 -47q53 -47 53 -132t-94 -163h-201q94 74 95 131q-1 47 -55 47zM446 569h353q-152 500 -181 617h-2
q-41 -191 -170 -617zM856 334h-465l-98 -334h-281q8 28 213 700t215 703h371l451 -1403h-299z" />
    <glyph glyph-name="uni1EB3" unicode="&#x1eb3;" horiz-adv-x="1099" 
d="M552 1333q110 0 136 94h197q-17 -117 -99 -191t-236 -75t-234 77q-81 78 -99 189h201q24 -94 134 -94zM547 1608q1 54 -59 53q-60 0 -103 -35l-47 125q80 70 192 70q210 0 209 -170q1 -113 -114 -181h-187q109 84 109 138zM705 453v22h-130q-225 0 -225 -147
q0 -60 37 -98t113 -37q117 -1 161 67t44 193zM969 731v-457q0 -168 14 -274h-244q-10 41 -16 129q-74 -147 -297 -147q-182 0 -268 94t-86 240t119 241q120 96 380 96h125v78q0 74 -32 114q-33 40 -118 40t-121 -37t-44 -105h-268q8 145 109 241t327 97q420 0 420 -350z" />
    <glyph glyph-name="uni1EB4" unicode="&#x1eb4;" horiz-adv-x="1275" 
d="M641 1665q104 0 143 88l220 -6q-68 -254 -371 -254q-164 0 -248 76t-113 178h226q39 -82 143 -82zM438 1835h-166v35q0 217 185 217q77 0 197 -37t141 -37q43 0 43 51v27h163v-39q0 -219 -188 -219q-69 0 -187 37t-145 37q-43 0 -43 -52v-20zM446 569h353
q-152 500 -181 617h-2q-41 -191 -170 -617zM856 334h-465l-98 -334h-281q8 28 213 700t215 703h371l451 -1403h-299z" />
    <glyph glyph-name="uni1EB5" unicode="&#x1eb5;" horiz-adv-x="1099" 
d="M554 1325q91 0 124 82h184q-14 -106 -94 -178t-218 -72t-216 74t-90 176h184q35 -82 126 -82zM395 1495h-155v23q0 205 170 204q66 0 148 -32t104 -31q51 0 51 47v12h151v-26q0 -197 -172 -197q-55 0 -138 32t-110 32q-49 0 -49 -52v-12zM705 453v22h-130
q-225 0 -225 -147q0 -60 37 -98t113 -37q117 -1 161 67t44 193zM969 731v-457q0 -168 14 -274h-244q-10 41 -16 129q-74 -147 -297 -147q-182 0 -268 94t-86 240t119 241q120 96 380 96h125v78q0 74 -32 114q-33 40 -118 40t-121 -37t-44 -105h-268q8 145 109 241t327 97
q420 0 420 -350z" />
    <glyph glyph-name="uni1EB6" unicode="&#x1eb6;" horiz-adv-x="1275" 
d="M631 1503q-164 0 -247 86t-93 211h203q10 -49 48 -81t95 -31q123 0 145 112h201q-18 -125 -103 -211t-249 -86zM786 -410h-297v285h297v-285zM446 569h353q-152 500 -181 617h-2q-41 -191 -170 -617zM856 334h-465l-98 -334h-281q8 28 213 700t215 703h371l451 -1403
h-299z" />
    <glyph glyph-name="uni1EB7" unicode="&#x1eb7;" horiz-adv-x="1099" 
d="M700 -410h-297v285h297v-285zM546 1182q-152 0 -231 87q-80 87 -86 214h201q25 -104 123 -105q59 0 84 26t39 79h198q-16 -131 -96 -216t-232 -85zM705 453v22h-130q-225 0 -225 -147q0 -60 37 -98t113 -37q117 -1 161 67t44 193zM969 731v-457q0 -168 14 -274h-244
q-10 41 -16 129q-74 -147 -297 -147q-182 0 -268 94t-86 240t119 241q120 96 380 96h125v78q0 74 -32 114q-33 40 -118 40t-121 -37t-44 -105h-268q8 145 109 241t327 97q420 0 420 -350z" />
    <glyph glyph-name="uni1EB8" unicode="&#x1eb8;" horiz-adv-x="1159" 
d="M788 -408h-296v285h296v-285zM1040 850v-238h-610v-376h674l-35 -236h-917v1403h915v-236h-637v-317h610z" />
    <glyph glyph-name="uni1EB9" unicode="&#x1eb9;" horiz-adv-x="1091" 
d="M694 -410h-297v285h297v-285zM557 872q-105 0 -151 -66t-52 -157h400q-8 223 -197 223zM350 467q0 -113 49 -191t158 -77q137 0 182 127h273q-100 -344 -463 -344q-242 0 -361 148q-118 148 -118 381t109 391q57 81 155 130t227 49q257 0 360 -156t103 -372q0 -53 -4 -86
h-670z" />
    <glyph glyph-name="uni1EBA" unicode="&#x1eba;" horiz-adv-x="1159" 
d="M518 1714q-53 0 -108 -31l-56 160q102 63 226 63t190 -52q64 -54 64 -140q0 -117 -117 -215h-225q57 55 77 87t21 69q0 59 -72 59zM1040 850v-238h-610v-376h674l-35 -236h-917v1403h915v-236h-637v-317h610z" />
    <glyph glyph-name="uni1EBB" unicode="&#x1ebb;" horiz-adv-x="1091" 
d="M536 1593q124 0 188 -53t64 -139q1 -117 -116 -215h-226q57 55 78 87q20 32 21 68q-1 59 -63 59t-117 -30l-56 160q103 63 227 63zM557 872q-105 0 -151 -66t-52 -157h400q-8 223 -197 223zM350 467q0 -113 49 -191t158 -77q137 0 182 127h273q-100 -344 -463 -344
q-242 0 -361 148q-118 148 -118 381t109 391q57 81 155 130t227 49q257 0 360 -156t103 -372q0 -53 -4 -86h-670z" />
    <glyph glyph-name="uni1EBC" unicode="&#x1ebc;" horiz-adv-x="1159" 
d="M436 1538h-184v72q0 209 192 209q68 0 176 -42t132 -42q53 0 53 69v19h182v-47q0 -244 -201 -244q-70 0 -171 42t-126 42q-53 0 -53 -49v-29zM1040 850v-238h-610v-376h674l-35 -236h-917v1403h915v-236h-637v-317h610z" />
    <glyph glyph-name="uni1EBD" unicode="&#x1ebd;" horiz-adv-x="1091" 
d="M389 1204h-188v64q0 221 188 221q74 0 164 -42t113 -42q45 0 45 70v16h184v-45q0 -246 -203 -246q-70 0 -156 41t-110 41q-37 0 -37 -47v-31zM557 872q-105 0 -151 -66t-52 -157h400q-8 223 -197 223zM350 467q0 -113 49 -191t158 -77q137 0 182 127h273
q-100 -344 -463 -344q-242 0 -361 148q-118 148 -118 381t109 391q57 81 155 130t227 49q257 0 360 -156t103 -372q0 -53 -4 -86h-670z" />
    <glyph glyph-name="uni1EBE" unicode="&#x1ebe;" horiz-adv-x="1159" 
d="M1049 1962h321l-272 -238h-228zM444 1776h310l227 -248h-268l-115 123l-111 -123h-274zM1040 850v-238h-610v-376h674l-35 -236h-917v1403h915v-236h-637v-317h610z" />
    <glyph glyph-name="uni1EBF" unicode="&#x1ebf;" horiz-adv-x="1091" 
d="M956 1681h267l-254 -272h-199zM406 1448h284l205 -266h-242l-108 137l-107 -137h-241zM557 872q-105 0 -151 -66t-52 -157h400q-8 223 -197 223zM350 467q0 -113 49 -191t158 -77q137 0 182 127h273q-100 -344 -463 -344q-242 0 -361 148q-118 148 -118 381t109 391
q57 81 155 130t227 49q257 0 360 -156t103 -372q0 -53 -4 -86h-670z" />
    <glyph glyph-name="uni1EC0" unicode="&#x1ec0;" horiz-adv-x="1159" 
d="M750 1960h317l182 -236h-233zM453 1776h309l227 -248h-268l-115 123l-110 -123h-275zM1040 850v-238h-610v-376h674l-35 -236h-917v1403h915v-236h-637v-317h610z" />
    <glyph glyph-name="uni1EC1" unicode="&#x1ec1;" horiz-adv-x="1091" 
d="M655 1673h283l205 -280h-215zM414 1448h284l205 -266h-241l-109 137l-107 -137h-241zM557 872q-105 0 -151 -66t-52 -157h400q-8 223 -197 223zM350 467q0 -113 49 -191t158 -77q137 0 182 127h273q-100 -344 -463 -344q-242 0 -361 148q-118 148 -118 381t109 391
q57 81 155 130t227 49q257 0 360 -156t103 -372q0 -53 -4 -86h-670z" />
    <glyph glyph-name="uni1EC2" unicode="&#x1ec2;" horiz-adv-x="1159" 
d="M444 1776h310l227 -248h-268l-115 123l-111 -123h-274zM940 1905q-43 0 -106 -37l-52 121q86 78 217 77q91 0 145 -47t54 -129t-102 -164h-181q90 76 91 132q0 47 -66 47zM1040 850v-238h-610v-376h674l-35 -236h-917v1403h915v-236h-637v-317h610z" />
    <glyph glyph-name="uni1EC3" unicode="&#x1ec3;" horiz-adv-x="1091" 
d="M406 1448h284l205 -266h-242l-108 137l-107 -137h-241zM876 1585q-58 0 -102 -33l-47 129q85 63 195 63q210 1 213 -165q-1 -114 -99 -180h-207q104 78 105 135q0 51 -58 51zM557 872q-105 0 -151 -66t-52 -157h400q-8 223 -197 223zM350 467q0 -113 49 -191t158 -77
q137 0 182 127h273q-100 -344 -463 -344q-242 0 -361 148q-118 148 -118 381t109 391q57 81 155 130t227 49q257 0 360 -156t103 -372q0 -53 -4 -86h-670z" />
    <glyph glyph-name="uni1EC4" unicode="&#x1ec4;" horiz-adv-x="1159" 
d="M444 1724h318l231 -213h-272l-119 103l-110 -103h-281zM401 1794h-157v21q0 209 184 208q74 -1 182 -33t154 -32q47 0 47 49v10h156v-26q0 -111 -44 -155t-121 -44t-197 31t-156 30q-47 0 -48 -49v-10zM1040 850v-238h-610v-376h674l-35 -236h-917v1403h915v-236h-637
v-317h610z" />
    <glyph glyph-name="uni1EC5" unicode="&#x1ec5;" horiz-adv-x="1091" 
d="M393 1386h309l228 -229h-268l-119 115l-113 -115h-262zM391 1475h-155v22q0 205 170 205q66 0 148 -33t103 -33q51 0 52 50v12h151v-27q0 -199 -172 -198q-55 -1 -138 31t-110 32q-49 0 -49 -49v-12zM557 872q-105 0 -151 -66t-52 -157h400q-8 223 -197 223zM350 467
q0 -113 49 -191t158 -77q137 0 182 127h273q-100 -344 -463 -344q-242 0 -361 148q-118 148 -118 381t109 391q57 81 155 130t227 49q257 0 360 -156t103 -372q0 -53 -4 -86h-670z" />
    <glyph glyph-name="uni1EC6" unicode="&#x1ec6;" horiz-adv-x="1159" 
d="M446 1812h316l219 -284h-266l-113 145l-110 -145h-269zM772 -410h-297v285h297v-285zM1040 850v-238h-610v-376h674l-35 -236h-917v1403h915v-236h-637v-317h610z" />
    <glyph glyph-name="uni1EC7" unicode="&#x1ec7;" horiz-adv-x="1091" 
d="M416 1489h303l205 -303h-260l-101 149l-94 -149h-260zM694 -410h-297v285h297v-285zM557 872q-105 0 -151 -66t-52 -157h400q-8 223 -197 223zM350 467q0 -113 49 -191t158 -77q137 0 182 127h273q-100 -344 -463 -344q-242 0 -361 148q-118 148 -118 381t109 391
q57 81 155 130t227 49q257 0 360 -156t103 -372q0 -53 -4 -86h-670z" />
    <glyph glyph-name="uni1EC8" unicode="&#x1ec8;" horiz-adv-x="591" 
d="M264 1673q0 59 -62 59t-118 -30l-55 160q102 63 226 63q125 0 189 -53t64 -139q0 -117 -117 -215h-225q57 55 78 87q20 32 20 68zM152 1403h286v-1403h-286v1403z" />
    <glyph glyph-name="uni1EC9" unicode="&#x1ec9;" horiz-adv-x="540" 
d="M268 1343q0 59 -62 59t-118 -30l-55 160q102 63 226 63q125 0 189 -53t64 -139q0 -117 -117 -215h-225q57 55 78 87q20 32 20 68zM131 0v1061h279v-1061h-279z" />
    <glyph glyph-name="uni1ECA" unicode="&#x1eca;" horiz-adv-x="591" 
d="M444 -410h-297v285h297v-285zM152 1403h286v-1403h-286v1403z" />
    <glyph glyph-name="uni1ECB" unicode="&#x1ecb;" horiz-adv-x="540" 
d="M420 -410h-297v285h297v-285zM410 1233h-279v256h279v-256zM131 0v1061h279v-1061h-279z" />
    <glyph glyph-name="uni1ECC" unicode="&#x1ecc;" horiz-adv-x="1431" 
d="M850 -410h-297v285h297v-285zM718 1194q-171 0 -253 -134t-82 -352t87 -360t247 -141q334 0 334 502q0 213 -81 349t-252 136zM746 1421q184 0 327 -101q270 -191 270 -611q-1 -322 -161 -526t-475 -203q-158 0 -279 57q-223 105 -303 391q-37 130 -37 274t38 267
t112 226t200 165q124 62 308 61z" />
    <glyph glyph-name="uni1ECD" unicode="&#x1ecd;" horiz-adv-x="1142" 
d="M721 -410h-297v285h297v-285zM569 862q-104 0 -161 -85t-58 -230q0 -348 228 -348q104 0 160 88t57 256q-1 319 -226 319zM576 1081q248 -1 374 -153t125 -392q0 -240 -126 -399q-126 -157 -383 -157t-378 160q-120 160 -120 390t130 390t378 161z" />
    <glyph glyph-name="uni1ECE" unicode="&#x1ece;" horiz-adv-x="1431" 
d="M688 1669q0 59 -62 59t-118 -30l-55 160q102 63 226 63q125 0 189 -53t64 -139q0 -118 -117 -216h-225q58 55 78 87t20 69zM718 1194q-171 0 -253 -134t-82 -352t87 -360t247 -141q334 0 334 502q0 213 -81 349t-252 136zM746 1421q184 0 327 -101q270 -191 270 -611
q-1 -322 -161 -526t-475 -203q-158 0 -279 57q-223 105 -303 391q-37 130 -37 274t38 267t112 226t200 165q124 62 308 61z" />
    <glyph glyph-name="uni1ECF" unicode="&#x1ecf;" horiz-adv-x="1142" 
d="M567 1341q0 59 -62 59t-118 -30l-55 160q102 63 226 63t188 -53t65 -139q0 -117 -117 -215h-225q57 55 78 87q20 32 20 68zM569 862q-104 0 -161 -85t-58 -230q0 -348 228 -348q104 0 160 88t57 256q-1 319 -226 319zM576 1081q248 -1 374 -153t125 -392
q0 -240 -126 -399q-126 -157 -383 -157t-378 160q-120 160 -120 390t130 390t378 161z" />
    <glyph glyph-name="uni1ED0" unicode="&#x1ed0;" horiz-adv-x="1431" 
d="M1149 1944h321l-272 -238h-227zM545 1757h309l227 -248h-268l-115 123l-110 -123h-275zM718 1194q-171 0 -253 -134t-82 -352t87 -360t247 -141q334 0 334 502q0 213 -81 349t-252 136zM746 1421q184 0 327 -101q270 -191 270 -611q-1 -322 -161 -526t-475 -203
q-158 0 -279 57q-223 105 -303 391q-37 130 -37 274t38 267t112 226t200 165q124 62 308 61z" />
    <glyph glyph-name="uni1ED1" unicode="&#x1ed1;" horiz-adv-x="1142" 
d="M981 1681h266l-254 -272h-198zM430 1448h285l205 -266h-242l-109 137l-106 -137h-242zM569 862q-104 0 -161 -85t-58 -230q0 -348 228 -348q104 0 160 88t57 256q-1 319 -226 319zM576 1081q248 -1 374 -153t125 -392q0 -240 -126 -399q-126 -157 -383 -157t-378 160
q-120 160 -120 390t130 390t378 161z" />
    <glyph glyph-name="uni1ED2" unicode="&#x1ed2;" horiz-adv-x="1431" 
d="M846 1944h317l183 -236h-234zM549 1759h309l227 -248h-268l-115 123l-110 -123h-275zM718 1194q-171 0 -253 -134t-82 -352t87 -360t247 -141q334 0 334 502q0 213 -81 349t-252 136zM746 1421q184 0 327 -101q270 -191 270 -611q-1 -322 -161 -526t-475 -203
q-158 0 -279 57q-223 105 -303 391q-37 130 -37 274t38 267t112 226t200 165q124 62 308 61z" />
    <glyph glyph-name="uni1ED3" unicode="&#x1ed3;" horiz-adv-x="1142" 
d="M672 1673h282l205 -280h-215zM430 1448h285l205 -266h-242l-109 137l-106 -137h-242zM569 862q-104 0 -161 -85t-58 -230q0 -348 228 -348q104 0 160 88t57 256q-1 319 -226 319zM576 1081q248 -1 374 -153t125 -392q0 -240 -126 -399q-126 -157 -383 -157t-378 160
q-120 160 -120 390t130 390t378 161z" />
    <glyph glyph-name="uni1ED4" unicode="&#x1ed4;" horiz-adv-x="1431" 
d="M549 1763h309l227 -247h-268l-115 122l-110 -122h-275zM1110 1845q0 47 -66 47q-43 0 -106 -37l-51 121q85 78 197 78t165 -47t53 -129t-102 -164h-180q90 76 90 131zM718 1194q-171 0 -253 -134t-82 -352t87 -360t247 -141q334 0 334 502q0 213 -81 349t-252 136z
M746 1421q184 0 327 -101q270 -191 270 -611q-1 -322 -161 -526t-475 -203q-158 0 -279 57q-223 105 -303 391q-37 130 -37 274t38 267t112 226t200 165q124 62 308 61z" />
    <glyph glyph-name="uni1ED5" unicode="&#x1ed5;" horiz-adv-x="1142" 
d="M430 1448h285l205 -266h-242l-109 137l-106 -137h-242zM958 1534q0 51 -57 51t-102 -33l-47 129q86 63 196 63t160 -43q51 -44 51 -122q0 -114 -98 -180h-207q104 78 104 135zM569 862q-104 0 -161 -85t-58 -230q0 -348 228 -348q104 0 160 88t57 256q-1 319 -226 319z
M576 1081q248 -1 374 -153t125 -392q0 -240 -126 -399q-126 -157 -383 -157t-378 160q-120 160 -120 390t130 390t378 161z" />
    <glyph glyph-name="uni1ED6" unicode="&#x1ed6;" horiz-adv-x="1431" 
d="M535 1724h317l231 -213h-272l-119 103l-110 -103h-281zM492 1794h-158v21q0 209 184 208q74 -1 182 -33t154 -32q47 0 47 49v10h156v-26q0 -111 -44 -155t-121 -44t-197 31t-156 30q-47 0 -47 -49v-10zM718 1194q-171 0 -253 -134t-82 -352t87 -360t247 -141
q334 0 334 502q0 213 -81 349t-252 136zM746 1421q184 0 327 -101q270 -191 270 -611q-1 -322 -161 -526t-475 -203q-158 0 -279 57q-223 105 -303 391q-37 130 -37 274t38 267t112 226t200 165q124 62 308 61z" />
    <glyph glyph-name="uni1ED7" unicode="&#x1ed7;" horiz-adv-x="1142" 
d="M418 1386h309l227 -229h-268l-119 115l-112 -115h-262zM416 1475h-156v22q0 205 170 205q66 0 149 -33t103 -33q51 0 51 50v12h152v-27q0 -199 -172 -198q-55 -1 -139 31t-109 32q-49 0 -49 -49v-12zM569 862q-104 0 -161 -85t-58 -230q0 -348 228 -348q104 0 160 88
t57 256q-1 319 -226 319zM576 1081q248 -1 374 -153t125 -392q0 -240 -126 -399q-126 -157 -383 -157t-378 160q-120 160 -120 390t130 390t378 161z" />
    <glyph glyph-name="uni1ED8" unicode="&#x1ed8;" horiz-adv-x="1431" 
d="M545 1812h315l219 -284h-266l-113 145l-110 -145h-268zM850 -410h-297v285h297v-285zM718 1194q-171 0 -253 -134t-82 -352t87 -360t247 -141q334 0 334 502q0 213 -81 349t-252 136zM746 1421q184 0 327 -101q270 -191 270 -611q-1 -322 -161 -526t-475 -203
q-158 0 -279 57q-223 105 -303 391q-37 130 -37 274t38 267t112 226t200 165q124 62 308 61z" />
    <glyph glyph-name="uni1ED9" unicode="&#x1ed9;" horiz-adv-x="1142" 
d="M422 1489h303l205 -303h-260l-101 149l-94 -149h-260zM721 -410h-297v285h297v-285zM569 862q-104 0 -161 -85t-58 -230q0 -348 228 -348q104 0 160 88t57 256q-1 319 -226 319zM576 1081q248 -1 374 -153t125 -392q0 -240 -126 -399q-126 -157 -383 -157t-378 160
q-120 160 -120 390t130 390t378 161z" />
    <glyph glyph-name="uni1EDA" unicode="&#x1eda;" horiz-adv-x="1431" 
d="M801 1810h344l-330 -284h-254zM718 1194q-171 0 -253 -134t-82 -352t87 -360t247 -141q334 0 334 502q0 213 -81 349t-252 136zM725 1421q215 0 365 -110q72 16 72 87t-25 140h233q23 -61 23 -139q0 -197 -154 -260q104 -178 104 -430q-1 -322 -161 -526t-475 -203
q-158 0 -279 57q-223 105 -303 391q-37 130 -37 274t38 267q86 280 311 391q126 61 288 61z" />
    <glyph glyph-name="uni1EDB" unicode="&#x1edb;" horiz-adv-x="1142" 
d="M629 1511h325l-301 -301h-241zM569 862q-104 0 -161 -85t-58 -230q0 -348 228 -348q104 0 160 88t57 256q-1 319 -226 319zM582 1081q152 0 262 -65q70 20 70 89t-25 138h233q23 -61 23 -139q0 -188 -141 -254q72 -129 71 -305q0 -250 -126 -408q-126 -157 -383 -157
t-378 160q-120 160 -120 390t130 390t384 161z" />
    <glyph glyph-name="uni1EDC" unicode="&#x1edc;" horiz-adv-x="1431" 
d="M309 1810h355l219 -284h-265zM718 1194q-171 0 -253 -134t-82 -352t87 -360t247 -141q334 0 334 502q0 213 -81 349t-252 136zM725 1421q215 0 365 -110q72 16 72 87t-25 140h233q23 -61 23 -139q0 -197 -154 -260q104 -178 104 -430q-1 -322 -161 -526t-475 -203
q-158 0 -279 57q-223 105 -303 391q-37 130 -37 274t38 267q86 280 311 391q126 61 288 61z" />
    <glyph glyph-name="uni1EDD" unicode="&#x1edd;" horiz-adv-x="1142" 
d="M203 1511h327l215 -301h-237zM569 862q-104 0 -161 -85t-58 -230q0 -348 228 -348q104 0 160 88t57 256q-1 319 -226 319zM582 1081q152 0 262 -65q70 20 70 89t-25 138h233q23 -61 23 -139q0 -188 -141 -254q72 -129 71 -305q0 -250 -126 -408q-126 -157 -383 -157
t-378 160q-120 160 -120 390t130 390t384 161z" />
    <glyph glyph-name="uni1EDE" unicode="&#x1ede;" horiz-adv-x="1431" 
d="M696 1923q124 0 188 -53t64 -139q0 -117 -117 -215h-225q57 55 78 87q20 32 21 68q-1 59 -63 59t-118 -30l-55 160q103 63 227 63zM718 1194q-171 0 -253 -134t-82 -352t87 -360t247 -141q334 0 334 502q0 213 -81 349t-252 136zM725 1421q215 0 365 -110q72 16 72 87
t-25 140h233q23 -61 23 -139q0 -197 -154 -260q104 -178 104 -430q-1 -322 -161 -526t-475 -203q-158 0 -279 57q-223 105 -303 391q-37 130 -37 274t38 267q86 280 311 391q126 61 288 61z" />
    <glyph glyph-name="uni1EDF" unicode="&#x1edf;" horiz-adv-x="1142" 
d="M567 1343q0 59 -62 59t-118 -30l-55 160q102 63 226 63t188 -53t65 -139q0 -117 -117 -215h-225q57 55 78 87q20 32 20 68zM569 862q-104 0 -161 -85t-58 -230q0 -348 228 -348q104 0 160 88t57 256q-1 319 -226 319zM582 1081q152 0 262 -65q70 20 70 89t-25 138h233
q23 -61 23 -139q0 -188 -141 -254q72 -129 71 -305q0 -250 -126 -408q-126 -157 -383 -157t-378 160q-120 160 -120 390t130 390t384 161z" />
    <glyph glyph-name="uni1EE0" unicode="&#x1ee0;" horiz-adv-x="1431" 
d="M524 1538h-184v72q0 209 192 209q68 0 176 -42t132 -42q53 0 53 69v19h182v-47q0 -244 -201 -244q-70 0 -171 42t-125 42q-53 0 -54 -49v-29zM718 1194q-171 0 -253 -134t-82 -352t87 -360t247 -141q334 0 334 502q0 213 -81 349t-252 136zM725 1421q215 0 365 -110
q72 16 72 87t-25 140h233q23 -61 23 -139q0 -197 -154 -260q104 -178 104 -430q-1 -322 -161 -526t-475 -203q-158 0 -279 57q-223 105 -303 391q-37 130 -37 274t38 267q86 280 311 391q126 61 288 61z" />
    <glyph glyph-name="uni1EE1" unicode="&#x1ee1;" horiz-adv-x="1142" 
d="M414 1204h-189v64q0 221 189 221q74 0 164 -42t112 -42q45 0 45 70v16h185v-45q0 -246 -203 -246q-70 0 -157 41t-109 41q-37 0 -37 -47v-31zM569 862q-104 0 -161 -85t-58 -230q0 -348 228 -348q104 0 160 88t57 256q-1 319 -226 319zM582 1081q152 0 262 -65
q70 20 70 89t-25 138h233q23 -61 23 -139q0 -188 -141 -254q72 -129 71 -305q0 -250 -126 -408q-126 -157 -383 -157t-378 160q-120 160 -120 390t130 390t384 161z" />
    <glyph glyph-name="uni1EE2" unicode="&#x1ee2;" horiz-adv-x="1431" 
d="M856 -422h-297v285h297v-285zM718 1194q-171 0 -253 -134t-82 -352t87 -360t247 -141q334 0 334 502q0 213 -81 349t-252 136zM725 1421q215 0 365 -110q72 16 72 87t-25 140h233q23 -61 23 -139q0 -197 -154 -260q104 -178 104 -430q-1 -322 -161 -526t-475 -203
q-158 0 -279 57q-223 105 -303 391q-37 130 -37 274t38 267q86 280 311 391q126 61 288 61z" />
    <glyph glyph-name="uni1EE3" unicode="&#x1ee3;" horiz-adv-x="1142" 
d="M721 -410h-297v285h297v-285zM569 862q-104 0 -161 -85t-58 -230q0 -348 228 -348q104 0 160 88t57 256q-1 319 -226 319zM582 1081q152 0 262 -65q70 20 70 89t-25 138h233q23 -61 23 -139q0 -188 -141 -254q72 -129 71 -305q0 -250 -126 -408q-126 -157 -383 -157
t-378 160q-120 160 -120 390t130 390t384 161z" />
    <glyph glyph-name="uni1EE4" unicode="&#x1ee4;" horiz-adv-x="1355" 
d="M827 -410h-297v285h297v-285zM133 1403h287v-893q0 -139 55 -221t203 -82t203 80q53 80 53 223v893h289v-899q0 -524 -549 -524q-293 0 -417 138t-124 384v901z" />
    <glyph glyph-name="uni1EE5" unicode="&#x1ee5;" horiz-adv-x="1150" 
d="M723 -410h-297v285h297v-285zM1020 1061v-748q0 -203 4 -313h-270q-6 35 -11 127q-86 -145 -292 -145q-158 0 -243 96t-85 274v709h276v-662q0 -188 156 -188q186 0 186 258v592h279z" />
    <glyph glyph-name="uni1EE6" unicode="&#x1ee6;" horiz-adv-x="1355" 
d="M652 1882q124 0 190 -53q64 -53 63 -139q0 -117 -117 -215h-225q57 55 78 87q20 32 21 68q0 60 -62 60t-119 -31l-55 160q102 63 226 63zM133 1403h287v-893q0 -139 55 -221t203 -82t203 80q53 80 53 223v893h289v-899q0 -524 -549 -524q-293 0 -417 138t-124 384v901z
" />
    <glyph glyph-name="uni1EE7" unicode="&#x1ee7;" horiz-adv-x="1150" 
d="M569 1343q0 59 -62 59t-118 -30l-55 160q102 63 226 63t189 -53t64 -139q0 -117 -117 -215h-225q57 55 78 87q20 32 20 68zM1020 1061v-748q0 -203 4 -313h-270q-6 35 -11 127q-86 -145 -292 -145q-158 0 -243 96t-85 274v709h276v-662q0 -188 156 -188q186 0 186 258
v592h279z" />
    <glyph glyph-name="uni1EE8" unicode="&#x1ee8;" horiz-adv-x="1355" 
d="M772 1808h344l-330 -284h-254zM133 1403h287v-893q0 -139 55 -221t203 -82t203 80q53 80 53 223v893h153q102 10 103 96q0 68 -25 137h234q23 -61 22 -139q0 -225 -198 -274v-719q0 -524 -549 -524q-293 0 -417 138t-124 384v901z" />
    <glyph glyph-name="uni1EE9" unicode="&#x1ee9;" horiz-adv-x="1150" 
d="M631 1511h325l-301 -301h-241zM451 -18q-158 0 -243 96t-85 274v709h276v-662q0 -188 156 -188q186 0 186 258v592h142q102 10 102 96q0 68 -24 137h233q23 -61 23 -139q0 -225 -197 -274v-568q0 -203 4 -313h-270q-7 35 -11 127q-86 -145 -292 -145z" />
    <glyph glyph-name="uni1EEA" unicode="&#x1eea;" horiz-adv-x="1355" 
d="M279 1808h354l219 -284h-264zM133 1403h287v-893q0 -139 55 -221t203 -82t203 80q53 80 53 223v893h153q102 10 103 96q0 68 -25 137h234q23 -61 22 -139q0 -225 -198 -274v-719q0 -524 -549 -524q-293 0 -417 138t-124 384v901z" />
    <glyph glyph-name="uni1EEB" unicode="&#x1eeb;" horiz-adv-x="1150" 
d="M205 1511h327l216 -301h-238zM451 -18q-158 0 -243 96t-85 274v709h276v-662q0 -188 156 -188q186 0 186 258v592h142q102 10 102 96q0 68 -24 137h233q23 -61 23 -139q0 -225 -197 -274v-568q0 -203 4 -313h-270q-7 35 -11 127q-86 -145 -292 -145z" />
    <glyph glyph-name="uni1EEC" unicode="&#x1eec;" horiz-adv-x="1355" 
d="M670 1894q124 0 190 -53q64 -53 64 -139q0 -117 -117 -215h-225q57 55 77 87t21 68q0 60 -62 60t-118 -31l-56 160q102 63 226 63zM133 1403h287v-893q0 -139 55 -221t203 -82t203 80q53 80 53 223v893h153q102 10 103 96q0 68 -25 137h234q23 -61 22 -139
q0 -225 -198 -274v-719q0 -524 -549 -524q-293 0 -417 138t-124 384v901z" />
    <glyph glyph-name="uni1EED" unicode="&#x1eed;" horiz-adv-x="1150" 
d="M569 1343q0 59 -62 59t-118 -30l-55 160q102 63 226 63t189 -53t64 -139q0 -117 -117 -215h-225q57 55 78 87q20 32 20 68zM451 -18q-158 0 -243 96t-85 274v709h276v-662q0 -188 156 -188q186 0 186 258v592h142q102 10 102 96q0 68 -24 137h233q23 -61 23 -139
q0 -225 -197 -274v-568q0 -203 4 -313h-270q-7 35 -11 127q-86 -145 -292 -145z" />
    <glyph glyph-name="uni1EEE" unicode="&#x1eee;" horiz-adv-x="1355" 
d="M500 1536h-185v72q0 209 193 209q68 0 176 -42t131 -42q53 0 53 69v19h183v-47q0 -244 -201 -244q-70 0 -171 42t-126 42q-53 0 -53 -49v-29zM133 1403h287v-893q0 -139 55 -221t203 -82t203 80q53 80 53 223v893h153q102 10 103 96q0 68 -25 137h234q23 -61 22 -139
q0 -225 -198 -274v-719q0 -524 -549 -524q-293 0 -417 138t-124 384v901z" />
    <glyph glyph-name="uni1EEF" unicode="&#x1eef;" horiz-adv-x="1150" 
d="M416 1204h-189v64q0 221 189 221q74 0 164 -42t112 -42q45 0 45 70v16h185v-45q0 -246 -203 -246q-70 0 -157 41t-109 41q-37 0 -37 -47v-31zM451 -18q-158 0 -243 96t-85 274v709h276v-662q0 -188 156 -188q186 0 186 258v592h142q102 10 102 96q0 68 -24 137h233
q23 -61 23 -139q0 -225 -197 -274v-568q0 -203 4 -313h-270q-7 35 -11 127q-86 -145 -292 -145z" />
    <glyph glyph-name="uni1EF0" unicode="&#x1ef0;" horiz-adv-x="1355" 
d="M827 -410h-297v285h297v-285zM133 1403h287v-893q0 -139 55 -221t203 -82t203 80q53 80 53 223v893h153q102 10 103 96q0 68 -25 137h234q23 -61 22 -139q0 -225 -198 -274v-719q0 -524 -549 -524q-293 0 -417 138t-124 384v901z" />
    <glyph glyph-name="uni1EF1" unicode="&#x1ef1;" horiz-adv-x="1150" 
d="M723 -410h-297v285h297v-285zM451 -18q-158 0 -243 96t-85 274v709h276v-662q0 -188 156 -188q186 0 186 258v592h142q102 10 102 96q0 68 -24 137h233q23 -61 23 -139q0 -225 -197 -274v-568q0 -203 4 -313h-270q-7 35 -11 127q-86 -145 -292 -145z" />
    <glyph glyph-name="Ygrave" unicode="&#x1ef2;" horiz-adv-x="1159" 
d="M162 1810h354l219 -284h-264zM721 537v-537h-285v528q0 29 -12 45l-444 830h321q29 -61 143 -298t148 -312l291 610h297l-447 -823q-12 -18 -12 -43z" />
    <glyph glyph-name="ygrave" unicode="&#x1ef3;" horiz-adv-x="1026" 
d="M139 1511h328l215 -301h-238zM248 -424q-58 0 -123 8v228q43 -6 96 -7q119 0 162 146l-371 1110h295q199 -719 213 -819h2q49 225 213 819h279l-361 -1106q-83 -250 -181 -314q-98 -65 -224 -65z" />
    <glyph glyph-name="uni1EF4" unicode="&#x1ef4;" horiz-adv-x="1159" 
d="M729 -410h-297v285h297v-285zM721 537v-537h-285v528q0 29 -12 45l-444 830h321q29 -61 143 -298t148 -312l291 610h297l-447 -823q-12 -18 -12 -43z" />
    <glyph glyph-name="uni1EF5" unicode="&#x1ef5;" horiz-adv-x="1026" 
d="M1028 -336h-297v285h297v-285zM248 -424q-58 0 -123 8v228q43 -6 96 -7q119 0 162 146l-371 1110h295q199 -719 213 -819h2q49 225 213 819h279l-361 -1106q-83 -250 -181 -314q-98 -65 -224 -65z" />
    <glyph glyph-name="uni1EF6" unicode="&#x1ef6;" horiz-adv-x="1159" 
d="M567 1636q0 60 -62 60t-118 -31l-55 160q102 63 226 63t188 -53t65 -139q0 -117 -117 -215h-225q57 55 78 87q20 32 20 68zM721 537v-537h-285v528q0 29 -12 45l-444 830h321q29 -61 143 -298t148 -312l291 610h297l-447 -823q-12 -18 -12 -43z" />
    <glyph glyph-name="uni1EF7" unicode="&#x1ef7;" horiz-adv-x="1026" 
d="M494 1593q124 0 190 -53q64 -53 64 -139q0 -117 -117 -215h-225q57 55 77 87t21 68q0 59 -62 59t-118 -30l-56 160q102 63 226 63zM248 -424q-58 0 -123 8v228q43 -6 96 -7q119 0 162 146l-371 1110h295q199 -719 213 -819h2q49 225 213 819h279l-361 -1106
q-83 -250 -181 -314q-98 -65 -224 -65z" />
    <glyph glyph-name="uni1EF8" unicode="&#x1ef8;" horiz-adv-x="1159" 
d="M397 1536h-184v72q0 209 193 209q68 0 176 -42t131 -42q53 0 53 69v19h182v-47q0 -244 -200 -244q-70 0 -171 42t-126 42q-53 0 -54 -49v-29zM721 537v-537h-285v528q0 29 -12 45l-444 830h321q29 -61 143 -298t148 -312l291 610h297l-447 -823q-12 -18 -12 -43z" />
    <glyph glyph-name="uni1EF9" unicode="&#x1ef9;" horiz-adv-x="1026" 
d="M350 1204h-188v64q0 221 188 221q74 0 164 -42t113 -42q45 0 45 70v16h184v-45q0 -246 -203 -246q-71 0 -157 41t-109 41q-37 0 -37 -47v-31zM248 -424q-58 0 -123 8v228q43 -6 96 -7q119 0 162 146l-371 1110h295q199 -719 213 -819h2q49 225 213 819h279l-361 -1106
q-83 -250 -181 -314q-98 -65 -224 -65z" />
    <glyph glyph-name="uni2007" unicode="&#x2007;" horiz-adv-x="1124" 
 />
    <glyph glyph-name="uni2010" unicode="&#x2010;" horiz-adv-x="702" 
d="M86 645h530v-233h-530v233z" />
    <glyph glyph-name="figuredash" unicode="&#x2012;" horiz-adv-x="1124" 
d="M162 760h801v-238h-801v238z" />
    <glyph glyph-name="endash" unicode="&#x2013;" horiz-adv-x="888" 
d="M88 645h713v-231h-713v231z" />
    <glyph glyph-name="emdash" unicode="&#x2014;" horiz-adv-x="1540" 
d="M88 645h1364v-231h-1364v231z" />
    <glyph glyph-name="uni2015" unicode="&#x2015;" horiz-adv-x="1540" 
d="M88 645h1364v-231h-1364v231z" />
    <glyph glyph-name="quoteleft" unicode="&#x2018;" horiz-adv-x="403" 
d="M276 954h-241q4 131 36 283t85 254h206q-86 -268 -86 -537z" />
    <glyph glyph-name="quoteright" unicode="&#x2019;" horiz-adv-x="401" 
d="M121 1491h241q-4 -131 -36 -283t-84 -254h-207q86 268 86 537z" />
    <glyph glyph-name="quotesinglbase" unicode="&#x201a;" horiz-adv-x="417" 
d="M104 367h242q-4 -131 -36 -282t-85 -253h-207q86 268 86 535z" />
    <glyph glyph-name="quotedblleft" unicode="&#x201c;" horiz-adv-x="741" 
d="M266 954h-229q8 279 119 537h196q-86 -268 -86 -537zM614 954h-229q8 275 121 537h194q-86 -254 -86 -537z" />
    <glyph glyph-name="quotedblright" unicode="&#x201d;" horiz-adv-x="739" 
d="M471 1491h229q-9 -281 -120 -537h-195q86 268 86 537zM121 1491h231q-10 -281 -121 -537h-196q86 254 86 537z" />
    <glyph glyph-name="quotedblbase" unicode="&#x201e;" horiz-adv-x="739" 
d="M471 371h229q-9 -281 -120 -537h-195q86 268 86 537zM121 371h231q-10 -281 -121 -537h-196q86 254 86 537z" />
    <glyph glyph-name="dagger" unicode="&#x2020;" horiz-adv-x="989" 
d="M356 1317h242l-14 -418l317 14v-227l-317 16l14 -952h-242l19 952l-318 -16v227l318 -14z" />
    <glyph glyph-name="daggerdbl" unicode="&#x2021;" horiz-adv-x="989" 
d="M375 352v396l-318 -13v228l318 -19l-19 371h242l-12 -371l315 19v-228l-315 13v-396l315 15v-226l-315 15l12 -410h-242l19 410l-318 -15v226z" />
    <glyph glyph-name="bullet" unicode="&#x2022;" horiz-adv-x="645" 
d="M127 729h391v-397h-391v397z" />
    <glyph glyph-name="ellipsis" unicode="&#x2026;" horiz-adv-x="1591" 
d="M1434 0h-273v324h273v-324zM901 0h-272v324h272v-324zM371 0h-273v324h273v-324z" />
    <glyph glyph-name="perthousand" unicode="&#x2030;" horiz-adv-x="2547" 
d="M1358 631q-133 1 -133 -233t133 -234t133 234t-133 233zM1356 813q160 1 254 -107t94 -300t-90 -310q-90 -116 -257 -116t-257 114t-90 300q0 187 93 303t253 116zM573 0h-182l811 1358h187zM425 1198q-132 0 -132 -234t132 -235q132 1 132 235t-132 234zM422 1380
q160 0 254 -108t94 -300q0 -190 -90 -308t-256 -117q-166 -1 -256 113t-90 302t92 302q92 116 252 116zM2125 631q-132 1 -132 -233t132 -234t132 234t-132 233zM2122 813q160 -1 255 -109t93 -300t-91 -308t-255 -116t-256 114t-90 300q0 187 92 303t252 116z" />
    <glyph glyph-name="uni2032" unicode="&#x2032;" horiz-adv-x="538" 
d="M313 954h-213l72 537h268z" />
    <glyph glyph-name="uni2033" unicode="&#x2033;" horiz-adv-x="862" 
d="M637 909h-195l78 580h244zM293 909h-193l76 580h246z" />
    <glyph glyph-name="guilsinglleft" unicode="&#x2039;" horiz-adv-x="702" 
d="M627 926l-312 -391l312 -394h-230l-321 394l321 391h230z" />
    <glyph glyph-name="guilsinglright" unicode="&#x203a;" horiz-adv-x="702" 
d="M76 141l311 391l-311 394h231l320 -394l-320 -391h-231z" />
    <glyph glyph-name="fraction" unicode="&#x2044;" horiz-adv-x="333" 
d="M-170 0h-184l858 1358h186z" />
    <glyph glyph-name="zero.sups" unicode="&#x2070;" horiz-adv-x="796" 
d="M399 1042q63 0 93 56t28 189q0 135 -31 185t-91 50t-91 -52t-31 -178q0 -250 123 -250zM403 1692q166 0 250 -111t84 -296t-87 -300t-257 -115t-253 115t-83 298t90 296t256 113z" />
    <glyph glyph-name="four.sups" unicode="&#x2074;" horiz-adv-x="747" 
d="M408 1225v102q0 115 6 193q-76 -143 -172 -295h166zM606 881h-198v192h-359v154l295 454h262v-456h111l-15 -152h-96v-192z" />
    <glyph glyph-name="five.sups" unicode="&#x2075;" horiz-adv-x="768" 
d="M295 1511q0 -4 -9 -63t-12 -64q55 35 166 35q111 1 188 -69t77 -198q-1 -128 -89 -204t-237 -76t-232 67q-82 67 -96 181h205q20 -92 119 -92q113 0 112 121q0 121 -127 121q-86 0 -118 -64l-176 25q57 346 69 446h533l-25 -166h-348z" />
    <glyph glyph-name="six.sups" unicode="&#x2076;" horiz-adv-x="774" 
d="M390 1026q56 0 90 32t34 95q0 127 -119 127q-49 0 -84 -30t-35 -85t29 -97t85 -42zM397 1536q-121 0 -129 -182q60 68 186 68t198 -68t73 -192q0 -124 -86 -208t-247 -84t-247 108t-86 281t72 294q37 63 108 101t164 38q270 -1 297 -228h-194q-27 72 -109 72z" />
    <glyph glyph-name="seven.sups" unicode="&#x2077;" horiz-adv-x="706" 
d="M63 1677h592v-149q-197 -262 -276 -647h-223q32 193 118 367t166 263h-377v166z" />
    <glyph glyph-name="eight.sups" unicode="&#x2078;" horiz-adv-x="751" 
d="M475 1462q0 90 -100 90t-101 -92q0 -88 100 -88t101 90zM377 1010q57 0 89 30t32 78q0 111 -120 111t-120 -111q0 -48 31 -78t88 -30zM369 870q-154 0 -238 70t-84 188t123 175q-90 65 -90 163t78 162t222 64t218 -65t74 -164t-92 -152q122 -57 122 -181t-90 -192
t-243 -68z" />
    <glyph glyph-name="nine.sups" unicode="&#x2079;" horiz-adv-x="770" 
d="M373 1534q-53 0 -84 -29t-31 -82t34 -84t86 -31t84 26q32 24 32 73q0 127 -121 127zM51 1408q0 118 87 201t235 83q338 0 338 -383q0 -436 -342 -437q-141 0 -217 62t-91 160h211q25 -74 105 -74t99 67t22 130q-57 -57 -173 -57t-195 65t-79 183z" />
    <glyph glyph-name="parenleft.sups" unicode="&#x207d;" horiz-adv-x="477" 
d="M262 1270q0 -268 152 -506h-176q-158 211 -158 505t158 517h176q-152 -248 -152 -516z" />
    <glyph glyph-name="parenright.sups" unicode="&#x207e;" horiz-adv-x="477" 
d="M207 1276q0 268 -152 510h176q61 -80 111 -212t49 -298q0 -293 -160 -512h-176q152 244 152 512z" />
    <glyph glyph-name="n.sups" unicode="&#x207f;" horiz-adv-x="780" 
d="M80 561v459q0 188 -2 219h190q4 -18 8 -86q57 100 197 100q94 0 161 -59t66 -201v-432h-200v402q0 121 -103 120q-49 1 -83 -35t-33 -116v-371h-201z" />
    <glyph glyph-name="zero.subs" unicode="&#x2080;" horiz-adv-x="796" 
d="M399 -150q63 0 93 56t28 189q0 135 -31 185t-91 50t-91 -51t-31 -179q0 -250 123 -250zM403 500q166 0 250 -111t84 -296t-87 -300t-257 -115t-253 115t-83 298t90 296t256 113z" />
    <glyph glyph-name="one.subs" unicode="&#x2081;" horiz-adv-x="524" 
d="M408 -311h-218v583q-59 -6 -124 -6v154q106 14 192 80h150v-811z" />
    <glyph glyph-name="two.subs" unicode="&#x2082;" horiz-adv-x="733" 
d="M53 -311v18q0 215 236 371q90 59 125 94t35 78q1 88 -93 88t-110 -127h-195q8 135 88 212t230 77q151 0 225 -72t74 -169t-46 -151t-161 -127t-139 -131h362l-31 -161h-600z" />
    <glyph glyph-name="three.subs" unicode="&#x2083;" horiz-adv-x="743" 
d="M293 25v165h67q88 0 89 70q0 80 -95 80q-54 0 -76 -25t-30 -65h-191q4 86 77 168q72 82 224 82t228 -62t76 -162q0 -66 -34 -104t-71 -51q47 -13 93 -59t46 -140t-81 -168t-259 -74t-243 86q-66 85 -70 175h203q18 -105 126 -105t107 94q0 94 -117 95h-69z" />
    <glyph glyph-name="four.subs" unicode="&#x2084;" horiz-adv-x="747" 
d="M408 33v102q0 115 6 193q-76 -143 -172 -295h166zM606 -311h-198v192h-359v154l295 454h262v-456h111l-15 -152h-96v-192z" />
    <glyph glyph-name="five.subs" unicode="&#x2085;" horiz-adv-x="768" 
d="M295 319q0 -4 -9 -63t-12 -63q55 35 166 35t188 -70t77 -198q-1 -128 -89 -204t-237 -76t-232 67q-82 67 -96 181h205q20 -92 119 -92q113 0 112 121q0 121 -127 121q-86 0 -118 -64l-176 25q57 346 69 446h533l-25 -166h-348z" />
    <glyph glyph-name="six.subs" unicode="&#x2086;" horiz-adv-x="774" 
d="M276 -26q0 -54 29 -98q29 -42 85 -42t90 32t34 95q0 127 -119 127q-49 0 -84 -30t-35 -84zM397 344q-121 0 -129 -182q60 68 186 68t198 -68t73 -192q0 -124 -86 -208t-247 -84t-247 108t-86 281t72 294q37 63 108 101t164 38q270 -1 297 -228h-194q-27 72 -109 72z" />
    <glyph glyph-name="seven.subs" unicode="&#x2087;" horiz-adv-x="706" 
d="M63 485h592v-149q-197 -262 -276 -647h-223q32 193 118 367t166 263h-377v166z" />
    <glyph glyph-name="eight.subs" unicode="&#x2088;" horiz-adv-x="751" 
d="M475 270q0 90 -100 90t-101 -92q0 -88 100 -88t101 90zM377 -182q57 0 89 30t32 78q0 111 -120 111t-120 -111q0 -48 31 -78t88 -30zM369 -322q-154 0 -238 70t-84 188t123 175q-90 65 -90 163t78 162t222 64t218 -65t74 -164t-92 -152q122 -57 122 -181t-90 -192
t-243 -68z" />
    <glyph glyph-name="nine.subs" unicode="&#x2089;" horiz-adv-x="770" 
d="M373 342q-53 0 -84 -29t-31 -82t34 -84t86 -31t84 26q32 24 32 73q0 127 -121 127zM51 216q0 118 87 201t235 83q338 0 338 -383q0 -436 -342 -436q-141 -1 -217 61t-91 160h211q25 -74 105 -74t99 67t22 130q-57 -57 -173 -57t-195 65t-79 183z" />
    <glyph glyph-name="parenleft.subs" unicode="&#x208d;" horiz-adv-x="477" 
d="M262 78q0 -268 152 -506h-176q-158 211 -158 505t158 517h176q-152 -248 -152 -516z" />
    <glyph glyph-name="parenright.subs" unicode="&#x208e;" horiz-adv-x="477" 
d="M207 84q0 268 -152 510h176q61 -80 111 -212t49 -298q0 -293 -160 -512h-176q152 244 152 512z" />
    <glyph glyph-name="colonmonetary" unicode="&#x20a1;" horiz-adv-x="1103" 
d="M588 1159q-115 0 -164 -113q-49 -114 -49 -352t47 -364t162 -127q162 0 190 184h264q-39 -293 -258 -371v-186h-143v160q-18 -2 -57 -2h-29v-158h-145v184q-313 113 -314 691q0 237 78 403t236 227v166h145v-135q14 2 43 2t43 -2v135h143v-160q242 -82 258 -387h-268
q-18 205 -182 205z" />
    <glyph glyph-name="franc" unicode="&#x20a3;" horiz-adv-x="1081" 
d="M182 0v236h-164v176h164v946h832v-236h-549v-309h510v-229h-510v-172h235v-176h-235v-236h-283z" />
    <glyph glyph-name="lira" unicode="&#x20a4;" horiz-adv-x="1054" 
d="M51 721v145h146q-2 23 -2 74q0 209 103 324q103 114 301 114t293 -99t99 -261h-250q-14 154 -139 153q-76 0 -106 -53t-29 -126q0 -73 4 -126h277v-145h-263q4 -61 4 -105v-6h259v-145h-269q-18 -145 -86 -229h625l-39 -236h-895v217q121 55 135 248h-168v145h170
l-12 111h-158z" />
    <glyph glyph-name="uni20A6" unicode="&#x20a6;" horiz-adv-x="1095" 
d="M334 651h117l-27 109h-92q2 -35 2 -109zM723 651q0 72 -2 109h-109l25 -109h86zM334 0h-219v506h-99v145h99v109h-99v147h99v451h354l106 -451h146v451h219v-451h98v-147h-98v-109h98v-145h-98v-506h-328l-125 506h-153v-506zM725 285h16q-6 70 -14 221h-55zM319 1116
q8 -123 11 -209h57l-51 209h-17z" />
    <glyph glyph-name="peseta" unicode="&#x20a7;" horiz-adv-x="1116" 
d="M381 686h104q106 0 166 32q59 32 76 122h-346v-154zM381 1163v-157h346q-35 158 -221 157h-125zM106 0v840h-126v166h126v352h445q184 0 306 -91t147 -261h100v-166h-100q-25 -172 -155 -266t-339 -93h-129v-481h-275z" />
    <glyph glyph-name="dong" unicode="&#x20ab;" horiz-adv-x="1091" 
d="M515 735q-95 -1 -145 -73t-51 -199q1 -127 53 -199t143 -72t141 63q50 62 50 216t-48 209t-143 55zM694 1384h262v-127h115v-174h-115v-796q0 -201 7 -287h-242q-10 55 -12 111q-75 -125 -265 -125t-293 132t-103 347t117 348q118 133 293 133t236 -84v221h-430v174h430
v127zM90 -158h860v-172h-860v172z" />
    <glyph glyph-name="Euro" unicode="&#x20ac;" horiz-adv-x="1140" 
d="M657 -20q-406 0 -462 514h-134v145h123v45q0 43 2 64h-125v147h138q39 241 163 361t312 120q186 0 292 -94t117 -250h-262q-27 133 -155 133q-162 0 -197 -270h328v-147h-340v-109h340v-145h-330q35 -301 207 -301q125 0 162 135h260q-63 -348 -439 -348z" />
    <glyph glyph-name="uni20B1" unicode="&#x20b1;" horiz-adv-x="1165" 
d="M438 623h107q147 0 200 110h-307v-110zM778 907v29h-340v-76h338q2 14 2 47zM438 1171v-106h307q-57 106 -196 106h-111zM174 0v733h-119v127h119v76h-119v129h119v293h367q184 0 310 -74t167 -219h98v-129h-80v-14q0 -41 -2 -62h82v-127h-104q-90 -299 -488 -299h-86
v-434h-264z" />
    <glyph glyph-name="uni20B2" unicode="&#x20b2;" horiz-adv-x="1118" 
d="M557 1167q-219 0 -219 -456q0 -498 266 -498q104 0 144 20v459h262v-620q-174 -68 -320 -78v-180h-227v190q-195 45 -297 221t-102 466t102 462t297 209v145h227v-145q146 -27 234 -119t94 -242h-250q-14 76 -58 121t-153 45z" />
    <glyph glyph-name="uni20B4" unicode="&#x20b4;" horiz-adv-x="1097" 
d="M557 1378q199 0 304 -96t106 -248q0 -94 -39 -164h114v-141h-245q-41 -31 -131 -88h356v-141h-567q-80 -70 -80 -151t49 -124t127 -43q182 0 213 164h240q-47 -367 -474 -366q-182 0 -301 93t-118 261q0 94 39 166h-105v141h236q72 55 125 88h-336v141h546q96 76 96 155
q1 157 -167 157q-143 0 -176 -154h-238q15 156 121 253t305 97z" />
    <glyph glyph-name="uni20B5" unicode="&#x20b5;" horiz-adv-x="1054" 
d="M373 696q0 -240 45 -362t160 -123q152 0 178 184h270q-43 -332 -317 -385v-190h-254v190q-365 78 -365 684q0 276 93 444t272 212v155h254v-153q151 -31 229 -131t86 -252h-272q-18 186 -172 186q-207 0 -207 -459z" />
    <glyph glyph-name="uni20B9" unicode="&#x20b9;" horiz-adv-x="1042" 
d="M88 512v211h174q119 0 194 53t74 174h-442v152h393q-68 78 -205 78h-188v178h911v-154h-288q41 -45 65 -102h223v-152h-192v-4q0 -281 -272 -387l393 -559h-314l-354 512h-172z" />
    <glyph glyph-name="uni20BA" unicode="&#x20ba;" horiz-adv-x="1114" 
d="M494 0h-287v487l-148 -69v164l148 69v94l-148 -69v166l148 69v447h278v-316l242 113v-168l-242 -113v-92l242 113v-166l-242 -113v-389q156 0 231 80t93 244h248q-8 -195 -116 -357q-57 -86 -173 -140t-274 -54z" />
    <glyph glyph-name="uni20BD" unicode="&#x20bd;" horiz-adv-x="1118" 
d="M446 1151v-377h113q221 0 221 191q0 186 -213 186h-121zM174 0v270h-127v179h127v122h-127v203h127v584h408q229 0 350 -106t121 -290q0 -182 -123 -286t-352 -105h-132v-122h326v-179h-326v-270h-272z" />
    <glyph glyph-name="uni2113" unicode="&#x2113;" horiz-adv-x="927" 
d="M432 1098v-334q154 145 154 369q0 139 -77 139t-77 -174zM150 1036q0 231 99 339t257 108t243 -90t85 -256q0 -369 -402 -645v-101q0 -186 103 -186q57 0 86 36q28 36 36 124h230q-7 -181 -101 -281t-280 -100q-232 0 -311 158q-41 79 -41 194v26q-41 -27 -123 -67v221
q65 33 119 70v450z" />
    <glyph glyph-name="uni2116" unicode="&#x2116;" horiz-adv-x="2082" 
d="M1634 481q-166 -1 -262 105t-96 296t96 296t264 106t262 -105t94 -293t-96 -297q-96 -108 -262 -108zM1327 373h612v-183h-612v183zM1636 674q133 0 133 210t-133 210t-133 -210t133 -210zM406 0h-254v1362h354l416 -1022h2q-14 164 -15 629v393h254v-1362h-342
l-430 1057h-2q16 -231 17 -647v-410z" />
    <glyph glyph-name="uni2117" unicode="&#x2117;" horiz-adv-x="1507" 
d="M752 1282q-230 0 -378 -159t-148 -420t149 -425q150 -164 381 -163q231 0 380 155q148 156 148 421t-150 428q-151 163 -382 163zM756 1409q287 0 476 -198t189 -515t-188 -513q-188 -195 -478 -195t-480 194q-189 195 -189 511t192 516t478 200zM666 930v-209h104
q129 0 129 104t-129 105h-104zM489 344v729h330q113 0 188 -63q75 -64 75 -180t-78 -182t-209 -66h-129v-238h-177z" />
    <glyph glyph-name="uni2120" unicode="&#x2120;" horiz-adv-x="1097" 
d="M246 999q68 0 69 45q0 23 -21 35q-22 12 -71 25q-102 20 -138 61t-36 104t51 107q52 44 142 43q90 0 138 -43t52 -114h-127q-8 33 -21 46q-14 13 -60 13t-46 -43q0 -18 16 -28t64 -23q109 -23 148 -62q38 -39 38 -107t-50 -114q-50 -45 -144 -45t-152 43q-57 43 -63 129
h131q12 -72 80 -72zM637 1020v-107h-125v492h217q25 -92 70 -305h2q27 113 82 305h200v-492h-131v134q0 16 13 274h-4q-51 -201 -105 -406h-131q-50 224 -92 406h-6q10 -82 10 -301z" />
    <glyph glyph-name="trademark" unicode="&#x2122;" horiz-adv-x="1054" 
d="M-6 1405h422v-113h-144v-379h-135v379h-143v113zM594 1020v-107h-125v492h217q43 -164 70 -299h2q14 57 84 299h198v-492h-129v134q0 51 11 276h-4l-105 -408h-131l-90 408h-6q8 -188 8 -303z" />
    <glyph glyph-name="uni2126" unicode="&#x2126;" horiz-adv-x="1441" 
d="M730 1423q286 0 447 -174t160 -444q0 -375 -278 -563h307v-242h-567v291q125 79 185 197t60 304q0 394 -323 396q-158 0 -242 -113t-84 -291q0 -334 244 -493v-291h-563v242h280q-256 190 -256 559q0 264 172 443t458 179z" />
    <glyph glyph-name="estimated" unicode="&#x212e;" horiz-adv-x="1697" 
d="M1294 782v295q0 25 -18 47q-148 172 -418 172t-436 -178q-16 -25 -16 -47v-289q0 -8 8 -8h872q8 0 8 8zM1626 672h-1212q-8 0 -8 -8v-359q0 -25 16 -45q160 -180 430 -180q150 0 256 49t199 158h188q-221 -311 -647 -312q-330 0 -552 209t-222 505t227 504t549 208
t549 -208t227 -503v-18z" />
    <glyph glyph-name="onethird" unicode="&#x2153;" horiz-adv-x="1695" 
d="M1202 330v166h68q88 0 88 69q0 80 -94 80q-55 -1 -77 -25t-30 -65h-190q4 86 76 168q73 82 225 82q152 1 227 -61q76 -62 76 -162q0 -66 -34 -104t-71 -52q48 -12 94 -58t46 -140t-81 -168t-259 -74t-248 91q-60 76 -66 169h203q17 -104 125 -104t109 94q0 94 -117 94
h-70zM426 567h-217v584q-59 -6 -125 -6v153q106 14 192 80h150v-811zM416 0h-185l859 1358h186z" />
    <glyph glyph-name="twothirds" unicode="&#x2154;" horiz-adv-x="1873" 
d="M1399 324v165h67q88 0 88 70q0 80 -94 80q-55 0 -77 -25t-29 -65h-191q4 86 77 168t224 82q152 1 228 -61t75 -163q1 -65 -33 -103t-71 -52q47 -12 93 -58t46 -141q0 -94 -81 -168q-81 -73 -258 -73t-244 84q-66 84 -70 176h203q18 -104 126 -104t107 93q0 94 -117 95
h-69zM70 567v19q0 215 235 370q90 58 125 94t35 78q0 88 -94 89q-92 0 -109 -127h-194q8 135 88 212q80 76 230 76t224 -72t74 -168q0 -98 -46 -152t-160 -127t-140 -130h362l-30 -162h-600zM631 0h-185l859 1358h186z" />
    <glyph glyph-name="oneeighth" unicode="&#x215b;" horiz-adv-x="1726" 
d="M1288 666q-100 0 -100 -93q0 -88 100 -88t101 90q-1 91 -101 91zM1290 123q57 0 89 31t32 77q0 111 -120 111t-120 -111q0 -49 31 -79t88 -29zM1616 243q0 -123 -90 -191t-244 -68t-238 70t-84 186q0 118 123 176q-90 66 -90 164t78 161t222 63t218 -64q74 -65 74 -164
t-92 -152q123 -57 123 -181zM430 567h-217v584q-59 -6 -125 -6v153q106 14 193 80h149v-811zM418 0h-185l859 1358h186z" />
    <glyph glyph-name="threeeighths" unicode="&#x215c;" horiz-adv-x="1835" 
d="M293 903v166h67q88 0 89 70q0 80 -95 80q-54 0 -76 -25t-30 -66h-191q4 86 77 168q72 82 224 82t228 -61t76 -162q0 -65 -34 -103t-71 -53q47 -12 93 -58t46 -140t-81 -168t-250 -74q-90 0 -157 25q-68 24 -100 66q-62 79 -65 169h203q18 -104 126 -104t107 94
q0 94 -117 94h-69zM1430 487q100 1 100 91t-100 90t-101 -93q1 -88 101 -88zM1432 125q57 0 89 31t31 77q0 111 -120 111t-119 -111q0 -49 31 -79t88 -29zM1757 245q0 -123 -90 -191t-244 -68q-153 0 -237 70t-84 186q0 118 123 176q-90 66 -90 164t77 161q78 63 222 63
t219 -64q73 -65 73 -164t-92 -152q123 -57 123 -181zM582 0h-185l858 1358h187z" />
    <glyph glyph-name="fiveeighths" unicode="&#x215d;" horiz-adv-x="1855" 
d="M1538 580q0 90 -100 90t-101 -92q1 -88 101 -88t100 90zM1440 127q57 0 89 31t32 78q0 110 -120 110t-120 -110q0 -49 31 -79t88 -30zM1765 247q1 -123 -89 -191t-244 -68t-238 70t-84 187q0 118 123 175q-90 66 -90 164t78 161t222 63t218 -64q74 -65 74 -164t-93 -152
q123 -57 123 -181zM313 1198q0 -4 -9 -63t-11 -64q55 35 166 35t187 -70t77 -198q0 -128 -88 -203q-87 -76 -237 -76t-232 67t-96 181h204q20 -92 119 -92q113 0 113 121t-127 120q-88 0 -119 -63l-176 25q57 346 70 446h532l-24 -166h-349zM592 0h-184l858 1358h186z" />
    <glyph glyph-name="seveneighths" unicode="&#x215e;" horiz-adv-x="1730" 
d="M96 1364h592v-150q-197 -262 -276 -647h-224q33 193 119 368t166 263h-377v166zM1411 580q0 90 -100 90t-101 -92q0 -88 100 -88t101 90zM1313 127q57 0 89 31t32 78q0 110 -120 110t-120 -110q0 -49 31 -79t88 -30zM1305 -12q-154 0 -238 70t-84 187q0 118 123 175
q-90 66 -90 164t78 161t222 63t218 -64q74 -65 74 -164t-92 -152q122 -57 122 -181q0 -123 -90 -191t-243 -68zM438 0h-184l858 1358h186z" />
    <glyph glyph-name="uni2190" unicode="&#x2190;" horiz-adv-x="1634" 
d="M1550 569h-1093q66 -59 295 -311t286 -307l-137 -137l-817 862v2l817 864l137 -145q-62 -61 -292 -311t-289 -304h1093v-213z" />
    <glyph glyph-name="arrowup" unicode="&#x2191;" horiz-adv-x="1808" 
d="M797 -76v1209q-14 -14 -578 -588l-137 149l821 813h2l821 -813l-145 -149q-59 63 -287 295t-286 293v-1209h-211z" />
    <glyph glyph-name="uni2192" unicode="&#x2192;" horiz-adv-x="1634" 
d="M84 786h1094q-66 60 -295 312t-287 307l137 137l817 -862v-2l-817 -864l-137 145q63 61 293 310q229 249 289 304h-1094v213z" />
    <glyph glyph-name="arrowdown" unicode="&#x2193;" horiz-adv-x="1808" 
d="M1012 1466v-1208q14 14 577 588l137 -150l-821 -813h-2l-821 813l145 150q59 -64 287 -296t287 -292v1208h211z" />
    <glyph glyph-name="partialdiff" unicode="&#x2202;" horiz-adv-x="1126" 
d="M553 190q186 0 190 261q0 98 -50 150t-140 52t-143 -57q-54 -57 -54 -168q0 -110 52 -174t145 -64zM305 1421q319 0 520 -191q201 -190 201 -544t-112 -528t-384 -174q-216 0 -330 128t-114 321t121 311t303 118t248 -82v6q0 166 -133 285t-351 119q-59 0 -86 -2v229
q45 4 117 4z" />
    <glyph glyph-name="uni2206" unicode="&#x2206;" horiz-adv-x="1294" 
d="M342 242h588l-187 563q-90 285 -114 375h-2q-23 -106 -103 -369zM1239 0h-1184v174l410 1229h352l422 -1231v-172z" />
    <glyph glyph-name="product" unicode="&#x220f;" horiz-adv-x="1390" 
d="M152 1403h1087v-1598h-289v1354h-510v-1354h-288v1598z" />
    <glyph glyph-name="summation" unicode="&#x2211;" horiz-adv-x="1087" 
d="M29 -195v175l424 622l-406 625v176h938v-244h-571l350 -526l-383 -586h666l-41 -242h-977z" />
    <glyph glyph-name="minus" unicode="&#x2212;" horiz-adv-x="1208" 
d="M1098 412h-989v211h989v-211z" />
    <glyph glyph-name="uni2215" unicode="&#x2215;" horiz-adv-x="333" 
d="M-170 0h-184l858 1358h186z" />
    <glyph glyph-name="uni2219" unicode="&#x2219;" horiz-adv-x="423" 
d="M348 410h-272v323h272v-323z" />
    <glyph glyph-name="radical" unicode="&#x221a;" horiz-adv-x="1222" 
d="M1239 1735l-471 -2124h-164l-305 823l-176 -78l-60 179l394 176q195 -594 209 -654q27 145 352 1678h221z" />
    <glyph glyph-name="infinity" unicode="&#x221e;" horiz-adv-x="1599" 
d="M1333 584q0 72 -40 114t-104 41q-104 0 -179 -69q-27 -25 -86 -86q2 -2 24 -25t43 -43q19 -20 31 -27q12 -8 30 -21t29 -17q12 -3 33 -13t81 -10q61 0 99 42t39 114zM419 428q73 0 130 36t123 107q-10 10 -40 44q-84 95 -149 115q-29 9 -61 9q-76 0 -117 -44
q-41 -45 -41 -113t41 -111t114 -43zM406 231q-150 -1 -241 95t-91 252t95 252t251 98q80 0 156 -37t116 -74q41 -37 109 -106q80 79 120 113q41 34 117 69t160 35q150 0 240 -94t90 -249t-96 -254t-252 -100q-109 1 -196 55t-196 165q-58 -61 -82 -84q-98 -96 -184 -120
q-53 -16 -116 -16z" />
    <glyph glyph-name="integral" unicode="&#x222b;" horiz-adv-x="659" 
d="M563 1454q-81 0 -109 -63t-28 -221t22 -583t16 -525q-14 -210 -74 -294q-32 -46 -91 -79t-145 -33t-160 27l31 227q55 -16 101 -16t71 20q47 38 47 256q0 129 -18 498q-17 369 -17 476q0 108 5 170t25 136q19 74 52 121t95 80t150 33t136 -21l-21 -217q-57 8 -88 8z" />
    <glyph glyph-name="approxequal" unicode="&#x2248;" horiz-adv-x="1212" 
d="M295 575h-184v46q1 143 67 209t170 65q104 0 259 -59q155 -60 210 -60t77 20t21 74v15h187v-47q0 -281 -250 -281q-100 0 -254 61q-154 62 -206 62t-75 -25t-22 -63v-17zM295 166h-184v49q0 139 73 205q74 66 176 66t252 -61q152 -60 219 -60q84 0 84 88v18h187v-51
q0 -270 -230 -270q-110 0 -270 58t-223 58q-84 0 -84 -88v-12z" />
    <glyph glyph-name="notequal" unicode="&#x2260;" horiz-adv-x="1206" 
d="M1098 846v-211h-342l-109 -240h451v-211h-549l-78 -170h-190l77 170h-249v211h346l110 240h-456v211h553l86 188h192l-86 -188h244z" />
    <glyph glyph-name="lessequal" unicode="&#x2264;" horiz-adv-x="1130" 
d="M1020 0h-911v211h911v-211zM109 676v198l911 396v-221l-666 -269l666 -280v-217z" />
    <glyph glyph-name="greaterequal" unicode="&#x2265;" horiz-adv-x="1130" 
d="M1020 0h-911v211h911v-211zM1020 874v-198l-911 -393v219l667 268l-667 281v219z" />
    <glyph glyph-name="uni25A0" unicode="&#x25a0;" horiz-adv-x="845" 
d="M162 266v525h522v-525h-522z" />
    <glyph glyph-name="triagup" unicode="&#x25b2;" horiz-adv-x="1312" 
d="M1237 0h-1161l569 1229h8z" />
    <glyph glyph-name="uni25B3" unicode="&#x25b3;" horiz-adv-x="1312" 
d="M354 178h582l-293 651zM1237 0h-1161l569 1229h8z" />
    <glyph glyph-name="uni25B6" unicode="&#x25b6;" horiz-adv-x="1398" 
d="M104 23v1165l1229 -570v-8z" />
    <glyph glyph-name="uni25B7" unicode="&#x25b7;" horiz-adv-x="1398" 
d="M936 614l-645 289v-584zM104 23v1165l1229 -570v-8z" />
    <glyph glyph-name="triagdn" unicode="&#x25bc;" horiz-adv-x="1312" 
d="M76 1208h1161l-569 -1228h-6z" />
    <glyph glyph-name="uni25BD" unicode="&#x25bd;" horiz-adv-x="1312" 
d="M961 1032h-582l291 -653zM76 1208h1161l-569 -1228h-6z" />
    <glyph glyph-name="uni25C0" unicode="&#x25c0;" horiz-adv-x="1398" 
d="M1292 1188v-1165l-1229 569v8z" />
    <glyph glyph-name="uni25C1" unicode="&#x25c1;" horiz-adv-x="1398" 
d="M1106 891l-645 -295l645 -289v584zM1292 1188v-1165l-1229 569v8z" />
    <glyph glyph-name="uni25C6" unicode="&#x25c6;" horiz-adv-x="921" 
d="M90 530l367 377l372 -387l-364 -379z" />
    <glyph glyph-name="uni25C9" unicode="&#x25c9;" horiz-adv-x="1130" 
d="M864 527q0 135 -85 231t-212 96t-210 -94t-83 -232t83 -232q83 -95 212 -95t212 95t83 231zM569 49q-195 0 -329 139t-134 340t136 340q136 140 327 140q193 0 325 -140t130 -341q-2 -200 -131 -339t-324 -139zM567 698q72 0 120 -50t48 -121t-47 -124t-120 -53
q-72 0 -118 52t-46 125t45 122q46 49 118 49z" />
    <glyph glyph-name="lozenge" unicode="&#x25ca;" horiz-adv-x="1150" 
d="M1067 672l-412 -760h-176l-395 756l405 759h177zM854 668l-223 430q-10 18 -32 63t-24 49h-6q-10 -31 -51 -112l-219 -426l221 -434q31 -63 49 -111h4q25 45 56 106z" />
    <glyph glyph-name="uni2610" unicode="&#x2610;" horiz-adv-x="1894" 
d="M291 1364v-1350h1278v1350h-1278zM1726 1511v-1486l-129 -134h-1431v1502l106 118h1454z" />
    <glyph glyph-name="uni2611" unicode="&#x2611;" horiz-adv-x="1894" 
d="M1233 1241h197q-305 -479 -623 -1114h-68q-154 203 -295 469l164 123q86 -219 170 -334q246 534 455 856zM291 1364v-1350h1278v1350h-1278zM1726 1511v-1486l-129 -134h-1431v1502l106 118h1454z" />
    <glyph glyph-name="uni2713" unicode="&#x2713;" horiz-adv-x="1413" 
d="M1155 1507h254q-440 -739 -870 -1638h-95q-166 227 -370 682l219 135q113 -332 203 -487q370 821 659 1308z" />
    <glyph glyph-name="uni2752" unicode="&#x2752;" horiz-adv-x="1030" 
d="M270 707v-431h406v431h-406zM883 922v-615l-152 -166h-586v609l166 172h572z" />
    <glyph glyph-name="fi" unicode="&#xfb01;" horiz-adv-x="1189" 
d="M1036 1233h-278v256h278v-256zM758 0v1061h278v-1061h-278zM438 0h-276v844h-146v217h146v96q0 164 80 255t245 91q70 0 119 -16v-221q-41 8 -74 8q-94 0 -94 -123v-90h174v-217h-174v-844z" />
    <glyph glyph-name="fl" unicode="&#xfb02;" horiz-adv-x="1189" 
d="M1036 0h-278v1489h278v-1489zM438 0h-276v844h-146v217h146v96q0 164 80 255t245 91q70 0 119 -16v-221q-41 8 -74 8q-94 0 -94 -123v-90h174v-217h-174v-844z" />
    <glyph glyph-name="uni00470303" horiz-adv-x="1398" 
d="M514 1538h-184v72q0 209 192 209q68 0 176 -42t131 -42q53 0 54 69v19h182v-47q0 -244 -201 -244q-70 0 -171 42t-126 42q-53 0 -53 -49v-29zM1270 784v-784h-211q-16 76 -21 164q-96 -184 -376 -184t-428 198q-146 199 -146 514t171 522t470 207q240 -1 377 -117
t166 -303h-281q-57 190 -278 191q-172 0 -252 -140t-80 -358t82 -352q82 -135 250 -135q272 0 272 328v6h-293v243h578z" />
    <glyph glyph-name="uni00670303" horiz-adv-x="1171" 
d="M428 1204h-188v64q0 221 188 221q74 0 164 -42t113 -42q45 0 45 70v16h184v-45q0 -246 -203 -246q-70 0 -157 41t-109 41q-37 0 -37 -47v-31zM356 552q0 -148 56 -230t166 -82q108 0 156 72t48 235q0 165 -40 235t-152 70t-174 -76q-60 -76 -60 -224zM1047 104
q-1 -528 -487 -528q-248 0 -355 99q-106 99 -117 243h274q29 -129 199 -129q125 0 169 71t44 226v66q-74 -140 -274 -140t-316 142q-114 142 -114 388q0 245 128 392t324 147t246 -118q0 37 12 98h271q-4 -107 -4 -320v-637z" />
    <glyph glyph-name="zero.slash" horiz-adv-x="1153" 
d="M578 197q118 0 166 133t49 379q0 106 -11 194l-352 -622q54 -84 148 -84zM582 1163q-225 0 -226 -456q0 -125 13 -222l350 613q-47 65 -137 65zM584 1378q166 0 276 -92q202 -169 201 -573q0 -733 -483 -733q-378 0 -462 447q-24 122 -24 273q0 302 119 490t373 188z" />
    <glyph glyph-name="zero.slashtab" horiz-adv-x="1124" 
d="M563 197q117 0 166 133t49 379q0 106 -10 194l-352 -622q53 -84 147 -84zM567 1163q-225 0 -225 -456q0 -125 12 -222l351 613q-48 65 -138 65zM569 1378q166 0 276 -92q109 -92 155 -237t47 -336q0 -733 -484 -733q-137 0 -235 58t-150 162q-101 202 -101 503
q1 299 119 487t373 188z" />
    <glyph glyph-name="zero.tab" horiz-adv-x="1124" 
d="M566 1167q-108 -1 -156 -111t-50 -358q0 -248 46 -378t163 -130q118 0 157 138q38 138 38 375t-45 351q-45 113 -153 113zM569 1378q248 0 363 -178t115 -487q-1 -733 -485 -733t-484 720q0 292 115 478q57 94 153 147t223 53z" />
    <glyph glyph-name="one.tab" horiz-adv-x="1124" 
d="M975 0h-789v231h263v824q-125 -20 -236 -13v201q184 12 293 125h215v-1137h254v-231z" />
    <glyph glyph-name="two.tab" horiz-adv-x="1124" 
d="M92 0v10q0 164 85 324t327 344q131 102 177 162t46 143q0 84 -45 132t-127 48q-174 0 -195 -221h-266q8 188 124 312t337 124t338 -112t117 -283q0 -133 -66 -230t-266 -244t-250 -280h619l-35 -229h-920z" />
    <glyph glyph-name="three.tab" horiz-adv-x="1124" 
d="M1055 403q0 -172 -124 -298q-125 -125 -365 -125t-358 112t-130 283h270q33 -180 219 -180q203 -1 203 207t-238 208h-102v219h84q109 0 158 38t49 130q0 170 -174 170q-166 0 -189 -180h-254q16 166 125 279q109 112 330 112t330 -103t108 -257q0 -106 -53 -175
t-125 -98v-4q236 -80 236 -338z" />
    <glyph glyph-name="four.tab" horiz-adv-x="1124" 
d="M659 539v295q0 229 7 321q-42 -86 -190 -338t-163 -278h346zM915 0h-256v313h-596v244l510 805h342v-823h146l-25 -226h-121v-313z" />
    <glyph glyph-name="five.tab" horiz-adv-x="1124" 
d="M631 920q197 0 305 -126t106 -335q0 -209 -127 -344t-370 -135q-201 0 -326 97t-139 288h270q33 -170 201 -170q209 0 209 260q0 113 -52 181t-159 66q-162 0 -215 -141l-232 35q45 238 99 762h794l-32 -228h-545q-16 -172 -35 -288q90 78 248 78z" />
    <glyph glyph-name="six.tab" horiz-adv-x="1124" 
d="M578 190q92 0 144 68t52 192q0 248 -200 248t-199 -223q0 -285 203 -285zM640 909q181 -1 296 -113t115 -327t-123 -351t-346 -136q-268 0 -379 172t-111 484t107 516q55 104 158 164t245 60q193 0 295 -93t125 -238h-268q-31 123 -170 122q-211 0 -219 -381
q94 121 275 121z" />
    <glyph glyph-name="seven.tab" horiz-adv-x="1124" 
d="M102 1358h910v-217q-174 -231 -305 -537t-191 -604h-289q59 312 205 622t303 508h-633v228z" />
    <glyph glyph-name="eight.tab" horiz-adv-x="1124" 
d="M565 1174q-86 0 -131 -46t-45 -127q0 -80 45 -129t130 -49t130 45t45 127q0 83 -44 131t-130 48zM354 406q0 -96 56 -157t156 -61q102 0 152 60t50 158q0 100 -54 156t-156 56t-154 -58q-50 -58 -50 -154zM556 -20q-232 0 -354 118t-122 297q0 125 62 206t145 118
q-74 41 -117 117t-43 170q0 170 118 271q117 101 319 101t321 -99t119 -265q0 -201 -168 -281q84 -33 147 -118t64 -209q0 -202 -129 -314q-130 -112 -362 -112z" />
    <glyph glyph-name="nine.tab" horiz-adv-x="1124" 
d="M553 1169q-92 0 -143 -62q-52 -62 -52 -175t54 -172t143 -60q195 0 195 197q0 272 -197 272zM551 188q51 0 89 29q70 53 91 150t29 221q-74 -100 -257 -100t-303 114q-120 116 -120 314t127 330t342 132q483 0 483 -633q0 -561 -257 -707q-99 -56 -240 -56
q-201 0 -305 97q-103 97 -121 238h270q33 -129 172 -129z" />
    <glyph glyph-name="zero.slashcap" horiz-adv-x="1198" 
d="M600 201q123 0 170 131t47 399q0 119 -8 193l-356 -635q51 -88 147 -88zM596 1200q-216 0 -215 -471q0 -133 12 -231l357 628q-48 74 -154 74zM606 1421q250 0 370 -184t120 -502q0 -419 -144 -604q-53 -67 -143 -109t-209 -42q-498 0 -498 743q0 288 113 484
q57 99 157 157t234 57z" />
    <glyph glyph-name="zero.cap" horiz-adv-x="1198" 
d="M604 1200q-219 0 -219 -471q0 -528 215 -528q123 0 168 130t45 384q0 253 -49 369t-160 116zM606 1421q252 0 375 -185t123 -501q0 -549 -253 -695q-103 -60 -251 -60q-506 0 -506 743q0 286 116 484q58 99 160 157t236 57z" />
    <glyph glyph-name="one.cap" horiz-adv-x="657" 
d="M500 0h-285v1094q-27 -4 -178 -13v199q158 23 252 125h211v-1405z" />
    <glyph glyph-name="two.cap" horiz-adv-x="1089" 
d="M66 0v14q0 203 98 358t348 347q129 103 171 157t42 142t-46 138t-134 50q-184 0 -205 -235h-272q10 195 127 321t349 129t352 -111t120 -294q0 -144 -70 -244t-256 -233q-240 -172 -280 -303h641l-35 -236h-950z" />
    <glyph glyph-name="three.cap" horiz-adv-x="1126" 
d="M1004 1051q0 -117 -58 -186t-129 -95v-4q102 -35 172 -120t70 -220q0 -190 -127 -318q-128 -128 -372 -128t-366 114t-135 281h287q29 -180 213 -180q207 0 207 221q0 215 -248 215h-98v227h82q106 0 161 39q54 39 54 135q0 176 -174 176q-150 0 -185 -170h-270
q16 160 133 272t334 112t333 -104q116 -103 116 -267z" />
    <glyph glyph-name="four.cap" horiz-adv-x="1140" 
d="M684 555v295q0 236 6 330q-39 -74 -180 -314t-182 -311h356zM944 0h-260v328h-618v235l530 844h348v-852h152l-25 -227h-127v-328z" />
    <glyph glyph-name="five.cap" horiz-adv-x="1161" 
d="M649 950q203 0 316 -125t113 -349t-131 -360q-130 -136 -380 -136q-199 0 -329 103t-144 296h281q12 -84 65 -132t135 -48q211 0 211 274q0 252 -213 252q-92 0 -141 -37t-78 -110l-237 36q92 733 96 789h823l-32 -236h-568q-15 -172 -37 -295q86 78 250 78z" />
    <glyph glyph-name="six.cap" horiz-adv-x="1157" 
d="M596 199q203 0 203 266q-1 123 -53 189t-152 67q-199 0 -199 -236q1 -127 49 -207t152 -79zM598 1208q-213 0 -217 -395q99 117 287 117t303 -119t115 -333t-131 -355q-130 -141 -355 -141q-506 0 -506 692q0 748 527 747q195 0 303 -96t127 -250h-279q-29 133 -174 133z
" />
    <glyph glyph-name="seven.cap" horiz-adv-x="976" 
d="M20 1403h938v-223q-178 -244 -305 -553t-190 -627h-309q59 314 202 630t308 537h-644v236z" />
    <glyph glyph-name="eight.cap" horiz-adv-x="1165" 
d="M584 1212q-82 0 -128 -47t-46 -131t45 -134t129 -50q176 0 176 178q0 86 -47 135t-129 49zM587 193q101 0 154 61q53 62 53 166t-56 162q-58 58 -159 57q-101 0 -155 -59q-54 -60 -55 -160q0 -100 58 -164q59 -63 160 -63zM1081 412q0 -200 -133 -316
q-132 -116 -372 -116t-366 122t-126 312q0 127 62 211t147 120q-156 95 -156 279t119 292t327 108q209 0 329 -102q120 -101 120 -271q0 -207 -160 -295q82 -35 146 -123t63 -221z" />
    <glyph glyph-name="nine.cap" horiz-adv-x="1155" 
d="M768 943q0 117 -47 191t-149 74t-154 -64q-53 -64 -53 -180q0 -114 56 -176t150 -63q94 0 146 50q51 50 51 168zM563 199q97 0 142 76t57 169q13 92 16 174q-82 -112 -269 -112t-309 119t-122 321t126 339q126 136 374 138t365 -171q116 -173 118 -472q2 -383 -116 -591
t-396 -207q-211 0 -320 99t-123 257h281q35 -139 176 -139z" />
    <glyph glyph-name="period.sups" horiz-adv-x="370" 
d="M295 881h-217v249h217v-249z" />
    <glyph glyph-name="comma.sups" horiz-adv-x="409" 
d="M121 1130h211q0 -251 -86 -423h-191q66 188 66 423z" />
    <glyph glyph-name="dollar.sups" horiz-adv-x="802" 
d="M500 768h-178v111q-246 31 -279 243h209q29 -96 154 -96t124 70q0 37 -32 57q-33 20 -127 39q-170 31 -240 88q-70 56 -70 152q-1 96 61 164t185 85v99h178v-99q121 -21 179 -83t63 -142h-207q-25 84 -133 84t-108 -65q0 -35 30 -53q31 -17 127 -40q176 -37 245 -94
t69 -162q0 -209 -250 -245v-113z" />
    <glyph glyph-name="cent.sups" horiz-adv-x="786" 
d="M520 862h-188v99q-127 20 -195 104q-67 84 -67 212t65 211q66 83 180 107v93h179v-89q119 -18 176 -87t59 -138h-199q-20 88 -118 88q-133 0 -133 -182t139 -182q85 0 112 82h201q-29 -176 -211 -215v-103z" />
    <glyph glyph-name="hyphen.sups" horiz-adv-x="475" 
d="M66 1368h346v-180h-346v180z" />
    <glyph glyph-name="period.subs" horiz-adv-x="370" 
d="M295 -311h-217v250h217v-250z" />
    <glyph glyph-name="comma.subs" horiz-adv-x="409" 
d="M121 -61h211q0 -252 -86 -424h-191q66 188 66 424z" />
    <glyph glyph-name="dollar.subs" horiz-adv-x="802" 
d="M500 -424h-178v111q-246 31 -279 243h209q29 -96 154 -96t124 70q0 37 -32 57q-33 20 -127 39q-170 31 -240 88q-70 56 -70 152q-1 96 61 164t185 85v99h178v-99q121 -20 179 -82t63 -143h-207q-25 84 -133 84t-108 -65q0 -35 30 -53q31 -17 127 -40q176 -37 245 -94
t69 -162q0 -209 -250 -245v-113z" />
    <glyph glyph-name="cent.subs" horiz-adv-x="786" 
d="M520 -330h-188v99q-127 20 -195 104q-67 84 -67 212t65 211q66 83 180 107v93h179v-88q119 -18 176 -87t59 -139h-199q-20 88 -118 88q-133 0 -133 -182t139 -182q85 0 112 82h201q-29 -176 -211 -215v-103z" />
    <glyph glyph-name="hyphen.subs" horiz-adv-x="475" 
d="M66 176h346v-180h-346v180z" />
    <glyph glyph-name="zero.numr" horiz-adv-x="796" 
d="M398 1208q-60 0 -91 -51t-31 -178q0 -250 123 -250q63 0 93 55q28 56 28 190t-31 184t-91 50zM57 970q0 184 90 296t256 112t250 -110t84 -296t-87 -300t-257 -115q-170 0 -253 115t-83 298z" />
    <glyph glyph-name="one.numr" horiz-adv-x="524" 
d="M408 567h-218v584q-59 -6 -124 -6v153q106 14 192 80h150v-811z" />
    <glyph glyph-name="two.numr" horiz-adv-x="733" 
d="M53 567v19q0 215 236 370q90 58 125 94t35 78q0 88 -95 89q-92 0 -108 -127h-195q8 135 88 212q80 76 230 76q151 0 225 -72t74 -168q0 -98 -46 -152t-161 -127t-139 -130h362l-31 -162h-600z" />
    <glyph glyph-name="three.numr" horiz-adv-x="743" 
d="M293 903v166h67q88 0 89 70q0 80 -95 80q-54 0 -76 -25t-30 -66h-191q4 86 77 168q72 82 224 82t228 -61t76 -162q0 -65 -34 -103t-71 -53q47 -12 93 -58t46 -140t-81 -168t-250 -74q-90 0 -157 25q-68 24 -100 66q-62 79 -65 169h203q18 -104 126 -104t107 94
q0 94 -117 94h-69z" />
    <glyph glyph-name="four.numr" horiz-adv-x="747" 
d="M408 911v103q0 117 6 192q-76 -143 -172 -295h166zM606 567h-198v193h-359v153l295 455h262v-457h111l-15 -151h-96v-193z" />
    <glyph glyph-name="five.numr" horiz-adv-x="768" 
d="M295 1198q0 -4 -9 -63t-12 -64q55 35 166 35t188 -70t77 -198q-1 -128 -89 -203q-88 -76 -237 -76t-232 67q-82 67 -96 181h205q20 -92 119 -92q113 0 112 121q0 121 -127 120q-86 0 -118 -63l-176 25q57 346 69 446h533l-25 -166h-348z" />
    <glyph glyph-name="six.numr" horiz-adv-x="774" 
d="M390 713q56 -1 90 31t34 96q0 127 -119 127q-49 0 -84 -30t-35 -85t29 -97t85 -42zM397 1223q-121 0 -129 -183q60 68 186 68t198 -68t73 -192q0 -124 -86 -207q-86 -84 -247 -84t-247 108t-86 281t72 294q37 62 108 100t164 38q270 0 297 -227h-194q-27 72 -109 72z" />
    <glyph glyph-name="seven.numr" horiz-adv-x="706" 
d="M63 1364h592v-150q-197 -262 -276 -647h-223q33 193 118 368q86 175 166 263h-377v166z" />
    <glyph glyph-name="eight.numr" horiz-adv-x="751" 
d="M475 1149q0 90 -100 90t-101 -92q0 -88 100 -88t101 90zM377 696q57 0 89 31t32 78q0 111 -120 111t-120 -111q0 -49 31 -79t88 -30zM369 557q-154 0 -238 70q-84 69 -84 187t123 175q-90 66 -90 164q0 97 78 161t222 64t218 -64t74 -164t-92 -153q122 -57 122 -181
t-90 -192t-243 -67z" />
    <glyph glyph-name="nine.numr" horiz-adv-x="770" 
d="M373 1221q-53 0 -84 -29t-31 -82t34 -84t86 -31t84 25t32 74q0 127 -121 127zM325 846q-116 0 -195 66t-79 183q0 119 87 201t235 82q338 0 338 -383q0 -436 -342 -436q-141 -1 -217 61t-91 160h211q25 -74 105 -74t99 67q19 66 22 130q-57 -57 -173 -57z" />
    <glyph glyph-name="parenleft.numr" horiz-adv-x="477" 
d="M262 957q0 -268 152 -506h-176q-158 211 -158 505t158 517h176q-152 -248 -152 -516z" />
    <glyph glyph-name="parenright.numr" horiz-adv-x="477" 
d="M207 963q0 268 -152 510h176q61 -80 111 -212t49 -298q0 -293 -160 -512h-176q152 244 152 512z" />
    <glyph glyph-name="period.numr" horiz-adv-x="370" 
d="M295 567h-217v250h217v-250z" />
    <glyph glyph-name="comma.numr" horiz-adv-x="409" 
d="M121 817h211q0 -252 -86 -424h-191q66 188 66 424z" />
    <glyph glyph-name="dollar.numr" horiz-adv-x="802" 
d="M500 455h-178v110q-246 31 -279 244h209q29 -96 154 -96t124 69q0 37 -32 58q-33 20 -127 39q-170 31 -240 88t-70 152q-1 95 61 163t185 86v98h178v-98q121 -20 179 -82t63 -143h-207q-25 84 -133 84t-108 -66q1 -35 31 -52t126 -40q176 -37 245 -94t69 -162
q0 -209 -250 -246v-112z" />
    <glyph glyph-name="cent.numr" horiz-adv-x="786" 
d="M520 549h-188v98q-127 21 -195 105q-67 84 -67 212t65 211q66 83 180 107v92h179v-88q119 -18 176 -87t59 -138h-199q-20 88 -118 88q-133 0 -133 -182t139 -183q85 0 112 82h201q-29 -176 -211 -215v-102z" />
    <glyph glyph-name="hyphen.numr" horiz-adv-x="475" 
d="M66 1055h346v-181h-346v181z" />
    <glyph glyph-name="zero.dnom" horiz-adv-x="796" 
d="M398 647q-60 0 -91 -51t-31 -178q0 -250 123 -250q63 0 93 55q28 55 28 189t-31 185q-31 50 -91 50zM57 409q0 183 90 295t256 113q166 -1 250 -111t84 -296t-87 -300t-257 -114t-253 115t-83 298z" />
    <glyph glyph-name="one.dnom" horiz-adv-x="524" 
d="M408 6h-218v584q-59 -6 -124 -6v153q106 14 192 80h150v-811z" />
    <glyph glyph-name="two.dnom" horiz-adv-x="733" 
d="M53 6v19q0 215 236 370q90 59 125 94t35 78q1 88 -93 88t-110 -127h-195q8 135 88 212t230 77q151 0 225 -72t74 -169t-46 -151t-161 -127t-139 -130h362l-31 -162h-600z" />
    <glyph glyph-name="three.dnom" horiz-adv-x="743" 
d="M293 342v166h67q88 0 89 70q0 80 -95 79q-54 -1 -76 -25t-30 -65h-191q4 86 77 168q72 82 224 82t228 -61t76 -162q0 -66 -34 -104t-71 -52q47 -12 93 -58t46 -140t-81 -168t-250 -74q-90 0 -157 25q-68 25 -100 67q-62 79 -65 168h203q18 -104 126 -104t107 94
q0 94 -117 94h-69z" />
    <glyph glyph-name="four.dnom" horiz-adv-x="747" 
d="M408 350v103q0 117 6 192q-76 -143 -172 -295h166zM606 6h-198v193h-359v153l295 455h262v-457h111l-15 -151h-96v-193z" />
    <glyph glyph-name="five.dnom" horiz-adv-x="768" 
d="M295 637q0 -3 -9 -63t-12 -64q55 35 166 35t188 -70q77 -69 77 -197q-1 -128 -89 -204t-237 -76t-232 67q-82 67 -96 181h205q20 -92 119 -92q113 0 112 120q0 121 -127 121q-86 0 -118 -63l-176 24q57 346 69 447h533l-25 -166h-348z" />
    <glyph glyph-name="six.dnom" horiz-adv-x="774" 
d="M390 152q56 0 90 32t34 95q0 127 -119 127q-49 0 -84 -30t-35 -85t29 -97t85 -42zM397 662q-121 0 -129 -183q60 68 186 68t198 -68q72 -67 73 -191q0 -124 -86 -208t-247 -84t-247 108t-86 281q0 174 72 294q37 62 108 100t164 38q270 0 297 -227h-194q-27 72 -109 72z
" />
    <glyph glyph-name="seven.dnom" horiz-adv-x="706" 
d="M63 803h592v-150q-197 -262 -276 -647h-223q33 193 118 368q86 175 166 263h-377v166z" />
    <glyph glyph-name="eight.dnom" horiz-adv-x="751" 
d="M475 588q0 90 -100 90t-101 -92q0 -88 100 -88t101 90zM377 135q57 0 89 31t32 78q0 110 -120 110t-120 -110q0 -49 31 -79t88 -30zM369 -4q-154 0 -238 70t-84 188t123 174q-90 66 -90 164t78 162t222 63t218 -65t74 -164t-92 -152q122 -57 122 -181q0 -123 -90 -191
t-243 -68z" />
    <glyph glyph-name="nine.dnom" horiz-adv-x="770" 
d="M373 659q-115 0 -115 -114q0 -49 34 -80t86 -31t84 25t32 73q0 127 -121 127zM325 285q-116 -1 -195 65t-79 184t87 200t235 83q338 0 338 -383q0 -436 -342 -436q-141 0 -217 62t-91 159h211q25 -74 105 -74t99 67t22 130q-57 -57 -173 -57z" />
    <glyph glyph-name="parenleft.dnom" horiz-adv-x="477" 
d="M262 395q0 -268 152 -506h-176q-158 211 -158 505t158 517h176q-152 -248 -152 -516z" />
    <glyph glyph-name="parenright.dnom" horiz-adv-x="477" 
d="M207 401q0 268 -152 510h176q61 -80 111 -212t49 -298q0 -293 -160 -512h-176q152 244 152 512z" />
    <glyph glyph-name="period.dnom" horiz-adv-x="370" 
d="M295 6h-217v250h217v-250z" />
    <glyph glyph-name="comma.dnom" horiz-adv-x="409" 
d="M121 256h211q0 -252 -86 -424h-191q66 188 66 424z" />
    <glyph glyph-name="dollar.dnom" horiz-adv-x="802" 
d="M500 -106h-178v110q-246 31 -279 244h209q29 -96 154 -96t124 69q0 37 -32 58q-33 20 -127 38q-170 31 -240 89t-70 152q-1 95 61 163t185 86v98h178v-98q121 -21 179 -83t63 -142h-207q-25 84 -133 84t-108 -66q1 -35 31 -52t126 -40q176 -37 245 -94t69 -162
q0 -209 -250 -246v-112z" />
    <glyph glyph-name="cent.dnom" horiz-adv-x="786" 
d="M520 -12h-188v98q-127 20 -195 104q-67 84 -67 212t65 211q66 83 180 108v92h179v-88q119 -18 176 -87t59 -138h-199q-20 88 -118 88q-133 0 -133 -182t139 -183q85 0 112 82h201q-29 -176 -211 -215v-102z" />
    <glyph glyph-name="hyphen.dnom" horiz-adv-x="475" 
d="M66 494h346v-181h-346v181z" />
    <glyph glyph-name="a.sups" horiz-adv-x="731" 
d="M444 850v16h-73q-123 0 -123 -84q0 -32 22 -54t60 -21q114 0 114 143zM645 1018v-279q0 -106 6 -180h-196q-8 41 -9 70q-59 -82 -196 -82q-96 0 -154 59q-57 59 -57 152q0 238 338 237h59v41q0 84 -82 84q-47 0 -63 -22t-21 -58h-200q4 88 71 151q67 62 225 62t219 -65
q60 -66 60 -170z" />
    <glyph glyph-name="b.sups" horiz-adv-x="784" 
d="M526 898q0 188 -120 189q-130 -1 -130 -189t121 -187q129 -1 129 187zM80 1518h201v-349q59 84 179 84t197 -82q76 -83 76 -259t-81 -268q-80 -92 -200 -93q-120 0 -173 78q0 -27 -5 -68h-196l2 256v701z" />
    <glyph glyph-name="c.sups" horiz-adv-x="706" 
d="M49 907q0 152 87 249t239 97q153 1 221 -71t76 -178h-197q-18 98 -104 98q-111 0 -111 -187q0 -217 117 -217q80 1 100 99h197q-12 -113 -90 -181t-213 -67q-322 0 -322 358z" />
    <glyph glyph-name="d.sups" horiz-adv-x="796" 
d="M260 901q0 -86 32 -137t96 -51t94 45q30 46 30 152t-27 142t-91 36t-99 -51q-35 -50 -35 -136zM504 1518h205v-762q0 -152 2 -195h-195q-4 33 -4 78q-51 -90 -180 -90t-205 92q-76 91 -76 251t82 260t208 101q126 0 163 -55v320z" />
    <glyph glyph-name="e.sups" horiz-adv-x="731" 
d="M492 975q0 139 -113 139t-123 -139h236zM686 856h-432q0 -70 33 -112t88 -42t78 16t36 48h191q-51 -215 -311 -215q-162 0 -241 99q-79 98 -79 250t85 254t246 101q162 0 234 -94t72 -231v-74z" />
    <glyph glyph-name="f.sups" horiz-adv-x="391" 
d="M291 561h-197v529h-86v149h86v53q0 110 56 174t163 64q55 0 90 -8v-160q-25 6 -45 6q-68 0 -67 -88v-41h112v-149h-112v-529z" />
    <glyph glyph-name="g.sups" horiz-adv-x="790" 
d="M262 909q0 -180 121 -180q73 0 99 44t26 140q0 97 -27 137t-90 40q-129 -1 -129 -181zM705 1036v-393q0 -174 -77 -268t-248 -94q-171 -1 -243 69t-82 160h215q23 -82 113 -82q119 0 119 190v29q-39 -80 -168 -80t-205 90t-76 250t81 250t206 94t168 -71q0 29 4 61h195
q-2 -43 -2 -205z" />
    <glyph glyph-name="h.sups" horiz-adv-x="784" 
d="M80 561v957h201v-347q66 82 179 82t177 -65q63 -66 63 -195v-432h-198v393q0 129 -99 129q-123 0 -122 -165v-357h-201z" />
    <glyph glyph-name="i.sups" horiz-adv-x="362" 
d="M281 1348h-201v170h201v-170zM281 561h-201v678h201v-678z" />
    <glyph glyph-name="j.sups" horiz-adv-x="366" 
d="M287 1348h-201v170h201v-170zM0 281v178h27q39 -1 50 23t11 79v678h199v-666q-1 -143 -59 -218t-195 -74h-33z" />
    <glyph glyph-name="k.sups" horiz-adv-x="724" 
d="M276 768v-207h-196v957h196v-555q8 12 209 276h226l-222 -258q170 -293 246 -420h-229q-75 141 -152 295l-18 -22q-20 -22 -38 -44t-22 -22z" />
    <glyph glyph-name="l.sups" horiz-adv-x="360" 
d="M281 561h-201v957h201v-957z" />
    <glyph glyph-name="m.sups" horiz-adv-x="1146" 
d="M470 1253q130 0 173 -108q66 109 205 108q215 0 215 -260v-432h-191v395q0 127 -92 127q-55 1 -80 -37t-24 -124v-361h-203v402q0 55 -17 88q-16 33 -72 33t-79 -42q-23 -41 -22 -124v-357h-203v463l-2 215h198q4 -49 5 -90q59 104 189 104z" />
    <glyph glyph-name="o.sups" horiz-adv-x="772" 
d="M518 900q0 198 -129 198t-129 -191q0 -94 34 -149t93 -56q131 0 131 198zM392 1253q161 0 246 -97t85 -261t-92 -255t-246 -91t-245 95t-91 254t91 257t252 98z" />
    <glyph glyph-name="p.sups" horiz-adv-x="784" 
d="M526 913q0 174 -123 174q-67 -1 -97 -41t-30 -138t26 -147q26 -50 95 -50q129 -1 129 202zM283 303h-203v744q0 152 -2 192h196q8 -57 5 -92q68 106 186 106t193 -86t75 -256t-85 -265t-203 -95t-162 65v-313z" />
    <glyph glyph-name="q.sups" horiz-adv-x="788" 
d="M260 907q0 -195 123 -194q69 0 99 46t30 146q0 99 -26 141t-93 42t-100 -52q-33 -51 -33 -129zM508 303v326q-52 -80 -180 -80t-202 94t-75 255q0 161 82 258t210 97t169 -77q0 20 6 63h193q-2 -53 -2 -246v-690h-201z" />
    <glyph glyph-name="r.sups" horiz-adv-x="520" 
d="M80 561v451q0 180 -2 227h192q6 -49 6 -113q27 60 82 94t121 33v-200q-106 2 -152 -41t-46 -160v-291h-201z" />
    <glyph glyph-name="s.sups" horiz-adv-x="649" 
d="M416 746q0 56 -129 86t-176 82t-47 139t71 145q72 58 199 57t190 -65t68 -148h-174q-14 76 -89 76t-75 -47t96 -70q156 -39 208 -95t52 -147t-76 -150q-77 -58 -200 -58q-123 1 -202 57t-87 162h191q16 -78 98 -79t82 55z" />
    <glyph glyph-name="t.sups" horiz-adv-x="440" 
d="M-2 1239h96v188h197v-188h131v-149h-131v-297q0 -43 14 -61t45 -19q31 0 60 4v-146q-43 -20 -137 -20t-137 48q-42 48 -42 155v336h-96v149z" />
    <glyph glyph-name="u.sups" horiz-adv-x="778" 
d="M696 1239v-469q0 -174 4 -209h-196q-4 29 -4 88q-70 -98 -195 -98q-225 0 -225 262v426h201v-383q0 -131 98 -131q59 0 87 37t28 135v342h202z" />
    <glyph glyph-name="v.sups" horiz-adv-x="700" 
d="M12 1239h213q94 -328 133 -506h2q18 104 138 506h196q-94 -299 -219 -678h-246z" />
    <glyph glyph-name="w.sups" horiz-adv-x="1048" 
d="M621 561l-97 453h-2q-11 -73 -46 -217q-36 -144 -58 -236h-228l-176 678h213q86 -395 103 -489h2q20 129 102 489h193q92 -424 100 -487h2q16 88 100 487h205l-190 -678h-223z" />
    <glyph glyph-name="x.sups" horiz-adv-x="643" 
d="M-14 1239h229q102 -180 119 -213h2q35 74 110 213h209l-217 -324l221 -354h-225q-86 150 -119 221h-4q-35 -72 -118 -221h-209l221 338z" />
    <glyph glyph-name="y.sups" horiz-adv-x="688" 
d="M123 285q-14 0 -37 2v178q18 -2 56 -2t64 20t46 82l-252 674h231q109 -360 129 -469h2q23 141 119 469h209l-225 -674q-59 -174 -129 -227t-213 -53z" />
    <glyph glyph-name="z.sups" horiz-adv-x="636" 
d="M37 561v133q18 20 140 168t177 215h-307v162h541v-133q-16 -27 -131 -170t-174 -211h333l-24 -164h-555z" />
    <glyph glyph-name="egrave.sups" horiz-adv-x="731" 
d="M492 975q0 139 -113 139t-123 -139h236zM686 856h-432q0 -70 33 -112t88 -42t78 16t36 48h191q-51 -215 -311 -215q-162 0 -241 99q-79 98 -79 250t85 254t246 101q162 0 234 -94t72 -231v-74zM76 1518h243l177 -199h-197z" />
    <glyph glyph-name="eacute.sups" horiz-adv-x="731" 
d="M492 975q0 139 -113 139t-123 -139h236zM686 856h-432q0 -70 33 -112t88 -42t78 16t36 48h191q-51 -215 -311 -215q-162 0 -241 99q-79 98 -79 250t85 254t246 101q162 0 234 -94t72 -231v-74zM438 1516h240l-219 -199h-199z" />
    <glyph glyph-name="dong.alt" horiz-adv-x="1110" 
d="M515 735q-95 -1 -145 -73t-51 -199q1 -127 53 -199t143 -72t141 63q50 62 50 216t-48 209t-143 55zM694 1384h262v-127h115v-174h-115v-796q0 -201 7 -287h-242q-10 55 -12 111q-75 -125 -265 -125t-293 132t-103 347t117 348q118 133 293 133t236 -84v221h-430v174h430
v127z" />
    <glyph glyph-name="currency.tab" horiz-adv-x="1124" 
d="M745 709q0 101 -46 167t-141 66t-144 -66t-49 -182t53 -176t137 -61q190 0 190 252zM563 1120q121 0 211 -57l137 141l146 -151l-146 -150q39 -83 39 -197t-39 -208l146 -148l-146 -153l-135 139q-92 -57 -217 -57t-219 59l-135 -141l-144 153l142 148q-41 92 -41 206
t41 201l-142 148l142 151l141 -139q98 55 219 55z" />
    <glyph glyph-name="dollar.tab" horiz-adv-x="1124" 
d="M672 -176h-228v178q-168 25 -264 123t-108 264h272q25 -201 215 -201t191 162q0 82 -52 131t-192 101q-219 80 -310 171q-92 91 -92 243t92 245q92 94 248 119v137h228v-141q156 -29 240 -122t87 -237h-272q-10 80 -49 128q-39 49 -123 49t-127 -40t-43 -109t48 -112
q49 -43 231 -107t275 -164q93 -99 93 -249q0 -344 -360 -391v-178z" />
    <glyph glyph-name="sterling.tab" horiz-adv-x="1124" 
d="M631 1171q-135 0 -133 -192q0 -86 12 -209h272v-180h-264q-6 -231 -104 -354h643l-41 -236h-912v217q147 66 148 334q0 27 -2 39h-164v180h147q-10 86 -10 170q1 209 105 324q104 114 302 114t292 -100t98 -260h-248q-16 154 -141 153z" />
    <glyph glyph-name="yen.tab" horiz-adv-x="1124" 
d="M362 1358l205 -471h2q6 20 207 471h291l-334 -604h209v-144h-250v-106h250v-144h-250v-360h-272v360h-246v144h246v106h-246v144h207l-320 604h301z" />
    <glyph glyph-name="Euro.tab" horiz-adv-x="1124" 
d="M651 -20q-406 0 -463 514h-133v145h123v45q0 43 2 64h-125v147h138q39 241 163 361t312 120q186 0 292 -94t117 -250h-262q-27 133 -156 133q-162 0 -196 -270h328v-147h-340v-109h340v-145h-330q35 -301 207 -301q124 0 161 135h261q-63 -348 -439 -348z" />
    <glyph glyph-name="cent.tab" horiz-adv-x="1124" 
d="M700 -14h-227v161q-182 35 -279 173q-98 138 -98 344q0 205 94 345t283 177v139h227v-135q166 -27 248 -127t88 -240h-266q-20 170 -186 170q-205 -1 -205 -323t207 -322q84 0 126 40t60 118h264q-16 -142 -100 -238t-236 -123v-159z" />
    <glyph glyph-name="florin.tab" horiz-adv-x="1124" 
d="M892 1223q-74 0 -102 -49t-45 -166l-16 -115h203v-201h-234l-71 -475q-51 -347 -203 -424q-63 -33 -174 -33t-199 45l47 218q56 -27 122 -27t87 43q20 43 43 182l76 471h-166v201h199l12 80q34 254 130 368q90 107 280 107q110 0 163 -37l-40 -213q-39 25 -112 25z" />
    <glyph glyph-name="colonmonetary.tab" horiz-adv-x="1124" 
d="M573 1159q-115 0 -164 -113q-49 -114 -49 -352t48 -364t161 -127q162 0 191 184h264q-39 -293 -258 -371v-186h-143v160q-18 -2 -58 -2h-28v-158h-146v184q-313 113 -313 691q0 237 78 403t235 227v166h146v-135q14 2 43 2t43 -2v135h143v-160q242 -82 258 -387h-268
q-18 205 -183 205z" />
    <glyph glyph-name="lira.tab" horiz-adv-x="1124" 
d="M78 721v145h145q-2 23 -2 74q-1 209 103 324q104 114 302 114t293 -99t99 -261h-250q-14 154 -139 153q-76 0 -106 -53t-29 -162q0 -37 4 -90h276v-145h-262q4 -61 4 -105v-6h258v-145h-268q-18 -145 -86 -229h624l-38 -236h-895v217q121 55 135 248h-168v145h170
q-10 102 -12 111h-158z" />
    <glyph glyph-name="franc.tab" horiz-adv-x="1124" 
d="M201 0v236h-164v176h164v946h831v-236h-549v-309h510v-229h-510v-172h236v-176h-236v-236h-282z" />
    <glyph glyph-name="uni20A6.tab" horiz-adv-x="1124" 
d="M348 651h117l-27 109h-92q2 -35 2 -109zM737 651q0 72 -2 109h-108l24 -109h86zM348 0h-219v506h-98v145h98v109h-98v147h98v451h354l107 -451h145v451h219v-451h99v-147h-99v-109h99v-145h-99v-506h-327l-125 506h-154v-506zM739 285h17q-6 70 -15 221h-55zM334 1116
q8 -123 10 -209h57l-51 209h-16z" />
    <glyph glyph-name="peseta.tab" horiz-adv-x="1124" 
d="M373 686h104q106 0 166 32q59 32 76 122h-346v-154zM373 1163v-157h346q-35 158 -221 157h-125zM98 0v840h-127v166h127v352h445q184 0 306 -91t146 -261h101v-166h-101q-25 -172 -154 -266q-130 -93 -339 -93h-129v-481h-275z" />
    <glyph glyph-name="dong.tab" horiz-adv-x="1124" 
d="M524 735q-96 -1 -146 -73t-50 -199t52 -199t143 -72t142 63q50 62 50 216t-48 209q-47 55 -143 55zM702 1384h263v-127h114v-174h-114v-796q0 -201 6 -287h-242q-10 55 -12 111q-75 -125 -265 -125t-293 132t-103 347t117 348q118 133 293 133t236 -84v221h-430v174h430
v127zM98 -158h860v-172h-860v172z" />
    <glyph glyph-name="dong.alttab" horiz-adv-x="1124" 
d="M524 735q-96 -1 -146 -73t-50 -199t52 -199t143 -72t142 63q50 62 50 216t-48 209q-47 55 -143 55zM702 1384h263v-127h114v-174h-114v-796q0 -201 6 -287h-242q-10 55 -12 111q-75 -125 -265 -125t-293 132t-103 347t117 348q118 133 293 133t236 -84v221h-430v174h430
v127z" />
    <glyph glyph-name="uni20B1.tab" horiz-adv-x="1124" 
d="M406 623h106q147 0 201 110h-307v-110zM745 907v29h-339v-76h337q2 14 2 47zM406 1171v-106h307q-57 106 -197 106h-110zM141 0v733h-118v127h118v76h-118v129h118v293h367q184 0 310 -74t167 -219h98v-129h-79v-14q0 -41 -3 -62h82v-127h-104q-90 -299 -487 -299h-86
v-434h-265z" />
    <glyph glyph-name="uni20B2.tab" horiz-adv-x="1124" 
d="M572 1167q-218 0 -220 -456q0 -498 266 -498q104 0 144 20v459h262v-620q-174 -68 -319 -78v-180h-228v190q-195 45 -297 221t-102 466t102 462t297 209v145h228v-145q145 -27 233 -119t94 -242h-250q-14 76 -58 121t-152 45z" />
    <glyph glyph-name="uni20B4.tab" horiz-adv-x="1124" 
d="M567 1378q199 0 304 -96t106 -248q0 -94 -39 -164h115v-141h-246q-41 -31 -131 -88h356v-141h-567q-80 -70 -80 -151t49 -124t127 -43q182 0 213 164h240q-47 -367 -473 -366q-182 0 -301 93t-119 261q0 94 39 166h-105v141h236q72 55 125 88h-336v141h547q96 76 96 155
q0 157 -168 157q-143 0 -176 -154h-238q15 156 121 253t305 97z" />
    <glyph glyph-name="uni20B5.tab" horiz-adv-x="1124" 
d="M375 696q0 -240 45 -362t160 -123q152 0 178 184h270q-43 -332 -317 -385v-190h-254v190q-365 78 -365 684q0 276 93 444t272 212v155h254v-153q151 -31 229 -131t86 -252h-272q-18 186 -172 186q-207 0 -207 -459z" />
    <glyph glyph-name="uni20B9.tab" horiz-adv-x="1124" 
d="M106 512v211h175q119 0 193 53t75 174h-443v152h394q-68 78 -205 78h-189v178h912v-154h-289q41 -45 66 -102h223v-152h-193v-4q0 -281 -272 -387l393 -559h-313l-354 512h-173z" />
    <glyph glyph-name="uni20BA.tab" horiz-adv-x="1124" 
d="M498 0h-287v487l-148 -69v164l148 69v94l-148 -69v166l148 69v447h278v-316l242 113v-168l-242 -113v-92l242 113v-166l-242 -113v-389q156 0 231 80t93 244h248q-8 -195 -116 -357q-57 -86 -173 -140t-274 -54z" />
    <glyph glyph-name="uni20BD.tab" horiz-adv-x="1124" 
d="M455 1151v-377h112q221 0 221 191q0 186 -213 186h-120zM182 0v270h-127v179h127v122h-127v203h127v584h408q229 0 350 -106t121 -290q0 -182 -123 -286t-352 -105h-131v-122h325v-179h-325v-270h-273z" />
    <glyph glyph-name="currency.cap" horiz-adv-x="1079" 
d="M523 963q-95 0 -145 -67q-50 -68 -50 -182t53 -174t139 -61q190 0 191 252q0 100 -46 166q-47 66 -142 66zM524 1141q123 0 217 -58l136 144l147 -154l-145 -145q39 -88 39 -202t-39 -208l145 -147l-147 -152l-136 139q-96 -57 -218 -57t-218 57l-137 -139l-143 152
l141 149q-41 88 -41 205t43 203l-143 145l141 154l143 -144q92 58 215 58z" />
    <glyph glyph-name="dollar.cap" horiz-adv-x="1105" 
d="M670 -195h-244v203q-174 27 -266 127t-99 254h273q30 -190 220 -190t189 166q0 80 -52 128t-197 101q-229 82 -323 178q-93 96 -93 252t97 252t251 119v157h244v-161q315 -55 334 -363h-279q-6 74 -50 126t-133 53t-131 -41t-42 -108t52 -112t206 -102q227 -84 317 -184
t90 -265q0 -164 -98 -262t-266 -125v-203z" />
    <glyph glyph-name="sterling.cap" horiz-adv-x="1107" 
d="M631 1208q-131 0 -129 -180q0 -84 16 -231h287v-187h-279q-2 -248 -114 -374h657l-41 -236h-942v217q162 74 162 330q0 43 -2 63h-176v187h159q-12 115 -12 176q1 217 105 334t309 117t302 -104q97 -103 99 -271h-252q-23 160 -149 159z" />
    <glyph glyph-name="yen.cap" horiz-adv-x="1011" 
d="M891 778v-147h-260v-111h260v-147h-260v-373h-277v373h-254v147h254v111h-254v147h215l-329 625h307l211 -485h2q8 27 219 485h293l-346 -625h219z" />
    <glyph glyph-name="Euro.cap" horiz-adv-x="1179" 
d="M674 -20q-201 0 -325 132t-156 398h-140v147h129v50q0 45 2 65h-131v150h144q37 250 163 374t325 125q197 0 309 -104t124 -275h-266q-27 162 -176 162q-82 0 -133 -59t-72 -223h363v-150h-373v-115h373v-147h-363q19 -168 71 -238t142 -69q147 0 184 162h260
q-59 -385 -454 -385z" />
    <glyph glyph-name="cent.cap" horiz-adv-x="1155" 
d="M731 -16h-246v170q-180 37 -278 176t-98 354t97 356t279 183v147h246v-141q170 -27 256 -135t92 -242h-276q-9 74 -57 123t-134 49q-213 0 -213 -332t215 -332q156 0 191 154h274q-41 -315 -348 -364v-166z" />
    <glyph glyph-name="florin.cap" horiz-adv-x="1040" 
d="M863 1270q-75 0 -103 -52t-45 -176l-19 -118h217v-201h-245l-76 -498q-35 -237 -111 -355t-250 -118q-141 0 -229 47l45 215q53 -26 123 -26t94 48q25 48 47 193l80 494h-172v201h203l14 84q49 285 133 378q99 109 287 109q114 0 166 -35l-41 -213q-43 23 -118 23z" />
    <glyph glyph-name="colonmonetary.cap" horiz-adv-x="1181" 
d="M391 717q0 -500 230 -500q174 0 204 191h271q-37 -289 -265 -377v-207h-157v174q-18 -2 -58 -2h-30v-172h-160v203q-326 123 -326 688q0 252 84 422t242 233v189h160v-152q14 2 44 2t44 -2v152h157v-183q123 -45 191 -144t74 -231h-277q-6 89 -58 141t-136 52
q-121 0 -177 -116t-57 -361z" />
    <glyph glyph-name="lira.cap" horiz-adv-x="1112" 
d="M637 1208q-129 0 -129 -172q0 -76 8 -170h291v-133h-279q4 -53 4 -86h275v-133h-281q-16 -170 -108 -278h657l-41 -236h-944v217q152 70 164 297h-186v133h182q-4 57 -8 86h-174v133h159q-4 70 -4 109q-1 215 103 332t309 117t303 -104q98 -103 100 -271h-254
q-20 160 -147 159z" />
    <glyph glyph-name="franc.cap" horiz-adv-x="1099" 
d="M186 0v244h-170v182h170v977h840v-232h-561v-331h520v-226h-520v-188h256v-182h-256v-244h-279z" />
    </font>
</defs>
</svg>
